<?xml version="1.0" encoding="utf-8" ?>
<svg baseProfile="full" height="148mm" version="1.1" viewBox="0 0 210 148" width="210mm" xmlns="http://www.w3.org/2000/svg" xmlns:ev="http://www.w3.org/2001/xml-events" xmlns:xlink="http://www.w3.org/1999/xlink"><defs /><polyline fill="none" points="138.14115326843262,103.39312993774413 139.8718833709717,99.52800885620118 143.3339777069092,90.05251255493164 144.41400011901857,72.62785260620117 140.22315121765138,63.19229435424805 128.3676439178467,52.92425236206054 120.59410606384277,50.629503509521484 117.08629333190918,49.190587420654296 114.87533511657715,47.694022332763666 113.47297504577637,46.56897662963867 114.93061425476074,45.73101334838867 119.24345204772949,48.35372980346679 122.02611581726075,54.41816710815429 119.24594792175293,52.53140829467773 115.52791268005372,49.128109271240234 113.60124427185059,48.06697257690429 112.21964792175294,47.93267504272461 111.63028019714355,47.34572189331054 109.6996891204834,47.85057135620117 107.34303527526856,48.75484196166991 104.98300346374512,49.832474188232425 103.66432021179199,52.0374122253418 102.84928726501465,52.32316134643554 104.28390264587402,51.31738102416992 106.54589620056153,50.49805956420899 110.04470102233887,48.925447552490226 113.645995211792,47.542017913818356 114.65068612976074,47.303267645263674 118.72759065856934,47.28321935424805 119.37586751403809,47.448621820068354 118.00580746765137,46.84575036010742 121.01254300231933,45.2803170349121 123.52858320007324,45.46830431518555 127.45961730651855,47.596341790771476 132.46125942077637,52.45862958374023 135.79738935241699,58.18035167846679 141.37367597351073,72.26743051147461 141.3495058319092,88.13177489624024 136.34818078308106,101.90024362182618 130.68611576843261,106.91307245483398 125.65607597351075,108.52106571655274 121.87751375427246,108.78820147094727 120.91426897888184,109.10910420532227 122.02276630554199,108.70396775512695 122.91494777526856,108.65635103149415 122.07406993103028,108.15671688842774 120.25444362487794,107.63620520629883 118.26431335144044,107.05935750122072 116.3996271697998,106.41622686157227 114.9681174041748,105.76713295288087 116.9486828704834,106.24245468139648 120.00990081481933,106.74975123901368 123.4079113494873,106.62305921020507 128.17521772155763,105.6042344909668 131.75712214050293,104.37546367797852 134.01905878601076,103.12655108032227 137.1111052459717,100.7966120300293 138.8963787322998,99.00635899047852 139.93190629577637,98.07248748168945 139.9293860321045,97.14699788208009 139.2805563446045,96.44812876586914 138.43923542175293,96.27085667114258 137.61917414245607,96.23460552368164 136.69322113952637,96.20990693969728 135.90898012390136,96.29967710571289 138.13929965515138,95.98672133178711 140.62918195495607,95.87148837280273" stroke="#33ccff" stroke-linecap="round" stroke-width="1" /></svg>