<?xml version="1.0" encoding="utf-8" ?>
<svg baseProfile="full" height="148mm" version="1.1" viewBox="0 0 210 148" width="210mm" xmlns="http://www.w3.org/2000/svg" xmlns:ev="http://www.w3.org/2001/xml-events" xmlns:xlink="http://www.w3.org/1999/xlink"><defs /><polyline fill="none" points="111.25205365905762,105.03689061889648 115.08392758483888,97.26658845825196 116.22274124450684,80.30790900268555 114.1380157196045,75.74165463256836 113.61403664245606,76.21986246948242 114.09777686462402,78.70647655639648 115.96948320007324,60.84867677612304 111.58489512634277,49.44189022827149 106.5321566986084,45.4620930847168 104.74064352722168,45.78156495971679 109.60781331481934,48.43756515502929 112.53125007019042,54.26387819213866 109.35781535339356,52.03122538452148 109.46656473083496,54.9970147644043 110.58989909362793,59.08969533081054 112.09436236267089,64.77106068725585 112.64254003601074,67.99213651733399 111.10574828796386,61.14826295776368 109.3599900970459,58.340185174560546 108.3587137298584,58.37492416381836 108.382644039917,53.14219826049805 108.66681189880372,54.82825465698242 108.684035055542,57.3322423034668 104.78843097839355,60.73824044799804 97.8476207611084,64.64425890502929 95.67977937927246,68.48174244995117 105.11993507995605,58.740484344482425 113.78098785095214,54.05335487670898 116.96953195495605,51.96153602905272 116.40850093688965,50.42242726440429 115.6465398651123,49.60259362182617 115.25627703552246,48.587886688232416 112.35708359069824,47.07063917846679 107.30608495788574,46.05728180541992 102.51373041687012,46.72299725952148 99.60412259216308,49.527627972412105 102.57355009460449,57.273877874755854 105.77601255798339,69.01020922241212 104.9323908782959,86.51811510620118 101.20202260437011,96.74271913452148 98.53016913757324,104.67307429809571 99.16027164001464,106.55573565063477 100.0323519744873,106.02254948120117 101.6607959564209,105.94860006713867 103.38649772644042,106.14805454711914 104.8623438079834,106.36377692260743 106.31977976989747,106.49218435668945 107.65320656433106,106.47849769897462 108.78482934265136,106.26508421020509 109.64303196716308,105.83225331420898 110.02284789733886,105.15129026489258 109.59583799743652,104.2209837097168 108.11219129333496,102.97506697387695 105.70125422058105,101.49003412475587 103.55552611999512,99.82676985473633 103.7203960784912,98.28188887329102 104.35347005310058,97.23240230102539 104.80845894470215,96.42149120483398 103.85894147644044,96.4853717590332 102.91591978454589,96.89187402954101 101.92148471374512,97.09018219604492 101.00379980163574,97.32648130493165 100.5257342376709,97.80685575561523 101.53363239440918,97.83945658569337 102.38220923767089,97.784970111084 103.30364202575683,97.76976316528321 104.35317737731934,97.78371810913086 106.087415524292,97.86122434692383 108.01000679626465,98.07148750610352" stroke="#33ccff" stroke-linecap="round" stroke-width="1" /></svg>