<?xml version="1.0" encoding="utf-8" ?>
<svg baseProfile="full" height="148mm" version="1.1" viewBox="0 0 210 148" width="210mm" xmlns="http://www.w3.org/2000/svg" xmlns:ev="http://www.w3.org/2001/xml-events" xmlns:xlink="http://www.w3.org/1999/xlink"><defs /><polyline fill="none" points="131.82294980163573,105.24956428833008 132.3078485321045,104.45059598999023 133.0382372039795,103.63603457641602 134.4639015838623,102.51935045776368 136.80818581237793,100.53643952026367 139.77730031433106,96.87940685424805 143.65649015808106,88.23084158325196 141.40686215515137,65.3552008972168 133.30566156921387,57.58258578491211 129.9666943084717,57.81924667358399 126.95160531921387,57.58374022827148 127.84615258483888,59.91726862182617 128.53866413269043,89.51703375854493 129.3131167694092,91.55776848754883 119.11468689880371,52.93416268920899 126.67316496276855,56.146750921630854 133.7147816619873,66.43702001342774 134.19659103698731,72.89339896850586 132.64367773132324,76.91161793823242 128.81296637878418,80.0634678161621 125.5463875946045,80.76941806030274 120.05183475036621,81.64031549682618 114.61701215515137,81.98477050170898 111.48948688659668,82.45515739135742 108.20475813903809,84.39775223999024 106.15383666687012,86.05956532592774 103.91835059509278,87.33783899536132 100.66037322692871,87.27782826538086 100.95415060729981,89.23740643920898 101.00686476745605,87.66510742797851 99.54964424743652,89.13787634887696 94.97260965270996,91.11149889526368 81.80237632141113,94.8385176574707 65.58599988098143,48.70111156616211 76.32272758483887,42.134800335693356 81.91408091125489,42.11489025268554 80.08723323669433,43.644137469482416 79.2733140838623,44.21522108764648 78.39830089416503,47.622893988037106 73.29364300231933,55.075443743896486 67.13244789733886,68.77307680053711 69.22901764526367,80.33364008178711 81.00964567565917,88.67540390014648 84.98110562438964,88.3254368347168 89.30075625915526,89.9730795349121 89.4540045501709,86.32452633666992 82.01632231750489,73.78325529174805 74.47568731384277,51.89296859741211 78.4814574005127,49.52433536987304 81.2102363067627,48.16572626342773 82.06128666687012,47.56297675170899 81.13193943786621,50.28600783081055 81.89264241027831,55.73338703002929 84.24038387145995,66.36052594604492 87.15041038513183,77.08774371948242 89.0626685760498,83.13916508178711 90.25089566345214,88.66503423461914 97.07393233337402,86.4397592956543 103.11587831726074,82.08434530639649 105.14823113708496,81.8266686706543 105.14946281433106,84.51801759643556 104.37892878112793,87.36080997924805 112.96276799011231,75.73860592651367 106.70087615661622,52.9711780456543 101.66767790222168,48.683656707763674 107.4330859222412,47.69155897827147" stroke="#ff3399" stroke-linecap="round" stroke-width="2" /><text fill="gray" font-size="8px" x="5" y="143">Duration: 20s | 20251114_162234</text></svg>