<?xml version="1.0" encoding="utf-8" ?>
<svg baseProfile="full" height="148mm" version="1.1" viewBox="0 0 210 148" width="210mm" xmlns="http://www.w3.org/2000/svg" xmlns:ev="http://www.w3.org/2001/xml-events" xmlns:xlink="http://www.w3.org/1999/xlink"><defs /><polyline fill="none" points="103.14746223449707,121.80059109497071 105.52852198791504,122.61208212280275 109.12153047180176,121.38056747436525 114.02487281799317,118.03140127563478 120.06872932434082,110.73664712524415 126.54502784729004,95.35686001586915 129.8085999298096,82.41101077270508 132.54841786193847,78.99135171508789 134.04477021789552,79.13892263793946 132.9773369293213,80.91398770141602 114.72340589904785,78.1350040588379 116.24507606506347,78.89776321411134 135.9908609161377,78.57697158813477 135.15597615051269,80.62087832641602 134.00481184387206,82.3355519104004 132.86081538391113,82.96545523071289 131.53776502990723,82.71879458618164 130.03180586242675,81.08231692504883 129.36716761779786,79.01776028442383 128.4790659942627,76.40468045043946 125.64519886779786,74.26492239379883 123.06803956604004,72.17028518676757 119.17333113098145,72.7564903869629 115.1934282989502,75.20334121704101 110.28408338928223,77.88843826293946 102.81944178771973,78.38537734985351 95.12676374816894,61.47749746704102 69.40587071228026,39.072407623291014 66.91289295959473,25.756323516845697 63.91879600524902,20.529527008056633 64.53131492614745,17.27043313598631 66.41382316589355,15.784981597900384 67.55670515441895,15.484826324462887 72.0398036956787,18.910311798095705 73.67130519104003,21.785038360595706 71.87301914978028,23.35341470336914 68.35826078796387,25.655336822509753 65.5935891265869,26.80227359008788 68.99525065612792,33.86540737915038 73.12668772888183,45.899124420166004 80.97181800842284,62.16321243286133 81.64109706115723,74.93445889282226 77.56868632507323,83.0921594543457 75.5678374786377,84.80843191528321 81.46772731018066,56.7612033996582 58.406051193237296,35.56219522094726 49.67860844421386,33.80670962524414 55.226538711547846,32.23189712524413 64.94184690856933,31.85952139282226 86.33642958068847,42.355850494384754 94.36102363586426,55.31706521606445 96.84626783752441,71.85896487426757 95.78387507629394,80.84014126586914 92.05029414367675,90.74743325805665 88.05939564514159,97.38315878295899 86.3455689239502,100.2289768371582 82.65609260559081,102.55950259399414 80.1282545928955,97.89696737670899 81.26282716369629,97.9409635925293 81.90611091613769,99.53507778930664 83.81624043273925,100.86041806030273 87.21474147033692,101.4211564025879 109.5365474395752,79.35636990356446 110.89622969055176,50.60425344848633 116.78519160461425,50.20296243286133 106.35800715637207,35.96561355590819" stroke="#ff3399" stroke-linecap="round" stroke-width="2" /><polyline fill="none" points="149.70491633605957,126.0826071472168 150.51308088684084,124.7509933166504 151.7303953399658,123.39339096069337 154.1065026397705,121.53225076293947 158.0136430206299,118.22739920043946 162.96216719055178,112.13234475708009 169.42748359680178,97.71806930541993 165.67810359191895,59.59200149536133 152.17610261535646,46.63764297485352 146.61115718078614,47.03207778930664 141.58600886535646,46.63956704711913 143.07692097473145,50.528781036376955 144.2311068878174,99.8617229309082 145.52186128234865,103.26294747924806 128.52447816467284,38.890271148681634 141.12194160461428,44.24458486938477 152.8579694366455,61.39503335571288 153.6609850616455,72.15566494750976 151.07279621887207,78.8526965637207 144.68827729797363,84.10577969360352 139.24397932434084,85.2823634338379 130.08639125061035,86.73385916137696 121.02835359191894,87.30795083618165 115.81581147766113,88.0919289855957 110.34126356506347,91.32958706665039 106.9230611114502,94.0992755432129 103.19725099182129,96.22973165893555 97.76728871154785,96.12971377563477 98.256917678833,99.39567739868164 98.34477461242676,96.77517904663087 95.91607374572754,99.22979391479493 88.2876827545166,102.51916482543946 66.33729386901855,108.73086276245118 39.309999801635726,31.835185943603506 57.20454597473144,20.89133389282226 66.5234681854248,20.858150421142568 63.47872206115722,23.4068957824707 62.1221901397705,24.35870181274413 60.66383482360839,30.03815664672851 52.15607167053222,42.45907290649413 41.88741316223144,65.28846133422851 45.38169607543944,84.55606680297852 65.01607612609862,98.45900650024414 71.63517604064941,97.87572805786132 78.83459376525879,100.62179922485352 79.09000758361816,94.5408772277832 66.6938705291748,73.63875881958008 54.12614552307128,37.15494766235351 60.80242900085449,33.20722561645508 65.3503938446045,30.94287710571288 66.76881111145019,29.938294586181627 65.21989906311035,34.47667971801758 66.48773735046386,43.555645050048824 70.4006397857666,61.2675432434082 75.25068397521972,79.1462395324707 78.437780960083,89.23194180297853 80.4181594390869,98.44172372436523 91.78988722229003,94.73293215942383 101.85979719543457,87.47390884399414 105.2470518951416,87.04444778442382 105.24910469055176,91.53002932739258 103.96488130187988,96.26801663208008 118.27127998352051,76.89767654418945 107.83479359436035,38.951963409423826 99.44612983703612,31.80609451293944 109.05514320373535,30.15259829711914" stroke="#ff3399" stroke-linecap="round" stroke-width="2" /><polyline fill="none" points="115.4200894317627,125.72815103149415 121.80654597473145,112.77764743041993 123.70456874084473,84.51318167114258 120.23002619934083,76.90275772094726 119.35672773742675,77.69977078247071 120.16296144104004,81.84412759399414 123.28247200012207,52.08112796020508 115.9748252105713,33.06981704711913 107.55359449768066,26.43682180786132 104.56773921203613,26.969274932861325 112.67968885803222,31.395941925048817 117.55208345031738,41.10646365356445 112.26302558898927,37.38537564086914 112.4442745513916,42.328357940673826 114.31649848937988,49.14949221801757 116.82393727111817,58.61843447875977 117.73756672668458,63.986894195556644 115.17624714660644,52.58043826293945 112.26665016174317,47.90030862426758 110.59785621643067,47.95820693969726 110.63774006652832,39.23699710083008 111.11135316467285,42.047091094970696 111.14005842590332,46.22040383911133 104.64738496398925,51.89706741333008 93.07936793518067,58.40709817504883 89.4662989654541,64.80290408325195 105.19989179992676,48.5674739074707 119.63497975158691,40.75559146118164 124.94921992492677,37.26922671508788 124.01416822814942,34.70404544067382 122.74423310852052,33.337656036376956 122.0937950592041,31.646477813720708 117.26180598449707,29.11773196411133 108.84347492980957,27.428803009033203 100.85621736145019,28.538328765869124 96.00687098693848,33.21271328735351 100.95591682434082,46.12312979125976 106.29335426330566,65.68368203735352 104.88731813049317,94.86352517700196 98.67003767395019,111.90453189086915 94.21694856262206,125.12179049682618 95.26711940002441,128.25955941772463 96.72058662414551,127.37091580200196 99.43465992736816,127.24766677856445 102.31082954406739,127.58009091186524 104.77057301330566,127.93962820434571 107.1996329498291,128.15364059448243 109.42201094055176,128.130829498291 111.30804890441894,127.77514035034181 112.73838661193848,127.05375552368164 113.37141316223145,125.91881710815431 112.65972999572755,124.36830618286133 110.18698548889161,122.29177828979493 106.16875703430176,119.81672354125976 102.5925435333252,117.04461642456056 102.86732679748535,114.46981478881837 103.92245008850098,112.72067050170898 104.68076490783692,111.36915200805664 103.09823579406738,111.47561959838868 101.52653297424317,112.15312338256837 99.86914118957519,112.48363699340821 98.33966633605957,112.87746884155274 97.54289039611817,113.67809292602539 99.22272065734863,113.73242764282227 100.63701539611816,113.64161685180665 102.17273670959473,113.61627194213867 103.92196229553223,113.63953018188477 106.81235920715332,113.76870724487304 110.01667799377441,114.11914584350586" stroke="#33ccff" stroke-linecap="round" stroke-width="2" /><polyline fill="none" points="160.23525544738771,122.98854989624024 163.11980561828614,116.54668142700196 168.88996284484864,100.75418759155274 170.69000019836426,71.71308767700195 163.70525202941894,55.98715725708007 143.94607319641113,38.87375393676757 130.99017677307128,35.049172515869145 125.14382221984863,32.65097903442381 121.45889186096191,30.156703887939443 119.12162507629395,28.28162771606445 121.55102375793457,26.885022247314453 128.73908674621583,31.25621633911132 133.37685969543458,41.36361184692382 128.7432465362549,38.21901382446288 122.54652113342286,32.546848785400385 119.33540711975098,30.778287628173814 117.03274653625489,30.55445840454101 116.05046699523926,29.576203155517575 112.83281520080567,30.41761892700194 108.90505879211426,31.9247366027832 104.9716724395752,33.7207903137207 102.77386701965332,37.39568704223632 101.41547877502441,37.87193557739258 103.80650440979004,36.19563504028321 107.57649366760253,34.83009927368164 113.40783503723145,32.20907925415038 119.40999201965332,29.90336318969726 121.08447688293458,29.505446075439437 127.87931776428223,29.472032257080073 128.95977919006347,29.747703033447266 126.67634577941895,28.742917266845694 131.68757167053224,26.133861724853517 135.88097200012209,26.44717385864257 142.43269551086428,29.993902984619126 150.76876570129394,38.09771597290039 156.32898225402832,47.63391946411133 165.62279328918459,71.11238418579102 165.58250971984864,97.5529581604004 157.24696797180178,120.50040603637696 147.8101929473877,128.85512075805664 139.42679328918456,131.5351095275879 133.1291895904541,131.9803357849121 131.52378163146972,132.5151736755371 133.37127717590332,131.83994625854493 134.85824629211427,131.76058505249023 133.4567832183838,130.9278614807129 130.4240727081299,130.06034201049806 127.10718891906738,129.09892916870118 123.99937861633302,128.0270447692871 121.613529006958,126.94522158813477 124.91447145080566,127.73742446899415 130.01650135803223,128.58291873168946 135.6798522491455,128.3717653503418 143.6253628692627,126.67372415161134 149.59520356750488,124.62577279663087 153.36509797668458,122.54425180053713 158.51850874328613,118.66102005004883 161.49396455383302,115.67726498413086 163.21984382629395,114.12081246948243 163.21564338684084,112.5783298034668 162.13426057434083,111.41354794311525 160.7320590362549,111.11809445190431 159.36529023742676,111.05767587280275 157.82203523254395,111.01651156616211 156.51496687316896,111.16612850952149 160.23216609191894,110.64453555297851 164.38196992492675,110.4524806213379" stroke="#33ccff" stroke-linecap="round" stroke-width="2" /><text fill="gray" font-size="8px" x="5" y="143">Duration: 20s | People: 2 | 20251114_161847</text></svg>