<?xml version="1.0" encoding="utf-8" ?>
<svg baseProfile="full" height="148mm" version="1.1" viewBox="0 0 210 148" width="210mm" xmlns="http://www.w3.org/2000/svg" xmlns:ev="http://www.w3.org/2001/xml-events" xmlns:xlink="http://www.w3.org/1999/xlink"><defs /><rect fill="white" height="148" width="210" x="0" y="0" /><polyline fill="none" points="149.70491633605957,126.0826071472168 150.51308088684084,124.7509933166504 151.7303953399658,123.39339096069337 154.1065026397705,121.53225076293947 158.0136430206299,118.22739920043946 162.96216719055178,112.13234475708009 169.42748359680178,97.71806930541993 165.67810359191895,59.59200149536133 152.17610261535646,46.63764297485352 146.61115718078614,47.03207778930664 141.58600886535646,46.63956704711913 143.07692097473145,50.528781036376955 144.2311068878174,99.8617229309082 145.52186128234865,103.26294747924806 128.52447816467284,38.890271148681634 141.12194160461428,44.24458486938477 152.8579694366455,61.39503335571288 153.6609850616455,72.15566494750976 151.07279621887207,78.8526965637207 144.68827729797363,84.10577969360352 139.24397932434084,85.2823634338379 130.08639125061035,86.73385916137696 121.02835359191894,87.30795083618165 115.81581147766113,88.0919289855957 110.34126356506347,91.32958706665039 106.9230611114502,94.0992755432129 103.19725099182129,96.22973165893555 97.76728871154785,96.12971377563477 98.256917678833,99.39567739868164 98.34477461242676,96.77517904663087 95.91607374572754,99.22979391479493 88.2876827545166,102.51916482543946 66.33729386901855,108.73086276245118 39.309999801635726,31.835185943603506 57.20454597473144,20.89133389282226 66.5234681854248,20.858150421142568 63.47872206115722,23.4068957824707 62.1221901397705,24.35870181274413 60.66383482360839,30.03815664672851 52.15607167053222,42.45907290649413 41.88741316223144,65.28846133422851 45.38169607543944,84.55606680297852 65.01607612609862,98.45900650024414 71.63517604064941,97.87572805786132 78.83459376525879,100.62179922485352 79.09000758361816,94.5408772277832 66.6938705291748,73.63875881958008 54.12614552307128,37.15494766235351 60.80242900085449,33.20722561645508 65.3503938446045,30.94287710571288 66.76881111145019,29.938294586181627 65.21989906311035,34.47667971801758 66.48773735046386,43.555645050048824 70.4006397857666,61.2675432434082 75.25068397521972,79.1462395324707 78.437780960083,89.23194180297853 80.4181594390869,98.44172372436523 91.78988722229003,94.73293215942383 101.85979719543457,87.47390884399414 105.2470518951416,87.04444778442382 105.24910469055176,91.53002932739258 103.96488130187988,96.26801663208008 118.27127998352051,76.89767654418945 107.83479359436035,38.951963409423826 99.44612983703612,31.80609451293944 109.05514320373535,30.15259829711914" stroke="#ff3399" stroke-linecap="round" stroke-width="2" /><text fill="black" font-size="10px" font-weight="bold" x="5" y="10">Person 0 - Right Hand</text><text fill="gray" font-size="8px" x="5" y="143">Duration: 20s | 20251114_161847</text></svg>