<?xml version="1.0" encoding="utf-8" ?>
<svg baseProfile="full" height="148mm" version="1.1" viewBox="0 0 210 148" width="210mm" xmlns="http://www.w3.org/2000/svg" xmlns:ev="http://www.w3.org/2001/xml-events" xmlns:xlink="http://www.w3.org/1999/xlink"><defs /><rect fill="white" height="148" width="210" x="0" y="0" /><polyline fill="none" points="115.4200894317627,125.72815103149415 121.80654597473145,112.77764743041993 123.70456874084473,84.51318167114258 120.23002619934083,76.90275772094726 119.35672773742675,77.69977078247071 120.16296144104004,81.84412759399414 123.28247200012207,52.08112796020508 115.9748252105713,33.06981704711913 107.55359449768066,26.43682180786132 104.56773921203613,26.969274932861325 112.67968885803222,31.395941925048817 117.55208345031738,41.10646365356445 112.26302558898927,37.38537564086914 112.4442745513916,42.328357940673826 114.31649848937988,49.14949221801757 116.82393727111817,58.61843447875977 117.73756672668458,63.986894195556644 115.17624714660644,52.58043826293945 112.26665016174317,47.90030862426758 110.59785621643067,47.95820693969726 110.63774006652832,39.23699710083008 111.11135316467285,42.047091094970696 111.14005842590332,46.22040383911133 104.64738496398925,51.89706741333008 93.07936793518067,58.40709817504883 89.4662989654541,64.80290408325195 105.19989179992676,48.5674739074707 119.63497975158691,40.75559146118164 124.94921992492677,37.26922671508788 124.01416822814942,34.70404544067382 122.74423310852052,33.337656036376956 122.0937950592041,31.646477813720708 117.26180598449707,29.11773196411133 108.84347492980957,27.428803009033203 100.85621736145019,28.538328765869124 96.00687098693848,33.21271328735351 100.95591682434082,46.12312979125976 106.29335426330566,65.68368203735352 104.88731813049317,94.86352517700196 98.67003767395019,111.90453189086915 94.21694856262206,125.12179049682618 95.26711940002441,128.25955941772463 96.72058662414551,127.37091580200196 99.43465992736816,127.24766677856445 102.31082954406739,127.58009091186524 104.77057301330566,127.93962820434571 107.1996329498291,128.15364059448243 109.42201094055176,128.130829498291 111.30804890441894,127.77514035034181 112.73838661193848,127.05375552368164 113.37141316223145,125.91881710815431 112.65972999572755,124.36830618286133 110.18698548889161,122.29177828979493 106.16875703430176,119.81672354125976 102.5925435333252,117.04461642456056 102.86732679748535,114.46981478881837 103.92245008850098,112.72067050170898 104.68076490783692,111.36915200805664 103.09823579406738,111.47561959838868 101.52653297424317,112.15312338256837 99.86914118957519,112.48363699340821 98.33966633605957,112.87746884155274 97.54289039611817,113.67809292602539 99.22272065734863,113.73242764282227 100.63701539611816,113.64161685180665 102.17273670959473,113.61627194213867 103.92196229553223,113.63953018188477 106.81235920715332,113.76870724487304 110.01667799377441,114.11914584350586" stroke="#33ccff" stroke-linecap="round" stroke-width="2" /><text fill="black" font-size="10px" font-weight="bold" x="5" y="10">Person 1 - Left Hand</text><text fill="gray" font-size="8px" x="5" y="143">Duration: 20s | 20251114_161847</text></svg>