<?xml version="1.0" encoding="utf-8" ?>
<svg baseProfile="full" height="148mm" version="1.1" viewBox="0 0 210 148" width="210mm" xmlns="http://www.w3.org/2000/svg" xmlns:ev="http://www.w3.org/2001/xml-events" xmlns:xlink="http://www.w3.org/1999/xlink"><defs /><rect fill="white" height="148" width="210" x="0" y="0" /><polyline fill="none" points="103.14746223449707,121.80059109497071 105.52852198791504,122.61208212280275 109.12153047180176,121.38056747436525 114.02487281799317,118.03140127563478 120.06872932434082,110.73664712524415 126.54502784729004,95.35686001586915 129.8085999298096,82.41101077270508 132.54841786193847,78.99135171508789 134.04477021789552,79.13892263793946 132.9773369293213,80.91398770141602 114.72340589904785,78.1350040588379 116.24507606506347,78.89776321411134 135.9908609161377,78.57697158813477 135.15597615051269,80.62087832641602 134.00481184387206,82.3355519104004 132.86081538391113,82.96545523071289 131.53776502990723,82.71879458618164 130.03180586242675,81.08231692504883 129.36716761779786,79.01776028442383 128.4790659942627,76.40468045043946 125.64519886779786,74.26492239379883 123.06803956604004,72.17028518676757 119.17333113098145,72.7564903869629 115.1934282989502,75.20334121704101 110.28408338928223,77.88843826293946 102.81944178771973,78.38537734985351 95.12676374816894,61.47749746704102 69.40587071228026,39.072407623291014 66.91289295959473,25.756323516845697 63.91879600524902,20.529527008056633 64.53131492614745,17.27043313598631 66.41382316589355,15.784981597900384 67.55670515441895,15.484826324462887 72.0398036956787,18.910311798095705 73.67130519104003,21.785038360595706 71.87301914978028,23.35341470336914 68.35826078796387,25.655336822509753 65.5935891265869,26.80227359008788 68.99525065612792,33.86540737915038 73.12668772888183,45.899124420166004 80.97181800842284,62.16321243286133 81.64109706115723,74.93445889282226 77.56868632507323,83.0921594543457 75.5678374786377,84.80843191528321 81.46772731018066,56.7612033996582 58.406051193237296,35.56219522094726 49.67860844421386,33.80670962524414 55.226538711547846,32.23189712524413 64.94184690856933,31.85952139282226 86.33642958068847,42.355850494384754 94.36102363586426,55.31706521606445 96.84626783752441,71.85896487426757 95.78387507629394,80.84014126586914 92.05029414367675,90.74743325805665 88.05939564514159,97.38315878295899 86.3455689239502,100.2289768371582 82.65609260559081,102.55950259399414 80.1282545928955,97.89696737670899 81.26282716369629,97.9409635925293 81.90611091613769,99.53507778930664 83.81624043273925,100.86041806030273 87.21474147033692,101.4211564025879 109.5365474395752,79.35636990356446 110.89622969055176,50.60425344848633 116.78519160461425,50.20296243286133 106.35800715637207,35.96561355590819" stroke="#ff3399" stroke-linecap="round" stroke-width="2" /><text fill="black" font-size="10px" font-weight="bold" x="5" y="10">Person 0 - Left Hand</text><text fill="gray" font-size="8px" x="5" y="143">Duration: 20s | 20251114_161847</text></svg>