<?xml version="1.0" encoding="utf-8" ?>
<svg baseProfile="full" height="148mm" version="1.1" viewBox="0 0 210 148" width="210mm" xmlns="http://www.w3.org/2000/svg" xmlns:ev="http://www.w3.org/2001/xml-events" xmlns:xlink="http://www.w3.org/1999/xlink"><defs /><rect fill="white" height="148" width="210" x="0" y="0" /><polyline fill="none" points="160.23525544738771,122.98854989624024 163.11980561828614,116.54668142700196 168.88996284484864,100.75418759155274 170.69000019836426,71.71308767700195 163.70525202941894,55.98715725708007 143.94607319641113,38.87375393676757 130.99017677307128,35.049172515869145 125.14382221984863,32.65097903442381 121.45889186096191,30.156703887939443 119.12162507629395,28.28162771606445 121.55102375793457,26.885022247314453 128.73908674621583,31.25621633911132 133.37685969543458,41.36361184692382 128.7432465362549,38.21901382446288 122.54652113342286,32.546848785400385 119.33540711975098,30.778287628173814 117.03274653625489,30.55445840454101 116.05046699523926,29.576203155517575 112.83281520080567,30.41761892700194 108.90505879211426,31.9247366027832 104.9716724395752,33.7207903137207 102.77386701965332,37.39568704223632 101.41547877502441,37.87193557739258 103.80650440979004,36.19563504028321 107.57649366760253,34.83009927368164 113.40783503723145,32.20907925415038 119.40999201965332,29.90336318969726 121.08447688293458,29.505446075439437 127.87931776428223,29.472032257080073 128.95977919006347,29.747703033447266 126.67634577941895,28.742917266845694 131.68757167053224,26.133861724853517 135.88097200012209,26.44717385864257 142.43269551086428,29.993902984619126 150.76876570129394,38.09771597290039 156.32898225402832,47.63391946411133 165.62279328918459,71.11238418579102 165.58250971984864,97.5529581604004 157.24696797180178,120.50040603637696 147.8101929473877,128.85512075805664 139.42679328918456,131.5351095275879 133.1291895904541,131.9803357849121 131.52378163146972,132.5151736755371 133.37127717590332,131.83994625854493 134.85824629211427,131.76058505249023 133.4567832183838,130.9278614807129 130.4240727081299,130.06034201049806 127.10718891906738,129.09892916870118 123.99937861633302,128.0270447692871 121.613529006958,126.94522158813477 124.91447145080566,127.73742446899415 130.01650135803223,128.58291873168946 135.6798522491455,128.3717653503418 143.6253628692627,126.67372415161134 149.59520356750488,124.62577279663087 153.36509797668458,122.54425180053713 158.51850874328613,118.66102005004883 161.49396455383302,115.67726498413086 163.21984382629395,114.12081246948243 163.21564338684084,112.5783298034668 162.13426057434083,111.41354794311525 160.7320590362549,111.11809445190431 159.36529023742676,111.05767587280275 157.82203523254395,111.01651156616211 156.51496687316896,111.16612850952149 160.23216609191894,110.64453555297851 164.38196992492675,110.4524806213379" stroke="#33ccff" stroke-linecap="round" stroke-width="2" /><text fill="black" font-size="10px" font-weight="bold" x="5" y="10">Person 1 - Right Hand</text><text fill="gray" font-size="8px" x="5" y="143">Duration: 20s | 20251114_161847</text></svg>