<?xml version="1.0" encoding="utf-8" ?>
<svg baseProfile="full" height="148mm" version="1.1" viewBox="0 0 210 148" width="210mm" xmlns="http://www.w3.org/2000/svg" xmlns:ev="http://www.w3.org/2001/xml-events" xmlns:xlink="http://www.w3.org/1999/xlink"><defs /><rect fill="white" height="148" width="210" x="0" y="0" /><polyline fill="none" points="102.87020596482982,128.95456863954362 105.60762214853534,129.88750980968035 109.73837088672384,128.47168304419748 115.37556192044117,124.62127074725124 122.32395982970007,116.23476216057364 129.76952030409834,98.55319071965809 133.5215282167743,83.66982746966897 136.67139538707528,79.73837214451855 138.3916962530417,79.90802896723304 137.164507748018,81.94875550713438 116.17863952409553,78.7538609705625 117.92804733829827,79.63077691226357 140.62904462898217,79.26197466474127 139.6692085452088,81.61177851797271 138.34575759082657,83.58307521131833 137.03054724421364,84.30725172168017 135.50948526930577,84.02367511708056 133.77813980804927,82.14227737919222 133.01402984207925,79.76873309828501 131.99301230837372,76.76457202395866 128.73502026373052,74.30457146116132 125.77215569450158,71.89644466749806 121.29455369999495,72.57038306811293 116.71900686361728,75.38343681519098 111.07491490505721,78.47039340992201 102.49309300985016,79.04170586727705 93.64910607030617,59.60334277835409 64.07874826860481,33.8450410609712 61.212664107540384,18.53603250533058 57.7704617660645,12.52697820438081 60.63890205553179,7.072350124827722 61.9528311356248,6.727272727272748 67.10688343623366,10.66542646705608 68.98256026069421,13.97039309152629 66.91513742293895,15.773497266751605 62.87434995104154,18.419931844262663 59.69590936901856,19.73852255360893 63.60667360292204,27.858745792064923 68.35643374173543,41.69346444241479 77.37568937346252,60.39168386981602 78.14513470457621,75.07431276873554 73.46323495819236,84.45291887338371 71.16293316798368,86.42605373632627 77.94581792497547,54.18119422091647 51.43266329486818,29.80947991025829 41.399045705370256,27.79126315906528 47.77729559098067,25.98075957232686 58.94662548706456,25.552652988740462 83.54318454704375,37.61989368308714 92.76876303274638,52.52092205445703 95.62595621671373,71.53853123818136 94.40456261923295,81.86385699608911 90.1122029447437,93.25390354875512 85.52401479795995,100.88275134076046 83.55369171139237,104.15448292425543 79.31203747790354,106.83380204430162 76.40587576742779,101.4734580451341 77.71025181781465,101.52403886446695 78.44981131526956,103.35673289689049 80.64581645298726,104.88042750452621 84.5529471863951,105.52508760211181 110.21550051879821,80.15802003241731 111.77867682849707,47.10277696809071 118.548998163625,46.64142755467485 106.56125051549189,30.27327502390061" stroke="#ff3399" stroke-dasharray="5,2" stroke-linecap="round" stroke-width="2" /><polyline fill="none" points="156.3955860594687,133.87744385234708 157.3247029021813,132.34653676569965 158.72420422920993,130.78575163424765 161.4559267604775,128.64606770142612 165.9478213024858,124.84660229996129 171.63695620502517,117.83934401932908 179.06989094672582,101.26778556048629 174.7593676641854,57.435657914596064 159.23661737092056,42.54251186370119 152.8388057779257,42.995978956642034 147.0615789341091,42.544723898300916 148.77562535013334,47.01600913203161 150.10255013349962,103.73226471446262 151.58648264032013,107.64252656726865 132.04522099823944,33.63564550400416 146.52805799745053,39.791301619164386 160.02053439318308,59.508536844735474 160.94373170668513,71.87963632008193 157.96818688277904,79.57896545396329 150.62814201655783,85.61824050930349 144.36903433958997,86.97091524473547 133.84089460653473,88.63964610688252 123.42720429745191,89.2996580361443 117.43453774579012,90.200968669276 111.14065283471061,93.92318421454385 107.21087211321841,97.10739244311996 102.92744625452447,99.5566989090673 96.6848197930953,99.44171205415341 97.24772807674228,103.19646943237056 94.55654653171241,103.0057593366877 85.78646802990316,106.78742720624993 60.550919158213695,113.92878619006254 29.478640490860762,25.52467542436665 50.05133725917199,12.942934175377246 60.76495687229844,12.90478436738644 57.264525056641425,15.834982481998509 55.70497056415688,16.92923861197545 54.02835348710767,23.458697419070006 44.24729339026095,37.738564666049115 32.44179714212309,63.9846667457937 36.459044749341025,86.13591891646975 59.0319640683735,102.11961360273078 66.64169801211231,101.44903998714081 74.91860184214508,104.60609626989087 75.21224164640253,97.61508553917062 60.96086213374894,73.58469439833131 46.512214310155585,31.640608382982776 54.18769007797491,27.102058604170708 59.416316763354686,24.49882101218782 61.04701854475143,23.3438897078033 59.26629174771264,28.561502953309855 60.7238784551193,38.99925303309168 65.22239741764538,59.361966185941924 70.79831353517986,79.91644092979531 74.46240086137149,91.51159916960498 76.73916862854134,102.0997442356045 89.81282275492289,97.8358839787221 101.38982517553565,89.49045380922362 105.28402641093108,88.99671833994297 105.28638643376105,94.15362525562506 103.80996238241283,99.60071372428901 120.25749891544153,77.33135136815513 108.2590571704584,33.706570810570966 98.6149212364484,25.491230084327356 109.66204790417959,23.590266744627485" stroke="#ff3399" stroke-linecap="round" stroke-width="2" /><polyline fill="none" points="116.97959077054666,133.46993878818407 124.321863249076,118.58122459534283 126.50394970429483,86.08661546922971 122.50939687107306,77.33719300882339 121.50539798384771,78.25348939748271 122.43229500310636,83.0181028813019 126.01868071955603,48.800684878162144 117.61734994328951,26.944085062792723 107.93577298702311,19.318376179039774 104.50304578671114,19.930517810238797 113.82905375878236,25.01969284958605 119.43066530640291,36.18351992016045 113.3500314351315,31.905522892860873 113.55840665219516,37.58828651264477 115.7108331505277,45.43029187820753 118.59354262093399,56.316383984850546 119.6439085573568,62.48830322763119 116.69925432930437,49.37472343449569 113.35419847214152,43.99415178090757 111.4356478996031,44.060715329108746 111.48150088442176,34.03426348549722 112.02599631668242,37.26492444066726 112.05899769203091,42.062827487441254 104.59461155697244,48.58907728659538 91.29529095714919,56.07341846617662 87.14147942160243,63.42643956353555 105.22980819667548,44.76116698950328 121.82529401569542,35.78013515988211 127.93487905811871,31.771990776038862 126.85988476463854,28.822896901078565 125.39988740684944,27.25200962569761 124.65210287933363,25.307724678802003 119.09694405830703,22.400519261860182 109.41870073164866,20.45882021456704 100.23604662157632,21.73440087088653 94.66093275602697,27.108367576092405 100.35066740034165,41.95099511848824 106.48692147962906,64.43903734582456 104.87045382932729,97.98602193275039 97.72267682963383,117.57743600718155 92.60312525881164,132.7728285462518 93.81046776327173,136.38020522483603 95.48146518199808,135.35856458279258 98.6017347062466,135.21686974674344 101.90836035666658,135.59904545696895 104.73623629333353,136.01239216180022 107.52883650921846,136.25843427789277 110.08382214928159,136.23220920571944 112.25213012137756,135.82328657008756 113.896536391782,134.9939371611345 114.62430356394128,133.68914051261953 113.80610779423749,131.9065755459838 110.96328504631404,129.5192683596622 106.34367666158931,126.67378961244825 102.23223649302292,123.48680076291406 102.54814463150775,120.5266467149552 103.76118078840582,118.51572033131617 104.63298724173573,116.96192959095764 102.8136121500358,117.08433143509308 101.00668364738634,117.8632324352351 99.10124171650749,118.24321168856933 97.34286114223832,118.69598557348421 96.42683736347685,119.6164334214451 98.3580759795467,119.67890003232426 99.98403824314794,119.57449823030127 101.74960014101194,119.54536012664803 103.76061999090167,119.57209926320017 107.08360223519277,119.72060934669558 110.76748882882266,120.12349562030359" stroke="#33ccff" stroke-dasharray="5,2" stroke-linecap="round" stroke-width="2" /><polyline fill="none" points="168.50192680202156,130.32032086121825 171.81818726511705,122.91434334398804 178.45192325256698,104.75829827028862 180.52135950913924,71.37082162902297 172.49125331405878,53.29130204807764 149.77485745857336,33.61665627740521 134.8799433377696,29.21967671297469 128.1586061068585,26.462562516935833 123.92217819455422,23.594986790287436 121.23510916455481,21.439281184326433 132.29194853350373,24.85905552006335 137.6238242704813,36.479153671099354 132.2967308899975,32.86392582745697 125.17258527402066,26.342847827507782 121.48088645960372,24.309598587661796 118.83360289698223,24.052270421798198 117.70431250070422,22.927606604929437 114.00509744196081,23.894951144175053 109.48950141654787,25.627628499503913 104.9674328532745,27.692484909792256 102.44069738748304,31.917377528990315 100.87900874894103,32.46490282554423 103.62788233721054,30.537722202525245 107.96209931430137,28.96781632277657 114.66617644425132,25.95452671129931 121.56663395575946,23.303730375422617 123.4917271658463,22.846259811410462 131.30350398816438,22.807845182376056 132.54567045986147,23.124773660764276 129.92049166552863,21.96960869075302 135.68171241391428,18.970074195835934 140.50270941346344,19.33027754829456 148.03498320194126,23.407820623276635 157.61865426060774,32.724474181424455 164.01102923335395,43.687894032806696 174.69577945829792,70.680215080368 174.64946693108004,101.077963394185 165.066403403043,127.45979404764287 154.21729277625712,137.06490003313473 144.57920878197945,140.14598383178063 137.33908712660227,140.6578439648413 135.49340907418673,141.27272727272728 137.61740625460044,140.4964433276046 139.3269195574661,140.40520468922074 137.71570938376578,139.44785324994496 134.2291144676383,138.45049825537296 130.41581606107104,137.3451975301059 126.84288169586681,136.11289174785682 124.0999587922247,134.86915971646064 127.89493002480208,135.7799260186207 133.7605447863565,136.75195944810937 140.2714894869598,136.50920422849947 149.40614867730176,134.5570291722746 156.2694533541598,132.20257537307126 160.60356128729154,129.80952780118628 166.5282467192833,125.34512012573568 169.9490180283609,121.91480747023324 171.93319748659354,120.12541167844277 171.92836839697452,118.35207650406288 170.6851426411029,117.0129699526897 169.07308348229213,116.67329801996642 167.50176003107458,116.6038370179938 165.7275369273131,116.55651193972673 164.22484885952042,116.72852099641696 168.49837508449525,116.12886489853956 173.26925080711084,115.90806645898809" stroke="#33ccff" stroke-linecap="round" stroke-width="2" /><text fill="black" font-size="10px" font-weight="bold" x="5" y="10">Hand Trails</text><text fill="gray" font-size="8px" x="5" y="22">Dashed = Left Hand | Solid = Right Hand</text><text fill="gray" font-size="8px" x="5" y="143">Duration: 20s | People: 2 | 20251114_153654</text></svg>