<?xml version="1.0" encoding="utf-8" ?>
<svg baseProfile="full" height="148mm" version="1.1" viewBox="0 0 210 148" width="210mm" xmlns="http://www.w3.org/2000/svg" xmlns:ev="http://www.w3.org/2001/xml-events" xmlns:xlink="http://www.w3.org/1999/xlink"><defs /><rect fill="white" height="148" width="210" x="0" y="0" /><polyline fill="none" points="123.01873385925293,100.00173306274414 124.44736971130371,100.48862767944337 126.60317480163575,99.74971889038086 129.54518020935058,97.74021917114258 133.17149411315918,93.3633666809082 137.05727322692871,84.1354944152832 139.01541647644044,76.36798486938477 140.6593072357178,74.31618943481445 141.557118649292,74.40473198852538 140.91665867614745,75.46977102661133 129.9643000579834,73.80238084106445 130.87730215759277,74.26003633422852 142.7247730682373,74.06756135864258 142.22384220886232,75.29390540161133 141.53314362487794,76.32270955200195 140.84674574890136,76.70065154418945 140.05291553649903,76.55265515747071 139.14934003601076,75.57076856079101 138.7505570892334,74.33203457641602 138.21769611511232,72.76418667602539 136.5173758392334,71.48033184204101 134.97108025817872,70.22354951782226 132.63425519714355,70.57527263793945 130.2463134979248,72.04338313598633 127.30070655212403,73.6544413635254 122.82192159118652,73.95260481567382 118.20631476745606,63.80787688598633 102.77377894592286,50.36482297973632 101.27799229431152,42.37517251586914 99.4815341217041,39.2390946105957 99.84904547424317,37.28363828735351 100.97855041809082,36.39236736450195 101.66427961120606,36.21227420043945 104.35413873596191,38.26756548461914 105.33303963317871,39.992401422119144 104.25406800842285,40.9334272277832 102.14521299133301,42.31458049926758 100.48640999450683,43.00274255981445 102.52740691223144,47.24062283325195 105.00626915588379,54.46085305786133 109.7133473236084,64.21930586547852 110.11491475524902,71.88205374145508 107.67146831359864,76.77667407836914 106.4709590057373,77.80643755493165 110.01089290466308,60.978100445556635 96.17388723449707,48.25869553833007 90.937421585083,47.205404180908204 94.2661797454834,46.2605166809082 100.09536466369629,46.03709124145507 112.93211426696777,52.334888702392576 117.74687070007325,60.111617535400384 119.23801722106934,70.03675733032226 118.60058156433105,75.4254631652832 116.36043300476075,81.36983836059571 113.96589390563965,85.3512736755371 112.93759787292481,87.05876450805664 110.72391208190918,88.4570799621582 109.207209274292,85.65955883178711 109.88795281677247,85.6859565612793 110.27392306823731,86.64242507934571 111.42000077819824,87.43762924194337 113.45910140075684,87.77407224731445 126.8521849822998,74.53520034790039 127.66799433288574,57.28393047485352 131.20137148132324,57.04315586547851 124.94506081237793,48.50074653930665" stroke="#ff3399" stroke-linecap="round" stroke-width="2" /><polyline fill="none" points="150.95320632019042,102.5709426940918 151.43810505065917,101.77197439575195 152.16849372253418,100.95741298217774 153.594158102417,99.84072886352538 155.93844233093262,97.85781792602539 158.90755683288575,94.20078526000977 162.78674667663574,85.55221998901368 160.53711867370606,62.67657930297851 152.43591808776856,54.90396419067383 149.09695082702638,55.140625079345696 146.08186183776854,54.9051186340332 146.97640910339356,57.23864702758789 147.66892065124512,86.83841216430665 148.44337328796388,88.87914689331055 138.2449434173584,50.25554109497071 145.80342148132326,53.468129327392575 152.845038180542,63.75839841918945 153.326847555542,70.21477737426758 151.77393424987793,74.23299634399415 147.94322289733887,77.38484622192382 144.67664411315917,78.09079646606446 139.18209126892089,78.9616939025879 133.74726867370606,79.3061489074707 130.61974340515138,79.77653579711914 127.33501465759278,81.71913064575196 125.28409318542481,83.38094373168946 123.04860711364746,84.65921740112304 119.7906297454834,84.59920667114258 120.0844071258545,86.5587848449707 120.13712128601074,84.98648583374023 118.6799007659912,86.45925475463866 114.10286617126465,88.4328773010254 100.93263283996582,92.15989606323242 84.71625639953614,46.02248997192382 95.45298410339356,39.456178741455076 101.04433742980957,39.43626865844726 99.21748975524902,40.96551587524414 98.40357060241699,41.536599493408204 97.52855741271972,44.944272393798826 92.42389952087402,52.396822149658206 86.26270441589355,66.09445520629883 88.35927416381836,77.65501848754883 100.13990219421386,85.9967823059082 104.11136214294433,85.64681524047852 108.43101277770997,87.29445794067382 108.58426106872558,83.64590474243164 101.14657883605958,71.10463369750977 93.60594383239746,49.21434700317383 97.61171391906738,46.84571377563476 100.34049282531738,45.48710466918945 101.1915431854248,44.88435515747071 100.2621959564209,47.60738623657227 101.022898928833,53.05476543579101 103.37064039001464,63.68190435180664 106.28066690368652,74.40912212524414 108.19292509460449,80.46054348754883 109.38115218200684,85.98641264038086 116.2041888519287,83.76113770141602 122.24613483581544,79.4057237121582 124.27848765563965,79.14804707641602 124.27971933288575,81.83939600219726 123.50918529968263,84.68218838500977 132.09302450866699,73.05998433227539 125.83113267517089,50.29255645141602 120.79793442077637,46.005035113525395 126.5633424407959,45.012937384033194" stroke="#ff3399" stroke-linecap="round" stroke-width="2" /><polyline fill="none" points="130.3823101776123,102.3582690246582 134.21418410339356,94.58796686401368 135.35299776306152,77.62928740844727 133.26827223815917,73.06303303833008 132.74429316101075,73.54124087524414 133.2280333831787,76.0278549621582 135.09973971862794,58.17005518188476 130.71515164489747,46.763268634033196 125.66241321716309,42.78347149047852 123.87090004577637,43.10294336547851 128.73806983337403,45.75894356079101 131.6615065887451,51.58525659790038 128.48807187194825,49.3526037902832 128.59682124938965,52.31839317016602 131.22461888122558,62.092439093017575 131.77279655456545,65.31351492309571 130.23600480651857,58.46964136352538 128.4902466156006,55.661563580322266 127.4889702484131,55.69630256958007 127.51290055847169,50.46357666625977 127.7970684173584,52.149633062744144 127.81429157409669,54.653620709228505 123.91868749694825,58.05961885375976 116.97787727966309,61.96563731079101 114.81003589782715,65.80312085571289 124.25019159851074,56.06186275024413 132.91124436950685,51.3747332824707 136.09978847351076,49.282914434814444 135.53875745544434,47.74380567016601 134.776796383667,46.923972027587894 134.38653355407715,45.90926509399414 131.48734010925293,44.39201758422851 126.43634147644043,43.37866021118164 121.6439869354248,44.0443756652832 118.73437911071778,46.849006378173826 121.70380661315917,54.595256280517575 124.90626907653808,66.33158762817382 124.0626473968506,83.83949351196289 120.3322791229248,94.0640975402832 117.66042565612793,101.99445270385742 118.29052815856934,103.8771140563965 119.162608493042,103.34392788696289 120.79105247497559,103.26997847290039 122.51675424499513,103.46943295288087 123.99260032653808,103.68515532836915 125.45003628845215,103.81356276245117 126.78346308288575,103.79987610473633 127.91508586120605,103.5864626159668 128.77328848571779,103.1536317199707 129.15310441589355,102.4726686706543 128.7260945159912,101.54236211547851 127.24244781188965,100.29644537963867 124.83151073913575,98.81141253051757 122.68578263854981,97.14814826049805 122.8506525970459,95.60326727905274 123.48372657165527,94.55378070678711 123.93871546325684,93.7428696105957 122.98919799499512,93.80675016479492 122.0461763031006,94.21325243530273 121.0517412322998,94.41156060180664 120.13405632019044,94.64785971069335 119.65599075622559,95.12823416137695 120.66388891296387,95.16083499145508 121.5124657562256,95.10634851684571 122.43389854431152,95.09114157104493 123.48343389587403,95.10509651489258 125.21767204284669,95.18260275268555 127.14026331481934,95.39286591186524" stroke="#33ccff" stroke-linecap="round" stroke-width="2" /><polyline fill="none" points="157.2714097869873,100.71450834350586 159.00213988952638,96.84938726196289 162.46423422546388,87.37389096069336 163.54425663757326,69.9492310119629 159.35340773620607,60.51367276000977 147.49790043640138,50.24563076782226 139.72436258239748,47.950881915283205 136.21654985046388,46.51196582641602 134.00559163513185,45.015400738525386 132.60323156433105,43.89035503540039 134.06087077331543,43.05239175415039 138.3737085662842,45.67510820922851 141.15637233581543,51.73954551391601 138.37620444030762,49.85278670043945 134.6581691986084,46.449487677001954 131.34990444030763,45.25405344848633 130.76053671569824,44.66710029907226 128.8299456390381,45.17194976196289 126.47329179382325,46.07622036743163 124.11325998229981,47.153852593994145 122.79457673034668,49.35879063110352 121.97954378356934,49.64453975219726 123.41415916442871,48.63875942993164 125.67615271911622,47.81943796997069 129.17495754089356,46.24682595825195 132.77625173034667,44.863396319580076 133.78094264831543,44.624646051025394 137.85784717712403,44.60459776000977 138.50612403259277,44.770000225830074 137.13606398620607,44.16712876586914 140.14279952087404,42.60169544067382 142.65883971862792,42.78968272094727 146.58987382507325,44.917720196533196 151.59151593933106,49.780007989501954 154.92764587097167,55.50173008422851 160.50393249206545,69.58880891723632 160.4797623504639,85.45315330200195 155.47843730163575,99.2216220275879 149.8163722869873,104.2344508605957 144.78633249206544,105.84244412231446 141.00777027282714,106.10957987670898 140.04452549743652,106.43048261108399 141.1530228240967,106.02534616088867 142.04520429382325,105.97772943725586 141.20432644958495,105.47809529418946 139.3847001434326,104.95758361206055 137.3945698699951,104.38073590698242 135.5298836883545,103.73760526733399 134.09837392272948,103.08851135864258 136.07893938903808,103.5638330871582 139.14015733337402,104.0711296447754 142.538167868042,103.94443761596679 147.30547424011232,102.92561289672852 150.88737865905762,101.69684208374024 153.14931530456545,100.44792948608398 156.24136176452637,98.11799043579101 158.0266352508545,96.32773739624024 159.06216281433106,95.39386588745117 159.0596425506592,94.4683762878418 158.41081286315918,93.76950717163086 157.5694919403076,93.5922350769043 156.74943066101076,93.55598392944336 155.82347765808106,93.53128534545898 155.03923664245605,93.62105551147461 157.26955617370606,93.30809973754883 159.75943847351076,93.19286677856445" stroke="#33ccff" stroke-linecap="round" stroke-width="2" /><polyline fill="none" points="91.569471194458,109.69728496704101 91.50847674865723,108.61433579711914 91.070491506958,107.71023591918946 88.62393741760253,108.16593617553711 85.63028489685058,108.61130741577148 80.18270041809082,109.31924135131837 77.54350037155152,109.66818405151368 72.87902685470581,110.2283817565918 69.02284026031494,110.48317228393555 65.5958593963623,110.63596936645507 61.58813712158203,110.81986325073242 58.049362747192376,111.11575440063477 55.720153353881834,111.39946292114257 52.91717503967285,111.67371232299806 50.457261520385735,111.4734285949707 48.90609613952636,111.20367908325196 46.45574336242675,110.83608236694337 47.08224229431152,110.51415526733399 49.968893362426755,110.80413599243164 57.69279523315429,111.55302014770508 59.33615450134277,111.51159026489259 61.225743530273434,111.56517432250976 62.8340365814209,111.5538859802246 64.77969639587403,111.03908554077148 63.95127353210449,110.50391567993165 63.32824707641601,110.18325684204102 64.02631743164062,109.46997344360352 64.94714860839844,108.98425765991212 65.75062848358154,108.68196422729493 66.47657265014648,108.57798302612305 67.48628427886962,108.45448197631836 68.73691990356446,108.46916047973633 69.77896814117432,108.53929697875978 71.26591151275635,108.75865341186524 72.67766572666167,109.72968661499024 73.92708105912209,110.7306784362793 75.06543993759155,111.22973942260742 75.71029017448424,111.55488189086915 75.05772163009644,110.55909319458007 75.6758178199768,111.05938992309571 75.74598798179626,110.23062153930664 72.26980951309204,110.46868889770508 70.52812972869873,110.32586311645508 69.6661749092102,110.42823866577149 69.36767482910156,108.41038549194337 69.4055641479492,106.36461430053711 68.2232779724121,107.19634196166993 68.39156400604247,108.12726232299805 69.24873870849609,108.71139033813478 70.62650562973022,109.16396465454102 71.76193420944213,109.59911256713868 72.54743256225586,109.92890126342775 71.66594544525145,110.05328034057618 79.0685208114624,93.70289904174805 71.4165282623291,109.98993635864258 79.0685208114624,93.70289904174805 71.4165282623291,109.98993635864258 79.0685208114624,93.70289904174805 71.4165282623291,109.98993635864258 79.0685208114624,93.70289904174805 71.24483936462403,109.84561061401368 78.34399988250732,93.74380048217773 71.24483936462403,109.84561061401368 78.34399988250732,93.74380048217773 71.24483936462403,109.84561061401368 78.34399988250732,93.74380048217773 71.13182205276489,109.87603263549805 77.99047497711182,93.7745395690918 71.13182205276489,109.87603263549805 77.99047497711182,93.7745395690918 71.13182205276489,109.87603263549805 77.99047497711182,93.7745395690918 71.13182205276489,109.87603263549805 77.99047497711182,93.7745395690918 70.94690685195923,109.80897736206055 77.66229167861938,93.8813946838379 70.94690685195923,109.80897736206055 77.66229167861938,93.8813946838379 70.94690685195923,109.80897736206055 77.66229167861938,93.8813946838379 70.94690685195923,109.80897736206055 77.66229167861938,93.8813946838379 70.81594206161499,109.74882842407227 71.48800924072265,109.61984376831055 71.03482848587035,110.1764846496582 70.53530689086914,110.67602123413087 71.16866795196532,110.95294943237306 70.56995009994506,110.2474991760254 70.01337044677734,109.28493731079102 69.7040779472351,108.57643428344727 73.13104833126067,107.41475939331055 77.29150093460083,106.64816835327149 77.07151164093017,107.47745298461913 75.49548063240051,107.11830321655273 73.89930461583137,106.98866410522461 72.17112670898437,108.02078524780273 73.11358966197967,107.89232496948242 74.14691780633926,107.79159165649415 74.97113177261352,107.78409183959961 74.0878968260765,107.74125955200196 73.01523586406708,107.60540108032227 72.28566380081176,107.18050901489258 73.36767533483504,106.6393393005371 75.8563179862976,106.51592361450196 77.80752009429932,106.69610620727539 81.4188079421997,107.16483053588868 85.05417802734375,107.57806028442383 89.52335956420899,107.79970527954102 93.6723731048584,107.8510698791504 96.51200499572754,107.88988193969726 99.60469168395996,107.87799605102539 102.05917647399902,107.82384290161133 103.37416469421386,107.73338982543946 104.64224958801269,107.62861189575196 103.514285256958,107.29176239624024 102.70761592712402,107.16246880493165 101.61632549743652,106.97370512084962 100.59280983581543,106.89398755493164 99.76571011047363,106.82816395874025 98.8749147857666,106.56513786010743 98.17237502746582,106.4161211730957 98.95219948425293,106.4513682800293 99.07732041320801,107.10594172973633 99.73848719787597,107.62289658813478 101.1763138824463,108.06187774047852 102.32655612487792,108.27241731567383 104.25045021057129,108.49840366821289 106.81707860412598,108.81661947631837 112.75965099792481,109.37287012329102 117.68285600280763,109.35207388305665 122.10210176696778,109.12887201538086 124.551615133667,108.77951062622071 126.64458435974122,107.78383981323242 125.91869557800294,106.77701480102539 125.46551558532715,105.76616549682618 125.24929728698731,104.52908594360352 125.13856015319824,103.47015244750978 125.598093649292,102.07376377563477 126.09846354675292,102.7745149597168 125.85451015319825,105.45641289672852 124.05564350280761,105.50544828491212 122.81721845397949,105.48700564575196 119.20317660827637,105.28342118530274 117.28054468688966,105.2698076965332 111.85615679626466,105.70323207397462 108.06231852722168,106.22234541625977 100.30366242370606,107.59970609741211 97.09242578430175,108.13171343383789 93.34904360046386,108.53784579467774 88.13766575317382,109.03993922729492 86.25394446716308,109.30920094604492 80.62644415740967,110.12666472778321" stroke="#ffcc00" stroke-linecap="round" stroke-width="2" /><polyline fill="none" points="74.87140669212341,110.81089192504882 75.89168348464966,110.33502549438477 77.13709565963745,109.94952271118164 78.51780407409667,109.74493421020509 79.32915672454834,109.97618059692383 78.42523062286377,109.94884793090822 77.61699908523559,110.0146633972168 76.57648561706543,110.1677694152832 75.48255983505248,110.45403478393555 74.69355737571716,110.75234457397461 74.06505337972641,111.02591919555664 72.97635806579589,110.72644276733399 74.77666637306213,110.26921002807617 79.07410654907227,109.73182070922851 88.69234936523438,108.4382506652832 90.16914969177246,108.28316095581056 91.42370036315918,108.83277355346681 92.21273191223145,109.5768773376465 93.37805508728027,109.79710773315429 92.31860737609863,109.74346676635743 91.25952550964355,109.67010270385742 90.10343991394043,109.44038880004882 87.95552995605469,108.40998306274415 86.97580387573242,107.17172061157227 86.09614750671386,104.82639169311524 85.04359495239258,100.2774092590332 84.93029690551758,96.22628458862305 85.42882640075683,93.26129193725586 86.081382623291,90.57347138061523 87.20400155639649,87.64595748901368 88.29927156372071,86.08211355590821 89.8605342590332,85.43038963012695 91.03311640319824,85.92010531616211 94.0400389251709,85.45256388549805 95.03304923400879,91.37613877563477 97.4187572479248,94.81279877319336 99.45488436584472,98.9796116760254 100.02924026184083,101.01779768676758 101.0132020111084,103.22211785278321 101.29011394958496,105.46629476928712 101.07679395446777,108.3639679260254 96.4095400177002,108.4033124938965 93.43370820007324,107.21908530883789 90.74629007263184,106.12775016479492 88.49266419982911,105.15948925170899 87.45051687927246,104.18902514038086 86.90127825622558,103.22891849975586 86.65177418518067,101.13036810913087 86.57767640075683,98.55396353149415 84.15792551879883,96.80981912231445 82.61106084594726,96.20798828735352 81.87111549682618,95.80741676635742 81.58986524963379,95.18609453735351 82.6133026611328,98.9941194519043 84.18940544128418,101.92948681030273 87.5141494720459,104.4365882019043 88.88744927673339,104.78787637329103 87.96055219116211,104.1865780456543 88.04419344177246,104.85937056274415 87.23215940551758,104.34075314331055 85.98992449035644,103.77323854370118 85.2635712890625,103.38741869506836 88.25713742980957,70.82345357055664 85.23195214233398,103.49146493530273 88.25713742980957,70.82345357055664 85.23195214233398,103.49146493530273 88.25713742980957,70.82345357055664 85.23195214233398,103.49146493530273 88.25713742980957,70.82345357055664 84.39965742187499,103.52576084594727 88.92115881958007,70.06086243286133 84.39965742187499,103.52576084594727 88.92115881958007,70.06086243286133 84.39965742187499,103.52576084594727 88.92115881958007,70.06086243286133 84.29218646850586,104.0917470275879 89.06822535095215,69.97489705200195 84.29218646850586,104.0917470275879 89.06822535095215,69.97489705200195 84.29218646850586,104.0917470275879 89.06822535095215,69.97489705200195 84.29218646850586,104.0917470275879 89.06822535095215,69.97489705200195 84.03645795593262,104.43686055297852 89.43449892883301,71.2434514465332 84.03645795593262,104.43686055297852 89.43449892883301,71.2434514465332 84.03645795593262,104.43686055297852 89.43449892883301,71.2434514465332 84.03645795593262,104.43686055297852 89.43449892883301,71.2434514465332 84.29313156738282,104.65577797241211 85.26329487304687,104.95901040649414 85.94263499450683,104.88203261108399 86.61798842468261,105.3657972229004 87.32736846313476,104.8423100036621 87.66471185302734,103.65576986694336 88.29882340393067,102.02817952270507 88.90841319580078,100.77380364379883 89.57534609985352,98.9255682800293 90.78270585021973,97.39139435424805 93.55618894958496,98.46958754272461 96.84703949890137,99.20986215209962 103.36697991027832,100.16621278686523 102.78562215270996,102.29345759887696 101.33893796081543,103.04630507202148 99.60713877868652,103.90264595336915 97.91892389831543,104.76209244995118 98.65782862243653,103.90706454467774 93.65560115661621,101.62729906616211 91.78439684143066,99.11343767700195 93.57135524597167,98.2781084777832 97.49979591979981,97.6853993713379 100.61234391174317,97.23978423461915 102.70580702819824,97.27636057739258 104.2527286102295,97.18419209594727 104.88098969421387,96.8914065612793 105.67692961120605,96.4421167175293 106.40718414001465,96.07871908569336 106.96511157531738,95.4941032775879 106.45916457824707,96.34422479858398 105.802154196167,96.64185980834961 104.84017565002442,97.0466588684082 103.78574001159667,97.40542246704102 102.9528619720459,97.75871465454102 102.07077781677246,97.81445313110352 106.6468185333252,94.38144751586914 110.24943586120605,90.69174898071289 115.28428041687012,87.02573279418945 117.92691508483887,87.47685999145509 120.20840816345215,88.61898657836915 121.92552477722168,89.43875111694337 122.72550524597168,89.96830322875977 123.86937975769044,90.26280416870117 124.90500894470215,90.1495914855957 125.743390914917,89.01079408569336 125.34155519714355,88.47225845336914 124.23256601257324,88.44554365844726 122.75578092956543,88.41277210083008 121.51144139099121,88.4213694519043 120.29607268981934,88.39527252807618 119.3466731048584,87.37811443481445 118.48846235046386,86.19455390014649 118.3217265838623,85.1235028137207 118.37658703308105,84.18776143188477 118.8796316619873,83.4220158996582 119.8796682220459,82.65864429321289 121.08961429138184,82.10296680297851 121.77797959899902,81.77643818969727 123.69190441589356,82.1256573059082 124.88085506286622,82.9472226135254 127.22265561218262,84.01479004516602 132.4796898651123,86.07097561645509 133.60400387878417,86.49529452514648 134.38946437683106,86.81199817504883 134.9696412689209,87.19052551879884 134.68068897399903,87.8172216003418 133.5560782196045,89.43666986694336 132.90273644714355,89.64497778930664 130.84625007019042,90.76197084350586 128.93822348327637,91.58788970336914 127.0805371307373,91.84475335083008 125.24755749206543,91.67574121704102 127.12019469909669,88.94251119995117 128.03637964782715,85.52201747436524 127.95388166198731,87.39727250366211 126.58371592712402,93.92808866577148 126.05407032165527,99.66838754272462 125.44918265075684,107.43730355834961 126.50297399597169,108.8520901550293 126.48584026794434,107.46899384155273 128.7402120574951,106.48984701538086 132.4915798187256,106.46356716918945 135.6338201751709,106.04824804077148 138.18916022644044,106.08245045776368 144.75283737487794,107.90454824829102 147.86131432800295,109.3627809387207 149.68918840026856,110.3213266418457 151.20713507995606,110.98210319213868 151.81779496765137,110.6124455505371 152.44045456237794,110.15699325561525 155.73301645202636,111.78772579956055 154.97473415222169,111.7441211730957 153.81394948425293,111.52409402465821 149.9143129852295,110.72381275024415 147.54965527038576,110.33630595092774 140.37846043395996,109.70741073608399 135.88525712585448,109.7509340637207 127.62730020446777,110.61579506225587 124.53673338317871,111.00723672485353 120.97256836853028,111.20645137329102 116.22975733337402,110.79794915161133 114.74068799743652,110.48153817749024 110.31517002868652,110.17972034301758" stroke="#ffcc00" stroke-linecap="round" stroke-width="2" /><polyline fill="none" points="76.43488363723755,106.65992009887697 82.19503136901855,107.49836304321289" stroke="#9933ff" stroke-linecap="round" stroke-width="2" /><polyline fill="none" points="93.11859800720215,101.2418653869629 95.79841469421386,102.74806845092773" stroke="#9933ff" stroke-linecap="round" stroke-width="2" /><text fill="black" font-size="10px" font-weight="bold" x="5" y="10">Hand Trails</text><text fill="gray" font-size="8px" x="5" y="22">Dashed = Left Hand | Solid = Right Hand</text><text fill="gray" font-size="8px" x="5" y="143">Duration: 60s | People: 4 | 20251114_155551</text></svg>