<?xml version="1.0" encoding="utf-8" ?>
<svg baseProfile="full" height="148mm" version="1.1" viewBox="0 0 210 148" width="210mm" xmlns="http://www.w3.org/2000/svg" xmlns:ev="http://www.w3.org/2001/xml-events" xmlns:xlink="http://www.w3.org/1999/xlink"><defs /><polyline fill="none" points="103.88847734069824,102.68035465698242 105.31711319274902,103.16724927368165 107.47291828308106,102.42834048461914 110.4149236907959,100.41884076538086 114.0412375946045,96.04198827514648 117.92701670837403,86.81411600952148 119.88515995788575,79.04660646362305 121.52905071716309,76.99481102905274 122.4268621307373,77.08335358276368 121.78640215759278,78.1483926208496 110.8340435394287,76.48100243530274 111.74704563903809,76.9386579284668 123.59451654968262,76.74618295288086 123.09358569030762,77.9725269958496 122.40288710632325,79.00133114624023 121.71648923034668,79.37927313842773 120.92265901794434,79.23127675170899 120.01908351745605,78.2493901550293 119.62030057067871,77.0106561706543 119.08743959655762,75.44280827026367 117.3871193206787,74.15895343627929 115.84082373962403,72.90217111206054 113.50399867858887,73.25389423217773 111.11605697937011,74.72200473022461 108.17045003356934,76.33306295776367 103.69166507263184,76.6312264099121 99.07605824890136,66.48649848022461 83.64352242736817,53.04344457397461 82.14773577575683,45.05379411010742 80.35127760314941,41.91771620483398 80.71878895568847,39.96225988159179 81.84829389953613,39.07098895874023 82.53402309265137,38.89089579467773 85.22388221740722,40.94618707885742 86.20278311462403,42.671023016357424 85.12381148986816,43.61204882202148 83.01495647277832,44.99320209350586 81.35615347595214,45.68136415405273 83.39715039367675,49.91924442749023 85.8760126373291,57.13947465209961 90.58309080505371,66.8979274597168 90.98465823669433,74.56067533569336 88.54121179504395,79.45529567260742 87.34070248718261,80.48505914916993 90.88063638610839,63.656722039794914 77.04363071594238,50.93731713256835 71.80716506652831,49.88402577514648 75.13592322692871,48.93913827514649 80.9651081451416,48.71571283569335 93.80185774841308,55.013510296630855 98.61661418151856,62.79023912963868 100.10776070251465,72.71537892456055 99.47032504577636,78.10408475952148 97.23017648620605,84.04845995483399 94.83563738708496,88.0298952697754 93.80734135437012,89.73738610229492 91.59365556335449,91.13570155639648 90.0769527557373,88.33818042602539 90.75769629821777,88.36457815551758 91.14366654968262,89.321046673584 92.28974425964356,90.11625083618165 94.32884488220215,90.45269384155273 107.72192846374512,77.21382194213868 108.53773781433105,59.9625520690918 112.07111496276856,59.72177745971679 105.81480429382324,51.179368133544926" stroke="#ff3399" stroke-linecap="round" stroke-width="2" /><polyline fill="none" points="131.82294980163573,105.24956428833008 132.3078485321045,104.45059598999023 133.0382372039795,103.63603457641602 134.4639015838623,102.51935045776368 136.80818581237793,100.53643952026367 139.77730031433106,96.87940685424805 143.65649015808106,88.23084158325196 141.40686215515137,65.3552008972168 133.30566156921387,57.58258578491211 129.9666943084717,57.81924667358399 126.95160531921387,57.58374022827148 127.84615258483888,59.91726862182617 128.53866413269043,89.51703375854493 129.3131167694092,91.55776848754883 119.11468689880371,52.93416268920899 126.67316496276855,56.146750921630854 133.7147816619873,66.43702001342774 134.19659103698731,72.89339896850586 132.64367773132324,76.91161793823242 128.81296637878418,80.0634678161621 125.5463875946045,80.76941806030274 120.05183475036621,81.64031549682618 114.61701215515137,81.98477050170898 111.48948688659668,82.45515739135742 108.20475813903809,84.39775223999024 106.15383666687012,86.05956532592774 103.91835059509278,87.33783899536132 100.66037322692871,87.27782826538086 100.95415060729981,89.23740643920898 101.00686476745605,87.66510742797851 99.54964424743652,89.13787634887696 94.97260965270996,91.11149889526368 81.80237632141113,94.8385176574707 65.58599988098143,48.70111156616211 76.32272758483887,42.134800335693356 81.91408091125489,42.11489025268554 80.08723323669433,43.644137469482416 79.2733140838623,44.21522108764648 78.39830089416503,47.622893988037106 73.29364300231933,55.075443743896486 67.13244789733886,68.77307680053711 69.22901764526367,80.33364008178711 81.00964567565917,88.67540390014648 84.98110562438964,88.3254368347168 89.30075625915526,89.9730795349121 89.4540045501709,86.32452633666992 82.01632231750489,73.78325529174805 74.47568731384277,51.89296859741211 78.4814574005127,49.52433536987304 81.2102363067627,48.16572626342773 82.06128666687012,47.56297675170899 81.13193943786621,50.28600783081055 81.89264241027831,55.73338703002929 84.24038387145995,66.36052594604492 87.15041038513183,77.08774371948242 89.0626685760498,83.13916508178711 90.25089566345214,88.66503423461914 97.07393233337402,86.4397592956543 103.11587831726074,82.08434530639649 105.14823113708496,81.8266686706543 105.14946281433106,84.51801759643556 104.37892878112793,87.36080997924805 112.96276799011231,75.73860592651367 106.70087615661622,52.9711780456543 101.66767790222168,48.683656707763674 107.4330859222412,47.69155897827147" stroke="#ff3399" stroke-linecap="round" stroke-width="2" /><polyline fill="none" points="111.25205365905762,105.03689061889648 115.08392758483888,97.26658845825196 116.22274124450684,80.30790900268555 114.1380157196045,75.74165463256836 113.61403664245606,76.21986246948242 114.09777686462402,78.70647655639648 115.96948320007324,60.84867677612304 111.58489512634277,49.44189022827149 106.5321566986084,45.4620930847168 104.74064352722168,45.78156495971679 109.60781331481934,48.43756515502929 112.53125007019042,54.26387819213866 109.35781535339356,52.03122538452148 109.46656473083496,54.9970147644043 110.58989909362793,59.08969533081054 112.09436236267089,64.77106068725585 112.64254003601074,67.99213651733399 111.10574828796386,61.14826295776368 109.3599900970459,58.340185174560546 108.3587137298584,58.37492416381836 108.382644039917,53.14219826049805 108.66681189880372,54.82825465698242 108.684035055542,57.3322423034668 104.78843097839355,60.73824044799804 97.8476207611084,64.64425890502929 95.67977937927246,68.48174244995117 105.11993507995605,58.740484344482425 113.78098785095214,54.05335487670898 116.96953195495605,51.96153602905272 116.40850093688965,50.42242726440429 115.6465398651123,49.60259362182617 115.25627703552246,48.587886688232416 112.35708359069824,47.07063917846679 107.30608495788574,46.05728180541992 102.51373041687012,46.72299725952148 99.60412259216308,49.527627972412105 102.57355009460449,57.273877874755854 105.77601255798339,69.01020922241212 104.9323908782959,86.51811510620118 101.20202260437011,96.74271913452148 98.53016913757324,104.67307429809571 99.16027164001464,106.55573565063477 100.0323519744873,106.02254948120117 101.6607959564209,105.94860006713867 103.38649772644042,106.14805454711914 104.8623438079834,106.36377692260743 106.31977976989747,106.49218435668945 107.65320656433106,106.47849769897462 108.78482934265136,106.26508421020509 109.64303196716308,105.83225331420898 110.02284789733886,105.15129026489258 109.59583799743652,104.2209837097168 108.11219129333496,102.97506697387695 105.70125422058105,101.49003412475587 103.55552611999512,99.82676985473633 103.7203960784912,98.28188887329102 104.35347005310058,97.23240230102539 104.80845894470215,96.42149120483398 103.85894147644044,96.4853717590332 102.91591978454589,96.89187402954101 101.92148471374512,97.09018219604492 101.00379980163574,97.32648130493165 100.5257342376709,97.80685575561523 101.53363239440918,97.83945658569337 102.38220923767089,97.784970111084 103.30364202575683,97.76976316528321 104.35317737731934,97.78371810913086 106.087415524292,97.86122434692383 108.01000679626465,98.07148750610352" stroke="#33ccff" stroke-linecap="round" stroke-width="2" /><polyline fill="none" points="138.14115326843262,103.39312993774413 139.8718833709717,99.52800885620118 143.3339777069092,90.05251255493164 144.41400011901857,72.62785260620117 140.22315121765138,63.19229435424805 128.3676439178467,52.92425236206054 120.59410606384277,50.629503509521484 117.08629333190918,49.190587420654296 114.87533511657715,47.694022332763666 113.47297504577637,46.56897662963867 114.93061425476074,45.73101334838867 119.24345204772949,48.35372980346679 122.02611581726075,54.41816710815429 119.24594792175293,52.53140829467773 115.52791268005372,49.128109271240234 113.60124427185059,48.06697257690429 112.21964792175294,47.93267504272461 111.63028019714355,47.34572189331054 109.6996891204834,47.85057135620117 107.34303527526856,48.75484196166991 104.98300346374512,49.832474188232425 103.66432021179199,52.0374122253418 102.84928726501465,52.32316134643554 104.28390264587402,51.31738102416992 106.54589620056153,50.49805956420899 110.04470102233887,48.925447552490226 113.645995211792,47.542017913818356 114.65068612976074,47.303267645263674 118.72759065856934,47.28321935424805 119.37586751403809,47.448621820068354 118.00580746765137,46.84575036010742 121.01254300231933,45.2803170349121 123.52858320007324,45.46830431518555 127.45961730651855,47.596341790771476 132.46125942077637,52.45862958374023 135.79738935241699,58.18035167846679 141.37367597351073,72.26743051147461 141.3495058319092,88.13177489624024 136.34818078308106,101.90024362182618 130.68611576843261,106.91307245483398 125.65607597351075,108.52106571655274 121.87751375427246,108.78820147094727 120.91426897888184,109.10910420532227 122.02276630554199,108.70396775512695 122.91494777526856,108.65635103149415 122.07406993103028,108.15671688842774 120.25444362487794,107.63620520629883 118.26431335144044,107.05935750122072 116.3996271697998,106.41622686157227 114.9681174041748,105.76713295288087 116.9486828704834,106.24245468139648 120.00990081481933,106.74975123901368 123.4079113494873,106.62305921020507 128.17521772155763,105.6042344909668 131.75712214050293,104.37546367797852 134.01905878601076,103.12655108032227 137.1111052459717,100.7966120300293 138.8963787322998,99.00635899047852 139.93190629577637,98.07248748168945 139.9293860321045,97.14699788208009 139.2805563446045,96.44812876586914 138.43923542175293,96.27085667114258 137.61917414245607,96.23460552368164 136.69322113952637,96.20990693969728 135.90898012390136,96.29967710571289 138.13929965515138,95.98672133178711 140.62918195495607,95.87148837280273" stroke="#33ccff" stroke-linecap="round" stroke-width="2" /><text fill="gray" font-size="8px" x="5" y="143">Duration: 20s | People: 2 | 20251114_162347</text></svg>