<?xml version="1.0" encoding="utf-8" ?>
<svg baseProfile="full" height="148mm" version="1.1" viewBox="0 0 210 148" width="210mm" xmlns="http://www.w3.org/2000/svg" xmlns:ev="http://www.w3.org/2001/xml-events" xmlns:xlink="http://www.w3.org/1999/xlink"><defs /><polyline fill="none" points="103.88847734069824,102.68035465698242 105.31711319274902,103.16724927368165 107.47291828308106,102.42834048461914 110.4149236907959,100.41884076538086 114.0412375946045,96.04198827514648 117.92701670837403,86.81411600952148 119.88515995788575,79.04660646362305 121.52905071716309,76.99481102905274 122.4268621307373,77.08335358276368 121.78640215759278,78.1483926208496 110.8340435394287,76.48100243530274 111.74704563903809,76.9386579284668 123.59451654968262,76.74618295288086 123.09358569030762,77.9725269958496 122.40288710632325,79.00133114624023 121.71648923034668,79.37927313842773 120.92265901794434,79.23127675170899 120.01908351745605,78.2493901550293 119.62030057067871,77.0106561706543 119.08743959655762,75.44280827026367 117.3871193206787,74.15895343627929 115.84082373962403,72.90217111206054 113.50399867858887,73.25389423217773 111.11605697937011,74.72200473022461 108.17045003356934,76.33306295776367 103.69166507263184,76.6312264099121 99.07605824890136,66.48649848022461 83.64352242736817,53.04344457397461 82.14773577575683,45.05379411010742 80.35127760314941,41.91771620483398 80.71878895568847,39.96225988159179 81.84829389953613,39.07098895874023 82.53402309265137,38.89089579467773 85.22388221740722,40.94618707885742 86.20278311462403,42.671023016357424 85.12381148986816,43.61204882202148 83.01495647277832,44.99320209350586 81.35615347595214,45.68136415405273 83.39715039367675,49.91924442749023 85.8760126373291,57.13947465209961 90.58309080505371,66.8979274597168 90.98465823669433,74.56067533569336 88.54121179504395,79.45529567260742 87.34070248718261,80.48505914916993 90.88063638610839,63.656722039794914 77.04363071594238,50.93731713256835 71.80716506652831,49.88402577514648 75.13592322692871,48.93913827514649 80.9651081451416,48.71571283569335 93.80185774841308,55.013510296630855 98.61661418151856,62.79023912963868 100.10776070251465,72.71537892456055 99.47032504577636,78.10408475952148 97.23017648620605,84.04845995483399 94.83563738708496,88.0298952697754 93.80734135437012,89.73738610229492 91.59365556335449,91.13570155639648 90.0769527557373,88.33818042602539 90.75769629821777,88.36457815551758 91.14366654968262,89.321046673584 92.28974425964356,90.11625083618165 94.32884488220215,90.45269384155273 107.72192846374512,77.21382194213868 108.53773781433105,59.9625520690918 112.07111496276856,59.72177745971679 105.81480429382324,51.179368133544926" stroke="#ff3399" stroke-linecap="round" stroke-width="2" /></svg>