<?xml version="1.0" encoding="utf-8" ?>
<svg baseProfile="full" height="148mm" version="1.1" viewBox="0 0 210 148" width="210mm" xmlns="http://www.w3.org/2000/svg" xmlns:ev="http://www.w3.org/2001/xml-events" xmlns:xlink="http://www.w3.org/1999/xlink"><defs /><rect fill="white" height="148" width="210" x="0" y="0" /><polyline fill="none" points="140.76393306884768,115.66608571777346 141.41046470947265,114.60079465332032 142.38431627197266,113.51471276855469 144.28520211181643,112.02580061035157 147.4109144165039,109.38191936035156 151.36973375244142,104.50587580566406 156.54198687744142,92.97445544433594 153.54248287353516,62.47360119628905 142.74088209228518,52.110114379882816 138.2889257446289,52.4256622314453 134.26880709228516,52.11165363769531 135.46153677978515,55.22302482910156 136.38488551025392,94.68937834472656 137.41748902587892,97.41035798339844 123.81958253173829,45.912216918945305 133.89755328369142,50.19566789550781 143.2863755493164,63.91602668457031 143.9287880493164,72.52453195800781 141.85823697509767,77.88215725097656 136.75062183837892,82.08462375488281 132.39518345947266,83.02589074707032 125.06911300048829,84.18708732910156 117.82268287353516,84.6463606689453 113.65264918212891,85.27354318847657 109.27301085205079,87.86366965332031 106.53844888916015,90.07942043457032 103.55780079345703,91.78378532714844 99.21383096923827,91.70377102050782 99.60553414306641,94.31654191894532 99.6758196899414,92.22014323730468 97.73285899658202,94.18383513183593 91.63014620361328,96.81533186035156 74.06983509521484,101.78469020996094 52.44799984130859,40.268148754882816 66.76363677978514,31.513067114257808 74.21877454833984,31.486520336914054 71.78297764892577,33.525516625976564 70.6977521118164,34.28696145019531 69.53106785888671,38.83052531738281 62.72485733642577,48.767258325195314 54.509930529785144,67.0307690673828 57.30535686035155,82.44485344238282 73.0128609008789,93.56720520019532 78.30814083251953,93.10058244628907 84.06767501220702,95.29743937988282 84.27200606689453,90.43270178222656 74.35509642333983,73.71100705566407 64.30091641845702,44.5239581298828 69.64194320068358,41.36578049316405 73.28031507568359,39.554301684570305 74.41504888916015,38.75063566894531 73.17591925048828,42.38134377441406 74.1901898803711,49.644516040039065 77.32051182861328,63.814034594726564 81.20054718017577,78.11699162597657 83.7502247680664,86.18555344238281 85.33452755126953,93.5533789794922 94.43190977783203,90.58634572753907 102.48783775634766,84.7791270751953 105.19764151611328,84.43555822753906 105.1992837524414,88.02402346191407 104.1719050415039,91.81441330566406 115.6170239868164,76.31814123535156 107.26783487548828,45.961570727539055 100.55690386962891,40.244875610351556 108.24411456298829,38.92207863769531" stroke="#ff3399" stroke-linecap="round" stroke-width="2" /><text fill="black" font-size="10px" font-weight="bold" x="5" y="10">Person 0 - Right Hand</text><text fill="gray" font-size="8px" x="5" y="143">Duration: 20s | 20251114_160912</text></svg>