<?xml version="1.0" encoding="utf-8" ?>
<svg baseProfile="full" height="148mm" version="1.1" viewBox="0 0 210 148" width="210mm" xmlns="http://www.w3.org/2000/svg" xmlns:ev="http://www.w3.org/2001/xml-events" xmlns:xlink="http://www.w3.org/1999/xlink"><defs /><rect fill="white" height="148" width="210" x="0" y="0" /><polyline fill="none" points="149.18820435791017,113.19083991699219 151.49584449462893,108.03734514160158 156.11197027587892,95.4033500732422 157.5520001586914,72.17047014160156 151.96420162353516,59.58972580566406 136.1568585571289,45.89900314941406 125.79214141845704,42.83933801269531 121.11505777587891,40.92078322753906 118.16711348876953,38.925363110351554 116.29730006103516,37.42530217285156 118.24081900634766,36.30801779785156 123.99126939697265,39.804973071289055 127.70148775634766,47.89088947753906 123.99459722900392,45.375211059570304 119.03721690673828,40.8374790283203 116.46832569580079,39.422630102539046 114.6261972290039,39.243566723632796 113.84037359619141,38.46096252441406 111.26625216064453,39.13409514160156 108.12404703369141,40.33978928222655 104.97733795166016,41.77663225097655 103.21909361572266,44.71654963378906 102.13238302001953,45.09754846191406 104.04520352783203,43.75650803222655 107.06119493408204,42.664079418945306 111.72626802978516,40.56726340332031 116.52799361572266,38.72269055175781 117.86758150634766,38.404356860351555 123.30345421142579,38.37762580566405 124.16782335205079,38.598162426757796 122.34107662353516,37.794333813476555 126.35005733642578,35.7070893798828 129.70477760009766,35.957739086914046 134.94615640869142,38.7951223876953 141.61501256103517,45.27817277832031 146.06318580322267,52.90713557128906 153.49823463134766,71.68990734863281 153.46600777587892,92.84236652832031 146.7975743774414,111.20032482910156 139.24815435791015,117.88409660644533 132.54143463134767,120.02808762207033 127.5033516723633,120.3842686279297 126.21902530517579,120.81213894042969 127.69702174072266,120.27195700683595 128.8865970336914,120.2084680419922 127.76542657470704,119.54228918457032 125.33925816650391,118.84827360839844 122.68575113525391,118.07914333496095 120.19950289306641,117.22163581542969 118.29082320556641,116.35617727050783 120.93157716064454,116.98993957519532 125.01320108642578,117.66633498535157 129.5438817993164,117.49741228027344 135.90029029541017,116.13897932128907 140.6761628540039,114.50061823730469 143.69207838134767,112.83540144042969 147.81480699462892,109.72881604003908 150.19517164306643,107.3418119873047 151.57587506103516,106.09664997558595 151.57251470947267,104.86266384277344 150.70740845947267,103.9308383544922 149.5856472290039,103.69447556152345 148.4922321899414,103.64614069824219 147.25762818603516,103.61320925292969 146.21197349853517,103.7329028076172 149.18573287353516,103.31562844238282 152.50557593994142,103.16198449707032" stroke="#33ccff" stroke-linecap="round" stroke-width="2" /><text fill="black" font-size="10px" font-weight="bold" x="5" y="10">Person 1 - Right Hand</text><text fill="gray" font-size="8px" x="5" y="143">Duration: 20s | 20251114_160912</text></svg>