<?xml version="1.0" encoding="utf-8" ?>
<svg baseProfile="full" height="148mm" version="1.1" viewBox="0 0 210 148" width="210mm" xmlns="http://www.w3.org/2000/svg" xmlns:ev="http://www.w3.org/2001/xml-events" xmlns:xlink="http://www.w3.org/1999/xlink"><defs /><rect fill="white" height="148" width="210" x="0" y="0" /><polyline fill="none" points="113.33607154541016,115.38252082519531 118.44523677978516,105.02211794433595 119.96365499267579,82.41054533691407 117.18402095947266,76.32220617675782 116.4853821899414,76.95981662597656 117.13036915283203,80.27530207519531 119.62597760009766,56.46490236816406 113.77986016845703,41.25585363769531 107.04287559814453,35.949457446289045 104.6541913696289,36.37541994628906 111.14375108642578,39.91675354003905 115.0416667602539,47.685170922851555 110.8104204711914,44.7083005126953 110.95541964111328,48.662686352539055 112.45319879150391,54.11959377441406 114.45914981689454,61.69474758300781 115.19005338134765,65.98951535644531 113.14099771728516,56.86435061035155 110.81332012939453,53.120246899414056 109.47828497314453,53.16656555175781 109.51019205322265,46.189597680664065 109.88908253173828,48.43767287597656 109.91204674072266,51.776323071289056 104.71790797119141,56.31765393066405 95.46349434814454,61.52567854003905 92.57303917236328,66.64232326660157 105.1599134399414,53.65397912597656 116.70798380126953,47.404473168945316 120.95937593994141,44.6153813720703 120.21133458251953,42.563236352539064 119.1953864868164,41.470124829101565 118.67503604736328,40.117182250976555 114.80944478759766,38.094185571289046 108.07477994384766,36.743042407226554 101.68497388916016,37.63066301269531 97.80549678955077,41.37017062988281 101.76473345947265,51.698503833007805 106.03468341064453,67.34694562988281 104.90985450439453,90.69082014160156 99.93603013916015,104.32362551269532 96.37355885009765,114.89743239746095 97.21369552001953,117.40764753417969 98.3764692993164,116.69673264160157 100.54772794189454,116.59813342285156 102.8486636352539,116.8640727294922 104.81645841064453,117.15170256347656 106.75970635986329,117.32291247558595 108.5376087524414,117.30466359863283 110.04643912353515,117.02011228027345 111.19070928955078,116.44300441894532 111.69713052978516,115.53505368652344 111.12778399658204,114.29464494628907 109.14958839111328,112.63342263183594 105.93500562744141,110.65337883300782 103.07403482666015,108.43569313964844 103.29386143798828,106.37585183105469 104.13796007080079,104.9765364013672 104.74461192626953,103.89532160644532 103.4785886352539,103.98049567871095 102.22122637939454,104.52249870605469 100.89531295166016,104.78690959472657 99.67173306884766,105.10197507324219 99.03431231689453,105.74247434082032 100.3781765258789,105.78594211425782 101.50961231689453,105.71329348144532 102.73818936767579,105.69301755371094 104.13756983642578,105.71162414550781 106.44988736572266,105.81496579589844 109.01334239501954,106.09531667480469" stroke="#33ccff" stroke-linecap="round" stroke-width="2" /><text fill="black" font-size="10px" font-weight="bold" x="5" y="10">Person 1 - Left Hand</text><text fill="gray" font-size="8px" x="5" y="143">Duration: 20s | 20251114_160912</text></svg>