<?xml version="1.0" encoding="utf-8" ?>
<svg baseProfile="full" height="148mm" version="1.1" viewBox="0 0 210 148" width="210mm" xmlns="http://www.w3.org/2000/svg" xmlns:ev="http://www.w3.org/2001/xml-events" xmlns:xlink="http://www.w3.org/1999/xlink"><defs /><rect fill="white" height="148" width="210" x="0" y="0" /><polyline fill="none" points="103.51796978759765,112.24047287597656 105.42281759033203,112.8896656982422 108.29722437744141,111.90445397949219 112.21989825439454,109.22512102050783 117.05498345947265,103.38931770019532 122.23602227783203,91.08548801269532 124.84687994384765,80.72880861816407 127.03873428955079,77.99308137207031 128.23581617431643,78.11113811035156 127.38186954345704,79.53119016113281 112.77872471923828,77.30800324707032 113.99606085205079,77.91821057128907 129.79268873291016,77.66157727050782 129.12478092041016,79.29670266113281 128.20384947509766,80.66844152832032 127.28865230712891,81.17236418457031 126.23021202392579,80.97503566894531 125.02544468994141,79.66585354003907 124.49373409423828,78.01420822753906 123.78325279541016,75.92374436035156 121.51615909423828,74.21193791503906 119.45443165283203,72.53622814941406 116.33866490478516,73.00519230957032 113.15474263916016,74.9626729736328 109.22726671142578,77.11075061035156 103.25555343017578,77.50830187988281 97.10141099853516,63.981997973632815 76.52469656982421,46.057926098632805 74.53031436767577,35.40505881347656 72.13503680419922,31.223621606445306 72.62505194091796,28.61634650878905 74.13105853271483,27.427985278320307 75.04536412353515,27.18786105957031 78.63184295654297,29.928249438476556 79.93704415283203,32.22803068847655 78.49841531982422,33.482731762695295 75.68660863037108,35.324269458007805 73.47487130126953,36.2418188720703 76.19620052490234,41.89232590332031 79.50135018310546,51.519299536132806 85.77745440673829,64.53056994628906 86.31287764892578,74.74756711425782 83.05494906005859,81.27372756347657 81.45426998291015,82.64674553222656 86.17418184814453,60.20896271972656 67.72484095458984,43.24975617675781 60.74288675537108,41.84536770019531 65.18123096923827,40.58551770019531 72.95347752685547,40.28761711425781 90.06914366455078,48.68468039550781 96.4888189086914,59.05365217285156 98.47701427001952,72.28717189941406 97.62710006103515,79.47211301269532 94.6402353149414,87.39794660644532 91.44751651611328,92.70652702636718 90.07645513916015,94.98318146972656 87.12487408447265,96.84760207519531 85.1026036743164,93.1175739013672 86.01026173095703,93.15277087402345 86.52488873291016,94.42806223144532 88.0529923461914,95.4883344482422 90.77179317626953,95.93692512207032 108.62923795166016,78.28509592285157 109.71698375244141,55.283402758789066 114.42815328369142,54.96236994628906 106.08640572509766,43.57249084472656" stroke="#ff3399" stroke-linecap="round" stroke-width="2" /><text fill="black" font-size="10px" font-weight="bold" x="5" y="10">Person 0 - Left Hand</text><text fill="gray" font-size="8px" x="5" y="143">Duration: 20s | 20251114_160912</text></svg>