<?xml version="1.0" encoding="utf-8" ?>
<svg baseProfile="full" height="148mm" version="1.1" viewBox="0 0 210 148" width="210mm" xmlns="http://www.w3.org/2000/svg" xmlns:ev="http://www.w3.org/2001/xml-events" xmlns:xlink="http://www.w3.org/1999/xlink"><defs /><rect fill="white" height="148" width="210" x="0" y="0" /><polyline fill="none" points="134.37897155051675,116.40542622078618 136.70831679648668,117.19929238273964 140.22328832068177,115.99452514094222 145.0201344170758,112.71809986359365 150.93272371693539,105.58178130781609 157.26836277608072,90.53602954294487 160.4610529655581,77.87135267109397 163.14136448057423,74.52596557727401 164.60521738961654,74.67033139047724 163.5609678059758,76.40684361406218 145.70349597873835,73.68821703311419 147.1921168174446,74.43440973558869 166.50904072276452,74.12058541940225 165.69228891426846,76.12010031489659 164.56612687606074,77.79753270839734 163.44697700525583,78.41375508689262 162.1526621322864,78.17245169293875 160.67941106315217,76.57151687615233 160.02920817211017,74.55180057589058 159.16039532869027,71.99547451985862 156.3880772844809,69.9021901116841 153.86689159855285,67.85304656825726 150.0567727787207,68.4265199110735 146.1633099087081,70.82022730983088 141.36059161919596,73.44700642776489 134.05807541711022,73.93315243816143 126.53247552635459,57.39249672050276 101.37021749009807,35.47402556993566 98.93138500460877,22.447155007885044 96.0023171823642,17.333879886618973 96.60153273519242,14.145570644828979 98.44315456448805,12.6923817975553 99.56121416918917,12.398745630621306 103.94694378362152,15.749832595865144 105.5430105125465,18.56212264537379 103.78378165023445,20.096435244075593 100.34536072481345,22.348361655042908 97.64073528152004,23.470387972589606 100.96851573762194,30.380116755995843 105.01022165895752,42.15247212868208 112.68496266217325,58.06331856503276 113.33970556708194,70.55718487137665 109.35574398270042,78.53770740708944 107.39835179980423,80.21670395135303 113.1701012534344,52.778636380087406 90.60930430157792,32.040051869776775 82.07141387370008,30.32269386527905 87.49884801290482,28.782084896981104 97.00314832682145,28.417796835420987 117.9330596258863,38.68615497207145 125.78336661059348,51.365863597863466 128.21463351093118,67.54848785701333 127.17531497884787,76.33460105764333 123.52282411491565,86.0267154488553 119.61860439452987,92.51831889677568 117.9420004707128,95.30232830516147 114.33265630790781,97.58223710816549 111.85972069635861,93.02096802327156 112.96965135652324,93.06400868027927 113.598963556021,94.62350012960816 115.46760675252027,95.92005518460233 118.7922953597626,96.46861478709027 140.62929148775567,74.88305589422212 141.95944264536337,46.755409924787486 147.72050152619502,46.362834594347035 137.51978628227945,32.4347083160627" stroke="#ff3399" stroke-linecap="round" stroke-width="2" /><polyline fill="none" points="179.9252390140955,120.5944406796415 180.7158509471314,119.29174832123046 181.9067264092725,117.96363188516595 184.23122676453212,116.14291400292952 188.05350751932104,112.90984088718972 192.89455413027997,106.94716562413225 199.21944959456707,92.84595545952882 195.5515028002157,55.54795205016303 182.3427533176838,42.87495071493028 176.8986735655941,43.26081875481148 171.98266701765377,42.876832998051654 173.44119783744796,46.68157670657594 174.57031585548714,94.94305082824836 175.8330362085989,98.2704037939935 159.20482118700912,35.29584493812243 171.52867888649982,40.53386771048166 183.00981059597103,57.31182365658256 183.79538543333,67.83874386763782 181.2634097582414,74.39032189290079 175.01755692953702,79.52931271314898 169.69150428246633,80.68034209738272 160.7328109050849,82.10031262421867 151.87150579596207,82.66193553667924 146.7721754764121,83.42888637554857 141.41652989223954,86.5962253927047 138.07256776627554,89.30575869040436 134.42767894016097,91.3899431875731 129.11565062789597,91.2920976040491 129.5946452879828,94.48712739191328 129.68059404684882,91.9235439414521 127.30464241035253,94.32484675026967 119.84193331022614,97.54277544019138 98.36828741611123,103.61956080360329 71.92800222086684,28.39398993059011 89.43389471149217,17.687828646526498 98.55041819137637,17.655365890440294 95.5718012542889,20.148754761540744 94.2447320039046,21.079888408447502 92.81805087263068,26.635990517288676 84.49506879458396,38.787135484878576 74.4494364477,61.12068983025296 77.86782663310844,79.96981998560972 97.07576535153733,93.57080015519367 103.55110428262728,93.00019000360432 110.59415703529235,95.6866189387649 110.84402349189698,89.73776917778905 98.7171195472522,69.28962625531206 86.42235438917439,33.598211139854286 92.95363490718665,29.736230117822373 97.40282198551186,27.521061249781567 98.7904324865024,26.53829737218649 97.2751614350108,30.97811280144964 98.51546339848159,39.85989105339614 102.3433810609984,57.187102516519275 107.08808658937897,74.67748936854443 110.20596265253933,84.54413912496133 112.14332906624105,93.55389274588867 123.26807300105592,89.9256528465378 133.11927345481115,82.824289083655 136.4329599846539,82.40415553765587 136.4349681951672,86.79231422520083 135.17863700025615,91.4273966450339 149.17431338267082,72.47776317540784 138.9644982277495,35.35619729764079 130.75802881213994,28.365530340015567 140.15834292523698,26.747946596465468" stroke="#ff3399" stroke-linecap="round" stroke-width="2" /><polyline fill="none" points="146.38504816261167,120.24768303658851 152.63279652995234,107.57845289535597 154.48959592385341,79.92786628082703 151.09051736677208,72.48273399351005 150.23618617342328,73.26243663775095 151.0249091955803,77.31678169258107 154.07666675022375,48.20020803110464 146.92773557198151,29.601805940823567 138.6894065262155,23.112873479163426 135.7684013709327,23.63376219421569 143.70416666045315,27.964285902804846 148.47073716072597,37.46390370606919 143.29655294831412,33.82363442691096 143.47386534389884,38.65925953225975 145.30542623735556,45.33224481885121 147.75840567116379,54.59553004626389 148.6521919047292,59.84739157621968 146.14650191576513,48.68867375661553 143.30009879856036,44.110192385573015 141.66754957864387,44.16683320090837 141.70656718686752,35.63504030990258 142.16989382829615,38.384101553151055 142.19797563669493,42.46677364340634 135.84631728774553,48.02014511617003 124.52954733576341,54.388783779756594 120.99495102170076,60.64567845240538 136.3868241649079,44.7628674301512 150.50839480045798,37.12065214671763 155.70721438738443,33.71000815285181 154.79247118470005,31.20054034213004 153.5501179302924,29.863827704627468 152.91380681890672,28.209380374031355 148.1867642641827,25.73555664298121 139.95127189861367,24.083309727865 132.13749048532156,25.16873756866447 127.39346761596036,29.741598601372758 132.2350245642445,42.371612301657564 137.45653759274688,61.507326690000625 136.08103931853208,90.05340949952217 129.99879268296522,106.72430065145885 125.64242072024456,119.65449211530016 126.6697827778527,122.72411147632421 128.09168198211228,121.85476841230673 130.74680801874388,121.73419624841942 133.56050978059352,122.0594004241812 135.9668298018156,122.41112888533641 138.3431327094578,122.6204931160442 140.5172426199743,122.598177456644 142.3623175109116,122.25021356173153 143.76158955116992,121.544496574124 144.3808673258587,120.43420801505599 143.68464128694765,118.91737281280157 141.26560259914137,116.88594526509101 137.33464650512315,114.46464651198758 133.83610519169522,111.75274710487126 134.10492040690548,109.23386787854265 135.1371273552239,107.52271345503647 135.87897224879833,106.2005487451797 134.3308142647425,106.30470395381477 132.7932474371231,106.96749295629158 131.171852733028,107.29082810444692 129.67559671771673,107.67610627391333 128.89612604498728,108.45934151288553 130.53947188182178,108.51249612779188 131.92304939239204,108.4236576666691 133.4254162000903,108.39886322597526 135.1366501566861,108.42161631736846 137.96427020922198,108.54798776904168 141.0989940318701,108.89081515191518" stroke="#33ccff" stroke-linecap="round" stroke-width="2" /><polyline fill="none" points="190.2268684932435,117.56758360981142 193.0487687910831,111.26562681412669 198.6936033169275,95.81613194747871 200.45454545454547,67.40577898317748 193.62149982506273,52.02140183366852 174.29147284322534,35.2796864654115 161.616967007047,31.538171563147372 155.89759009294175,29.1920647185368 152.29269315539887,26.75196301749206 150.00618973371257,24.917611838140616 152.38282402922823,23.55133940232352 159.41476866037422,27.827595032751432 163.9518132917167,37.715466868586034 159.41883810346056,34.639166728032606 153.35670008405654,29.090196086228758 150.21532862066638,27.36004650981465 147.9626797841349,27.141078658533374 147.0017344841298,26.18407024646524 143.85396723478146,27.00721121316201 140.0115182140125,28.481595628823527 136.1635615267863,30.238640645049358 134.0134904926121,33.83372187377971 132.68460523668114,34.299626712864026 135.02369991388886,32.65973393767119 138.7118083464628,31.323856397609774 144.41649815001534,28.75976260982344 150.28829360264942,26.50412465467315 151.9264101388404,26.114849947452555 158.57367309869227,26.082161847612383 159.63066785994707,26.351845299051178 157.39682859911431,25.368882588732006 162.2992151054546,22.816493420637016 166.40153849660732,23.12300069257701 172.8109643796619,26.592698005497127 180.9659825140348,34.52050335829655 186.40543609141068,43.849588961867596 195.49739378823372,66.81812223937628 195.4579851423194,92.68443038223674 187.3034839730291,115.1334800292767 178.07166733808216,123.30673775220599 169.8703476900265,125.92851954100792 163.70952236189984,126.36407587863884 162.13898244086909,126.88729756432043 163.94635201956171,126.2267354883534 165.4010254845086,126.1490979373543 164.0300009465858,125.33446038349103 161.06315822064312,124.48578266726383 157.8183142076373,123.54525086026516 154.77800279014386,122.4966468399669 152.44397171964292,121.43831989946071 155.67322061932276,122.21331683589817 160.66443895902833,123.04044771259166 166.2047868883642,122.83388039553604 173.97772806012853,121.1727191466232 179.8179091096325,119.16924747991949 183.50592475360187,117.13293527495381 188.547408005957,113.3340438762752 191.45823955352395,110.41509332580799 193.14663425787944,108.89244558025271 193.1425250482483,107.38346427059979 192.08462891197763,106.2439804398781 190.71288194849063,105.95494393662803 189.37579815656974,105.89583759551397 187.86606128256528,105.85556734112856 186.58738128946666,106.00193473708762 190.22384623583733,105.49167031725915 194.28352000767305,105.3037866485104" stroke="#33ccff" stroke-linecap="round" stroke-width="2" /><polyline fill="none" points="83.10195062713616,132.21371473805198 83.00250112630454,130.4480006150559 82.28838014222552,128.9738945652081 78.29935163725848,129.71689931633972 73.41829656833418,130.443062935741 69.64666016531,131.03023585324695 64.53618361463549,131.59732666561996 60.233052013433415,132.16626662232696 57.269946099999075,132.64754123098334 52.627776536256775,133.07965113473006 46.34038713725544,133.49507897292577 40.752804008903254,133.74420974845128 34.218340510366204,134.04404286861936 28.448481624554248,134.52648396259036 24.650779908341427,134.98906166742495 20.080613059044538,135.43621658062773 16.06980242915359,135.10966034234212 13.540676689776948,134.66984235665822 10.997132264025145,134.3172058927297 9.545454545454545,134.07048762092313 10.566941096065865,133.5455957403592 12.398578208733506,133.5163209356159 15.273533705117389,134.0184000749694 19.428169985977796,134.64405375234395 23.83423024644819,135.07630283899755 27.867109651773596,135.23943183359728 30.546554587500562,135.17188172946692 33.627469304192225,135.25924882843142 36.24973989010752,135.2408435459383 39.42207623639573,134.4014778289559 38.071359147359836,133.52890041929325 37.05553435856694,133.00607639905982 38.193715834945834,131.8430905403509 40.257323630580444,130.78773946294854 42.18877891308896,130.38872858000508 43.8350815582246,130.18736405256314 45.87420310388771,130.21129688478592 47.57322955969416,130.32565221216674 49.997643358808304,130.68330588849977 52.299463631565615,132.2665445928423 54.33659552961428,133.8986298697359 56.19265341725873,134.71233290979595 57.24406118608407,135.24246734651837 56.18006896276329,133.61886559918585 57.18785511021523,134.43458347751664 57.30226532371258,133.08330302909582 51.63446706805786,133.4714642730615 48.79471366276933,133.238591386609 47.38932378813171,133.40551145848136 46.90262891656972,130.1154661395327 46.96440624394403,126.77990138228273 45.03672629778415,128.13600683814144 45.31111131467795,129.65384283177377 46.70870736076614,130.60624495240052 48.95511243552642,131.344152958038 50.80639256439464,132.0536477674032 52.08712260572557,132.5913577309134 50.64988594221159,132.79415385396877 62.71954925947001,106.13537800598093 50.24321917092103,132.69087350931972 62.71954925947001,106.13537800598093 50.24321917092103,132.69087350931972 62.71954925947001,106.13537800598093 50.24321917092103,132.69087350931972 62.71954925947001,106.13537800598093 49.96328589255548,132.4555549803609 61.5382409652363,106.20206650164025 49.96328589255548,132.4555549803609 61.5382409652363,106.20206650164025 49.96328589255548,132.4555549803609 61.5382409652363,106.20206650164025 49.96328589255548,132.4555549803609 61.5382409652363,106.20206650164025 49.77901476586251,132.5051571172635 60.961829868921654,106.25218560362549 49.77901476586251,132.5051571172635 60.961829868921654,106.25218560362549 49.77901476586251,132.5051571172635 60.961829868921654,106.25218560362549 49.77901476586251,132.5051571172635 60.961829868921654,106.25218560362549 49.477516421630185,132.39582563004467 60.42673745537715,106.42640946422937 49.477516421630185,132.39582563004467 60.42673745537715,106.42640946422937 49.477516421630185,132.39582563004467 60.42673745537715,106.42640946422937 49.477516421630185,132.39582563004467 60.42673745537715,106.42640946422937 49.26398250300433,132.29775470276672 50.359766629084916,132.08744933049826 49.62086984487994,132.99503455511544 48.80641579705163,133.80951304279944 49.83909083074135,134.26103564817467 48.862900445851615,133.1108214781097 47.95541505183131,131.54139502033382 47.451123484187484,130.38620340440917 53.038689525352446,128.49212950249898 59.822174959210294,127.24222723233345 59.4634894238862,128.59434940595293 56.89382107071564,128.0087671502397 54.29130692367856,127.7973947090186 51.47356789961182,129.48023535261456 53.010223721255265,129.2707849610597 54.69503234280552,129.10654250320505 56.03888695855453,129.0943142906736 54.59880051466668,129.02447761021622 52.84986098692943,128.80296470006664 51.660316979128744,128.11019172279725 53.42450231666161,127.22783174310945 54.84696959222745,127.09340093835317 57.48215488136586,127.02660639857434 60.66352776072906,127.32038837617267 66.55161755510217,128.08462846223694 72.47897267013435,128.75838640332597 79.76583079519811,129.11977150711442 86.5306652017429,129.20351985050053 91.16059454014334,129.26680167882043 96.20312166429997,129.24742211597928 100.20508092409023,129.159127130969 102.34912732672456,129.01164627175504 104.41669934979569,128.84080919521816 102.57758944058105,128.29158681698325 101.26234079564382,128.08077773514708 99.48302651432009,127.7730045615304 97.8142168332873,127.6430276097937 96.46565707930776,127.53570433308818 95.01324367965805,127.10684865825903 93.8677749839413,126.86388169718026 95.13925391854917,126.92135098219933 95.34325960734277,127.98861213977457 96.42127098753373,128.83149056821588 97.52319863055382,129.2592128965177 100.64103492716936,129.89051342325638 103.77788294608648,130.25897697202237 107.96268877894859,130.77781771001654 117.65186375972277,131.68476666991663 125.67899268596192,131.65085906270207 136.87828563679506,130.71731291207638 140.29080528602478,129.0939033697105 139.10726675140256,127.45230726084796 138.36837120990208,125.80414967209052 138.0158341623356,123.7871308691189 137.83528079334823,122.06057353725333 138.5845355197737,119.78380629128989 139.400372697739,120.92635877372001 140.31208701525972,121.63460093692346 139.84917792255166,125.23124631641667 137.9468524625918,125.35917529109526 134.05040710171787,125.34898842786444 130.98958277485602,125.15747274802234 128.15782700165911,125.01705045051352 125.02303690143629,124.99485409074776 120.36073428167548,125.18444109316621 116.17874524573796,125.70153873094587 109.99301280504046,126.54793649860355 104.59365716035578,127.59109913001924 97.34277118895838,128.7936792118517 92.10695214595779,129.661100226203 86.00348674485195,130.32328610275007 82.11745027708406,130.63536731872202 77.50650117913723,131.14193344988246 74.43515363035297,131.58095610467 65.2596936456399,132.9138047595678 60.383891902979954,132.93754538682398" stroke="#ffcc00" stroke-linecap="round" stroke-width="2" /><polyline fill="none" points="55.87628839166979,134.0294154078839 57.53981719982123,133.25353035194553 59.57042207713587,132.62498034455675 61.8216231628951,132.29140531111085 63.14450781290702,132.6684451780425 61.67068509969106,132.6238801368168 60.35288932471128,132.7311901580074 58.656365261584455,132.9808246431006 56.87275412224619,133.44757120738353 55.58631074685903,133.933955817049 54.56155500309647,134.3800105225118 53.36916639285743,133.87304672590318 55.72181731949959,133.14622033075491 58.14305124485026,132.74105888887965 62.72865662670294,132.27002416551386 68.15100893286785,131.5082893717731 73.65470536339674,130.75682760211026 78.4108951385328,130.16089941698695 80.81877102582087,129.90803058624857 82.8642759303969,130.8041564182008 84.15076673567346,132.01739393404438 86.05078904991262,132.3764725782334 84.32339330672714,132.2890126906643 82.59659406171394,132.16939492385262 80.71163332632447,131.79485372148702 79.00959206933904,131.31008628464414 77.20953456407476,130.1148099915432 75.61212240038346,128.09586251114794 74.17787071313984,124.27187842268935 72.46171730356221,116.85490747686077 73.08982490813987,105.4153516899965 74.15379704107082,101.03294589593517 75.9841914492129,96.25972775492029 77.76999430509939,93.70993003999592 80.31558339403057,92.64731494040687 82.22744122617111,93.44578076604425 87.13013260935497,92.68346935740365 88.74920428445701,102.34166951364355 92.63902520174007,107.94503416100059 95.95886560439337,114.73888986056548 96.89533459606315,118.06208722237714 98.49965288303781,121.65616103197213 98.95114897738318,125.31522000355673 98.60333752089252,130.03978377698712 90.99352865760666,130.10393384153556 86.14152967742918,128.17308914118394 81.75978003135735,126.39370195452804 78.08531483753461,124.8149833807798 76.38612683013983,123.232672562483 75.49061075187483,121.6672492702188 75.08380231226835,118.24562970998329 74.96298823523341,114.04488412040675 73.60443547992905,112.08006553526586 71.01766150608167,111.20111222291743 68.49554793410788,110.21984621851048 67.2890906141557,109.56672711418184 66.83052104565088,108.55368101270808 68.49920314235237,114.76254432697453 71.06898851686576,119.54856729542071 76.48987774556925,123.63631624789772 78.72899932910525,124.20908042066472 77.21772315842847,123.2286826524863 77.35409755306272,124.32564941904036 76.03010192520495,123.48006023779399 74.0046774688225,122.55474576194558 72.82038171290937,121.92567878947418 77.70129594198742,68.8311710156236 72.76882770143193,122.09532286966655 77.70129594198742,68.8311710156236 72.76882770143193,122.09532286966655 77.70129594198742,68.8311710156236 72.76882770143193,122.09532286966655 77.70129594198742,68.8311710156236 71.41179767340623,122.15124125943771 78.78396166486144,67.58779045880817 71.41179767340623,122.15124125943771 78.78396166486144,67.58779045880817 71.41179767340623,122.15124125943771 78.78396166486144,67.58779045880817 71.41179767340623,122.15124125943771 78.78396166486144,67.58779045880817 71.2365697075457,123.07406369847756 79.02374895929414,67.44762664384068 71.2365697075457,123.07406369847756 79.02374895929414,67.44762664384068 71.2365697075457,123.07406369847756 79.02374895929414,67.44762664384068 71.2365697075457,123.07406369847756 79.02374895929414,67.44762664384068 70.81961251431389,123.63676030764819 79.62094635997288,69.51596417289954 70.81961251431389,123.63676030764819 79.62094635997288,69.51596417289954 70.81961251431389,123.63676030764819 79.62094635997288,69.51596417289954 70.81961251431389,123.63676030764819 79.62094635997288,69.51596417289954 71.23811066115739,123.99369818617451 72.81993102540142,124.48810901013566 73.92757345229968,124.36259916693349 75.02871570605961,125.15136195563535 76.18533726065837,124.29783272094038 76.73536491142582,122.36321682658854 77.76926359483836,119.70948261902558 78.76318033131544,117.66426270802074 79.85059318547705,114.6507738250069 81.81915479664892,112.14935211185325 86.34123063774625,113.90731175860988 91.70685762466806,115.1143059269171 102.337412765397,116.67360517127936 101.3895274614858,120.1420100714929 99.03075497235076,121.36950389365366 96.20711157429668,122.7657404209909 93.45453099183183,124.16704055503492 94.65929160587179,122.77294479336037 86.50331907442326,119.05585980512924 83.45238004782732,114.95708889198026 86.3659588008654,113.59511124300349 92.77115617465438,112.62871792635838 97.84606652180756,111.90215664150888 101.25939144356984,111.96179320322051 103.7815978041482,111.81151543035438 104.8059574876226,111.33413794309014 106.1037121667188,110.60158516548812 107.29436891286338,110.00907690321914 108.2040518227197,109.05587945169603 107.37912136150614,110.44197551010475 106.30788686332785,110.92725991203025 104.7394114887489,111.58727188412729 103.02018777052345,112.17222450288091 101.66220665930086,112.74825616008042 100.22399654390853,112.83913597050383 107.68508515733362,107.24172967711198 113.55903794502402,101.22579375502866 121.76819160240878,95.24847114796333 126.07692324443784,95.98401967194162 129.79682502959355,97.84622068818041 132.59652896766735,99.18282065380603 133.90087163768834,100.04623850264568 135.76592258963908,100.52641290356208 137.4544829879313,100.34182323027574 138.82143808276777,98.48505034740455 138.16625774586606,97.60698515455707 136.3580862085196,97.56342753246672 133.95023517532206,97.50999455174666 131.9213791975097,97.5240122587949 129.93975924718333,97.48146205583994 128.3917934680941,95.82301818748965 126.99250817232085,93.89326043936305 126.72065081643201,92.14694576248053 126.810099031242,90.62124924848922 127.63029727362226,89.37272555187738 129.26082502751052,88.12807246562781 131.23360354937242,87.22205801953092 132.3559612547926,86.68966351751138 135.4765546985155,87.25905416172633 137.41510085304682,88.59859022391097 141.2333320480218,90.33922491264201 149.80475892869592,93.69176998452915 151.63791711170282,94.38360844799531 152.9185854320423,94.89998366021078 153.8645453724086,95.51716043578168 153.39341786043823,96.53896843263027 151.559775851136,99.17942724198159 150.49452290407407,99.51906667351219 147.14148737813417,101.34028826531633 144.0305108104997,102.68692265575095 141.00161239136898,103.10573065025615 138.0129974821386,102.83016175018435 141.06627279324258,98.3737172774299 142.56008316604755,92.79671122152955 142.42557282820164,95.85425480844395 140.1915612456747,106.50254251428288 139.32799095841324,115.86191696949008 138.07637872682056,123.28581392187441 140.05991409905567,130.83565152169643 140.03197810132122,128.58055704265863 143.70765948863962,126.98408933440675 149.82414511929454,126.94124088236566 159.11386847125354,126.3198422252866 169.81573496847685,129.29071462777083 174.8840076165242,131.66831657587704 177.86429806237274,133.2311948092729 180.33926176770765,134.3085699247468 181.33492326133862,133.70585491597458 182.35014989501985,132.96325445804862 187.85873098280388,135.6012543693787 184.58958961091443,135.19226871144346 181.29555438196908,134.50480456790726 178.23135652655517,133.88743558736974 174.37585745132853,133.25561809554844 168.3482964426435,132.56136712836334 162.68345271699826,132.23022448190878 155.3574278591678,132.301187881136 149.35557592170744,132.888460215004 141.893092165335,133.71131618812956 136.8540214166988,134.34954934918144 131.0427639007922,134.67436248725252 127.52115136361256,134.53983889389167 123.30976159553983,134.00831262810064 120.88188147926907,133.49241461442298 113.66621541106525,133.00031025006126 110.86942768627803,133.44454232221992" stroke="#ffcc00" stroke-linecap="round" stroke-width="2" /><polyline fill="none" points="58.42548774436512,127.26138807917812 67.81722512506164,128.62844259037664" stroke="#9933ff" stroke-linecap="round" stroke-width="2" /><polyline fill="none" points="85.62775254614179,118.42742246961747 89.99710828574544,120.88323858362266" stroke="#9933ff" stroke-linecap="round" stroke-width="2" /><text fill="black" font-size="10px" font-weight="bold" x="5" y="10">Hand Trails</text><text fill="gray" font-size="8px" x="5" y="22">Dashed = Left Hand | Solid = Right Hand</text><text fill="gray" font-size="8px" x="5" y="143">Duration: 60s | People: 4 | 20251114_154419</text></svg>