<?xml version="1.0" encoding="utf-8" ?>
<svg baseProfile="full" height="148mm" version="1.1" width="210mm" xmlns="http://www.w3.org/2000/svg" xmlns:ev="http://www.w3.org/2001/xml-events" xmlns:xlink="http://www.w3.org/1999/xlink"><defs /><rect fill="white" height="148mm" width="210mm" x="0" y="0" /><polyline fill="none" points="112.12892637583305,18.026346278188953 109.06389947768353,18.978175913232604 105.49201442666794,18.62208853388995 101.11879503013066,17.898003143375377 95.62158470255734,16.61581957571687 91.69137599030464,15.879693913842857 90.50617899611319,18.099219899054702 88.2734702911828,18.337221871404097 89.57078927398223,21.236302068536105 89.70466639623758,19.539304414392973 88.37839728586943,17.92359074563177 85.30152457565569,16.51262650974553 83.67262818717595,14.455992594122847 84.91764572204468,12.178890452598807 86.79661676411575,9.976541705127175 88.05909512319684,8.872126343138461 89.71625292924159,8.735421458632487 95.69293505894424,12.23429514678159 97.61689912043576,13.072268864501979 103.15969394778566,15.956910458967457 99.40487131483691,17.159462945252983 96.97290665212017,20.350345519732016 97.41014837731464,22.68781106746573 95.12662907904992,20.117156414938137 94.4935830485584,15.726362759599652 95.05265352217819,12.280576459032545 96.56386152472567,11.185041404856719 94.56725071154611,10.16641500192145 92.25305545946799,10.31193537447524 88.92528974612907,11.951551331601337 87.18133017220185,18.918250040437073 86.57621335797944,25.370522888836263 92.96292911649374,29.942828091276624 112.13026328348735,46.04391188705527 124.23195137028517,70.81159273029911 120.03242463668974,84.93876883560955 116.84837244495364,88.97392884996077 114.45700116010408,91.5973792011276 111.50343184797072,94.04328821580229 109.48365607125379,95.02668507642888 107.00255802662357,95.60941476429461 105.87226337343573,97.21699355254111 106.18783839961752,98.70527966567016 106.5627235108268,100.4539062626815 106.85682698983334,102.96884022467165 112.82922291257158,98.49674637900998 118.53841007682374,47.565458642129386 95.67338379730882,17.123293516350998 92.50697878660958,12.27684932254175 86.87493524524632,11.3591959086246 84.78517842967932,11.387927269486283 87.4327417334475,9.365793673815375 89.1021261676762,8.913335508773685 90.45026384628059,8.49424331779528 91.9524456965438,7.432981714393549 93.2694293755675,7.103583873313255 94.65745551709406,6.865322621903658 96.31907778445714,6.7272727272727195 98.20453890550458,6.819332998595456 101.78205517360954,7.454112957802238 104.65361127800406,8.780892523820228 107.72522548477752,14.96458467570423 109.26380363312046,41.85955297848325 102.41408029280139,92.42457663290719 95.47364169128454,127.15421270852262 96.23742918789677,132.6286469911489 96.11289421428029,136.35132712309982 94.4454786804152,138.34291440448743 93.24487888955201,139.45813846229944 90.41099117112645,139.7870258477299 87.31026478737161,139.32998168431038 82.81827937630794,138.31602230445927 77.61776531834347,136.93179622165917 73.31977736162588,135.82263281188003 68.2471527001196,134.60863963706188 63.486724334541485,133.35329955460773 60.119629228754015,132.10752038749956 56.757889856054405,129.907351204628 55.25830889886411,127.88653020919949 54.782872127109584,125.25746484588457 56.6542997690221,123.58300826504014 65.44650941869783,120.40336381732794 77.11701642833404,113.82539734201188 85.98408480418038,106.7197817741876 87.61093937006083,106.88991745252191 89.09414523410351,107.47159381920547 90.28568646279993,108.27317934131676 91.25141993744838,109.25606574629353 91.99056782086816,111.63359801130332 93.55953833655238,112.4402880899129 95.32844541755603,112.1316892909454 96.6470333857649,111.7552404029041 98.47350852061012,112.13506802119902 91.25141993744838,109.25606574629353 91.99056782086816,111.63359801130332 93.55953833655238,112.4402880899129 95.32844541755603,112.1316892909454" stroke="#ff3399" stroke-dasharray="5,2" stroke-linecap="round" stroke-width="2" /><polyline fill="none" points="129.73187602552028,15.00593968581083 127.59241865509554,19.51109161165175 122.36219283732288,20.135775892450866 119.50328468958517,18.813452685280566 116.5594059323279,17.090057181817826 115.60102139854283,14.877272452171951 114.95928141706298,13.308585522959874 114.34375292807823,12.018072615491462 115.49641850268151,11.26109119421028 117.23259160233118,10.228658181317797 119.041233199315,10.963892571422235 117.32065735563225,12.099226961343305 113.97594127373083,12.548103834365577 111.16260952329908,12.47237814383729 115.43194714386132,16.261822633797323 131.97624418569035,36.184987671242354 137.67307508222845,66.17138882396115 136.6088965893991,77.3153486770951 136.65324951363962,78.8412221514868 137.59418942815364,76.18897561969324 137.90130547499544,56.952964911621336 131.1143519746638,34.11939242310049 112.15828972940403,16.54826117558582 98.91066111862764,14.115364728746385 90.05383426566036,15.507693282178622 80.29162113931304,21.756156584296193 81.13052664115611,24.611645489427133 106.5457002200286,34.995512572557146 118.6976722395697,112.20966746830942 102.85134632540776,123.71273692233183 105.46594877864425,125.94883245998645 115.75946521175493,124.21493615458441 112.8683173333718,125.11194447333078 111.1779556026764,125.46178484781603 108.8443954457874,125.83735056655841 107.79688373504845,126.88830582731603 105.76003605270952,126.71415132354815 103.95264223620306,126.84656189861909 102.48339692905961,125.86259786504826 99.6646608307162,114.5929119751149 99.03569844542331,108.9090774414708 98.91024789262539,104.71885234416109 99.16346630482201,102.50598658980888 99.39098368017336,100.95714261117499 99.19586808488006,99.58934833881696 97.88005926409804,98.17689324833441 95.66192690383492,99.17877994694359 94.9487879511444,100.86983849011335 94.26747550309705,102.93055605093465 93.33751443628964,105.9636105999696 91.89260895092522,105.33903975375935 99.38830176239412,102.39817511557723 84.09193914486141,20.012747978371976 70.87855157497658,18.304520299932648 78.60629914535085,12.31196543026158 88.1223024965984,13.200806458610714 85.63278598498135,12.301966981501465 82.69791717506703,12.384450132536983 80.61396172847269,12.03970621207938 79.30217173312421,11.696080432569005 78.02708592973948,10.992089169222197 77.64140832764815,15.255042042926277 73.59964479973169,46.66179009252336 77.51462086719593,93.33140514605975 89.19222564110594,129.27639561155956 91.80064590925008,136.51524010398865 92.98433584390393,140.0077128403383 95.75716334364546,141.25675730311127 98.57201835855605,141.13970901235894 103.04659156023118,140.46404398634218 110.1431242584768,138.6882011904774 115.32482437963338,137.9382527137049 117.34406539328859,139.4124648353459 119.34753899909359,140.8489113413703 121.60623232734136,141.27272727272728 124.60046793957758,141.08634614077545 128.40475615573573,140.02121965888216 131.76997148833652,138.30260461309237 134.95072597452534,135.53469531302457 134.4743493161775,132.92861665889313 133.46917301449162,127.16479453516824 133.57395416470686,121.52853770907625 134.23676867230097,115.41254169932404 135.59035121117017,112.44129279627128 141.480636696522,110.12647365395449 145.41663867527672,111.05043079002346 149.5622515692857,112.15223715646859 152.65741155571624,113.43667321096285 154.91390101195205,114.42152041383258 154.8389369536632,116.1319114519307 154.2324670268452,117.6138614330254 152.62620083884113,118.60981712313185 151.2681295312417,118.69267298781642 152.02148104567968,116.4417418264343 153.0356672947085,115.39743869406567 154.27938033180547,114.28085342118747 155.21712787289042,115.22610385007779 154.2324670268452,117.6138614330254 152.62620083884113,118.60981712313185 151.2681295312417,118.69267298781642" stroke="#ff3399" stroke-linecap="round" stroke-width="2" /><polyline fill="none" points="112.12892637583305,18.026346278188953 109.06389947768353,18.978175913232604 105.49201442666794,18.62208853388995 101.11879503013066,17.898003143375377 95.62158470255734,16.61581957571687 91.69137599030464,15.879693913842857 90.50617899611319,18.099219899054702 88.2734702911828,18.337221871404097 89.57078927398223,21.236302068536105 89.70466639623758,19.539304414392973 88.37839728586943,17.92359074563177 85.30152457565569,16.51262650974553 83.67262818717595,14.455992594122847 84.91764572204468,12.178890452598807 86.79661676411575,9.976541705127175 88.05909512319684,8.872126343138461 89.71625292924159,8.735421458632487 95.69293505894424,12.23429514678159 97.61689912043576,13.072268864501979 103.15969394778566,15.956910458967457 99.40487131483691,17.159462945252983 96.97290665212017,20.350345519732016 97.41014837731464,22.68781106746573 95.12662907904992,20.117156414938137 94.4935830485584,15.726362759599652 95.05265352217819,12.280576459032545 96.56386152472567,11.185041404856719 94.56725071154611,10.16641500192145 92.25305545946799,10.31193537447524 88.92528974612907,11.951551331601337 87.18133017220185,18.918250040437073 86.57621335797944,25.370522888836263 92.96292911649374,29.942828091276624 112.13026328348735,46.04391188705527 124.23195137028517,70.81159273029911 120.03242463668974,84.93876883560955 116.84837244495364,88.97392884996077 114.45700116010408,91.5973792011276 111.50343184797072,94.04328821580229 109.48365607125379,95.02668507642888 107.00255802662357,95.60941476429461 105.87226337343573,97.21699355254111 106.18783839961752,98.70527966567016 106.5627235108268,100.4539062626815 106.85682698983334,102.96884022467165 112.82922291257158,98.49674637900998 118.53841007682374,47.565458642129386 95.67338379730882,17.123293516350998 92.50697878660958,12.27684932254175 86.87493524524632,11.3591959086246 84.78517842967932,11.387927269486283 87.4327417334475,9.365793673815375 89.1021261676762,8.913335508773685 90.45026384628059,8.49424331779528 91.9524456965438,7.432981714393549 93.2694293755675,7.103583873313255 94.65745551709406,6.865322621903658 96.31907778445714,6.7272727272727195 98.20453890550458,6.819332998595456 101.78205517360954,7.454112957802238 104.65361127800406,8.780892523820228 107.72522548477752,14.96458467570423 109.26380363312046,41.85955297848325 102.41408029280139,92.42457663290719 95.47364169128454,127.15421270852262 96.23742918789677,132.6286469911489 96.11289421428029,136.35132712309982 94.4454786804152,138.34291440448743 93.24487888955201,139.45813846229944 90.41099117112645,139.7870258477299 87.31026478737161,139.32998168431038 82.81827937630794,138.31602230445927 77.61776531834347,136.93179622165917 73.31977736162588,135.82263281188003 68.2471527001196,134.60863963706188 60.119629228754015,132.10752038749956 56.757889856054405,129.907351204628 55.25830889886411,127.88653020919949 54.782872127109584,125.25746484588457 56.6542997690221,123.58300826504014 65.44650941869783,120.40336381732794 77.11701642833404,113.82539734201188 85.98408480418038,106.7197817741876 87.61093937006083,106.88991745252191 89.09414523410351,107.47159381920547 90.28568646279993,108.27317934131676 91.25141993744838,109.25606574629353 91.99056782086816,111.63359801130332 93.55953833655238,112.4402880899129 95.32844541755603,112.1316892909454 96.6470333857649,111.7552404029041 98.47350852061012,112.13506802119902" stroke="#33ccff" stroke-dasharray="5,2" stroke-linecap="round" stroke-width="2" /><polyline fill="none" points="129.73187602552028,15.00593968581083 127.59241865509554,19.51109161165175 122.36219283732288,20.135775892450866 119.50328468958517,18.813452685280566 116.5594059323279,17.090057181817826 115.60102139854283,14.877272452171951 114.95928141706298,13.308585522959874 114.34375292807823,12.018072615491462 115.49641850268151,11.26109119421028 117.23259160233118,10.228658181317797 119.041233199315,10.963892571422235 117.32065735563225,12.099226961343305 113.97594127373083,12.548103834365577 111.16260952329908,12.47237814383729 115.43194714386132,16.261822633797323 131.97624418569035,36.184987671242354 137.67307508222845,66.17138882396115 136.6088965893991,77.3153486770951 136.65324951363962,78.8412221514868 137.59418942815364,76.18897561969324 137.90130547499544,56.952964911621336 131.1143519746638,34.11939242310049 112.15828972940403,16.54826117558582 98.91066111862764,14.115364728746385 90.05383426566036,15.507693282178622 80.29162113931304,21.756156584296193 81.13052664115611,24.611645489427133 106.5457002200286,34.995512572557146 118.6976722395697,112.20966746830942 102.85134632540776,123.71273692233183 105.46594877864425,125.94883245998645 115.75946521175493,124.21493615458441 112.8683173333718,125.11194447333078 111.1779556026764,125.46178484781603 108.8443954457874,125.83735056655841 107.79688373504845,126.88830582731603 105.76003605270952,126.71415132354815 103.95264223620306,126.84656189861909 102.48339692905961,125.86259786504826 99.6646608307162,114.5929119751149 99.03569844542331,108.9090774414708 98.91024789262539,104.71885234416109 99.16346630482201,102.50598658980888 99.39098368017336,100.95714261117499 99.19586808488006,99.58934833881696 97.88005926409804,98.17689324833441 95.66192690383492,99.17877994694359 94.9487879511444,100.86983849011335 94.26747550309705,102.93055605093465 93.33751443628964,105.9636105999696 91.89260895092522,105.33903975375935 99.38830176239412,102.39817511557723 84.09193914486141,20.012747978371976 70.87855157497658,18.304520299932648 78.60629914535085,12.31196543026158 88.1223024965984,13.200806458610714 85.63278598498135,12.301966981501465 82.69791717506703,12.384450132536983 80.61396172847269,12.03970621207938 79.30217173312421,11.696080432569005 78.02708592973948,10.992089169222197 77.64140832764815,15.255042042926277 73.59964479973169,46.66179009252336 77.51462086719593,93.33140514605975 89.19222564110594,129.27639561155956 91.80064590925008,136.51524010398865 92.98433584390393,140.0077128403383 95.75716334364546,141.25675730311127 98.57201835855605,141.13970901235894 103.04659156023118,140.46404398634218 110.1431242584768,138.6882011904774 115.32482437963338,137.9382527137049 117.34406539328859,139.4124648353459 119.34753899909359,140.8489113413703 121.60623232734136,141.27272727272728 124.60046793957758,141.08634614077545 131.76997148833652,138.30260461309237 134.95072597452534,135.53469531302457 134.4743493161775,132.92861665889313 133.46917301449162,127.16479453516824 133.57395416470686,121.52853770907625 134.23676867230097,115.41254169932404 135.59035121117017,112.44129279627128 141.480636696522,110.12647365395449 145.41663867527672,111.05043079002346 149.5622515692857,112.15223715646859 152.65741155571624,113.43667321096285 154.91390101195205,114.42152041383258 154.8389369536632,116.1319114519307 154.2324670268452,117.6138614330254 152.62620083884113,118.60981712313185 151.2681295312417,118.69267298781642 152.02148104567968,116.4417418264343 153.0356672947085,115.39743869406567 154.27938033180547,114.28085342118747" stroke="#33ccff" stroke-linecap="round" stroke-width="2" /><polyline fill="none" points="112.12892637583305,18.026346278188953 109.06389947768353,18.978175913232604 105.49201442666794,18.62208853388995 101.11879503013066,17.898003143375377 95.62158470255734,16.61581957571687 91.69137599030464,15.879693913842857 90.50617899611319,18.099219899054702 88.2734702911828,18.337221871404097 89.57078927398223,21.236302068536105 89.70466639623758,19.539304414392973 88.37839728586943,17.92359074563177 85.30152457565569,16.51262650974553 83.67262818717595,14.455992594122847 84.91764572204468,12.178890452598807 86.79661676411575,9.976541705127175 88.05909512319684,8.872126343138461 89.71625292924159,8.735421458632487 95.69293505894424,12.23429514678159 97.61689912043576,13.072268864501979 103.15969394778566,15.956910458967457 99.40487131483691,17.159462945252983 96.97290665212017,20.350345519732016 97.41014837731464,22.68781106746573 95.12662907904992,20.117156414938137 94.4935830485584,15.726362759599652 95.05265352217819,12.280576459032545 96.56386152472567,11.185041404856719 94.56725071154611,10.16641500192145 92.25305545946799,10.31193537447524 88.92528974612907,11.951551331601337 87.18133017220185,18.918250040437073 86.57621335797944,25.370522888836263 92.96292911649374,29.942828091276624 112.13026328348735,46.04391188705527 124.23195137028517,70.81159273029911 120.03242463668974,84.93876883560955 116.84837244495364,88.97392884996077 114.45700116010408,91.5973792011276 111.50343184797072,94.04328821580229 109.48365607125379,95.02668507642888 107.00255802662357,95.60941476429461 105.87226337343573,97.21699355254111 106.18783839961752,98.70527966567016 106.5627235108268,100.4539062626815 106.85682698983334,102.96884022467165 112.82922291257158,98.49674637900998 118.53841007682374,47.565458642129386 95.67338379730882,17.123293516350998 92.50697878660958,12.27684932254175 86.87493524524632,11.3591959086246 84.78517842967932,11.387927269486283 87.4327417334475,9.365793673815375 89.1021261676762,8.913335508773685 90.45026384628059,8.49424331779528 91.9524456965438,7.432981714393549 93.2694293755675,7.103583873313255 94.65745551709406,6.865322621903658 96.31907778445714,6.7272727272727195 98.20453890550458,6.819332998595456 101.78205517360954,7.454112957802238 104.65361127800406,8.780892523820228 107.72522548477752,14.96458467570423 109.26380363312046,41.85955297848325 102.41408029280139,92.42457663290719 95.47364169128454,127.15421270852262 96.23742918789677,132.6286469911489 96.11289421428029,136.35132712309982 94.4454786804152,138.34291440448743 93.24487888955201,139.45813846229944 90.41099117112645,139.7870258477299 87.31026478737161,139.32998168431038 82.81827937630794,138.31602230445927 77.61776531834347,136.93179622165917 73.31977736162588,135.82263281188003 68.2471527001196,134.60863963706188 63.486724334541485,133.35329955460773 60.119629228754015,132.10752038749956 56.757889856054405,129.907351204628 55.25830889886411,127.88653020919949 54.782872127109584,125.25746484588457 56.6542997690221,123.58300826504014 65.44650941869783,120.40336381732794 77.11701642833404,113.82539734201188 85.98408480418038,106.7197817741876 87.61093937006083,106.88991745252191 89.09414523410351,107.47159381920547 90.28568646279993,108.27317934131676 91.25141993744838,109.25606574629353 91.99056782086816,111.63359801130332 93.55953833655238,112.4402880899129 95.32844541755603,112.1316892909454 96.6470333857649,111.7552404029041" stroke="#ffcc00" stroke-dasharray="5,2" stroke-linecap="round" stroke-width="2" /><polyline fill="none" points="129.73187602552028,15.00593968581083 127.59241865509554,19.51109161165175 122.36219283732288,20.135775892450866 119.50328468958517,18.813452685280566 116.5594059323279,17.090057181817826 115.60102139854283,14.877272452171951 114.95928141706298,13.308585522959874 114.34375292807823,12.018072615491462 115.49641850268151,11.26109119421028 117.23259160233118,10.228658181317797 119.041233199315,10.963892571422235 117.32065735563225,12.099226961343305 113.97594127373083,12.548103834365577 111.16260952329908,12.47237814383729 115.43194714386132,16.261822633797323 131.97624418569035,36.184987671242354 137.67307508222845,66.17138882396115 136.6088965893991,77.3153486770951 136.65324951363962,78.8412221514868 137.59418942815364,76.18897561969324 137.90130547499544,56.952964911621336 131.1143519746638,34.11939242310049 112.15828972940403,16.54826117558582 98.91066111862764,14.115364728746385 90.05383426566036,15.507693282178622 80.29162113931304,21.756156584296193 81.13052664115611,24.611645489427133 106.5457002200286,34.995512572557146 118.6976722395697,112.20966746830942 102.85134632540776,123.71273692233183 105.46594877864425,125.94883245998645 115.75946521175493,124.21493615458441 112.8683173333718,125.11194447333078 111.1779556026764,125.46178484781603 108.8443954457874,125.83735056655841 107.79688373504845,126.88830582731603 105.76003605270952,126.71415132354815 103.95264223620306,126.84656189861909 102.48339692905961,125.86259786504826 99.6646608307162,114.5929119751149 99.03569844542331,108.9090774414708 98.91024789262539,104.71885234416109 99.16346630482201,102.50598658980888 99.39098368017336,100.95714261117499 99.19586808488006,99.58934833881696 97.88005926409804,98.17689324833441 95.66192690383492,99.17877994694359 94.9487879511444,100.86983849011335 94.26747550309705,102.93055605093465 93.33751443628964,105.9636105999696 91.89260895092522,105.33903975375935 99.38830176239412,102.39817511557723 84.09193914486141,20.012747978371976 70.87855157497658,18.304520299932648 78.60629914535085,12.31196543026158 88.1223024965984,13.200806458610714 85.63278598498135,12.301966981501465 82.69791717506703,12.384450132536983 80.61396172847269,12.03970621207938 79.30217173312421,11.696080432569005 78.02708592973948,10.992089169222197 77.64140832764815,15.255042042926277 73.59964479973169,46.66179009252336 77.51462086719593,93.33140514605975 89.19222564110594,129.27639561155956 91.80064590925008,136.51524010398865 92.98433584390393,140.0077128403383 95.75716334364546,141.25675730311127 98.57201835855605,141.13970901235894 103.04659156023118,140.46404398634218 110.1431242584768,138.6882011904774 115.32482437963338,137.9382527137049 117.34406539328859,139.4124648353459 119.34753899909359,140.8489113413703 121.60623232734136,141.27272727272728 124.60046793957758,141.08634614077545 128.40475615573573,140.02121965888216 131.76997148833652,138.30260461309237 134.95072597452534,135.53469531302457 134.4743493161775,132.92861665889313 133.46917301449162,127.16479453516824 133.57395416470686,121.52853770907625 134.23676867230097,115.41254169932404 135.59035121117017,112.44129279627128 141.480636696522,110.12647365395449 145.41663867527672,111.05043079002346 149.5622515692857,112.15223715646859 152.65741155571624,113.43667321096285 154.91390101195205,114.42152041383258 154.8389369536632,116.1319114519307 154.2324670268452,117.6138614330254 152.62620083884113,118.60981712313185 151.2681295312417,118.69267298781642 152.02148104567968,116.4417418264343" stroke="#ffcc00" stroke-linecap="round" stroke-width="2" /><polyline fill="none" points="112.12892637583305,18.026346278188953 109.06389947768353,18.978175913232604 105.49201442666794,18.62208853388995 101.11879503013066,17.898003143375377 95.62158470255734,16.61581957571687 91.69137599030464,15.879693913842857 90.50617899611319,18.099219899054702 88.2734702911828,18.337221871404097 89.57078927398223,21.236302068536105 89.70466639623758,19.539304414392973 88.37839728586943,17.92359074563177 85.30152457565569,16.51262650974553 83.67262818717595,14.455992594122847 84.91764572204468,12.178890452598807 86.79661676411575,9.976541705127175 88.05909512319684,8.872126343138461 89.71625292924159,8.735421458632487 95.69293505894424,12.23429514678159 97.61689912043576,13.072268864501979 103.15969394778566,15.956910458967457 99.40487131483691,17.159462945252983 96.97290665212017,20.350345519732016 97.41014837731464,22.68781106746573 95.12662907904992,20.117156414938137 94.4935830485584,15.726362759599652 95.05265352217819,12.280576459032545 96.56386152472567,11.185041404856719 94.56725071154611,10.16641500192145 92.25305545946799,10.31193537447524 88.92528974612907,11.951551331601337 87.18133017220185,18.918250040437073 86.57621335797944,25.370522888836263 92.96292911649374,29.942828091276624 112.13026328348735,46.04391188705527 124.23195137028517,70.81159273029911 120.03242463668974,84.93876883560955 116.84837244495364,88.97392884996077 114.45700116010408,91.5973792011276 111.50343184797072,94.04328821580229 109.48365607125379,95.02668507642888 107.00255802662357,95.60941476429461 105.87226337343573,97.21699355254111 106.18783839961752,98.70527966567016 106.5627235108268,100.4539062626815 106.85682698983334,102.96884022467165 112.82922291257158,98.49674637900998 118.53841007682374,47.565458642129386 95.67338379730882,17.123293516350998 92.50697878660958,12.27684932254175 86.87493524524632,11.3591959086246 84.78517842967932,11.387927269486283 87.4327417334475,9.365793673815375 89.1021261676762,8.913335508773685 90.45026384628059,8.49424331779528 91.9524456965438,7.432981714393549 94.65745551709406,6.865322621903658 96.31907778445714,6.7272727272727195 98.20453890550458,6.819332998595456 101.78205517360954,7.454112957802238 104.65361127800406,8.780892523820228 107.72522548477752,14.96458467570423 109.26380363312046,41.85955297848325 102.41408029280139,92.42457663290719 95.47364169128454,127.15421270852262 96.23742918789677,132.6286469911489 96.11289421428029,136.35132712309982 94.4454786804152,138.34291440448743 93.24487888955201,139.45813846229944 90.41099117112645,139.7870258477299 87.31026478737161,139.32998168431038 82.81827937630794,138.31602230445927 77.61776531834347,136.93179622165917 73.31977736162588,135.82263281188003 68.2471527001196,134.60863963706188 63.486724334541485,133.35329955460773 60.119629228754015,132.10752038749956 56.757889856054405,129.907351204628 55.25830889886411,127.88653020919949 54.782872127109584,125.25746484588457 56.6542997690221,123.58300826504014 65.44650941869783,120.40336381732794 77.11701642833404,113.82539734201188 85.98408480418038,106.7197817741876 87.61093937006083,106.88991745252191 89.09414523410351,107.47159381920547" stroke="#9933ff" stroke-dasharray="5,2" stroke-linecap="round" stroke-width="2" /><polyline fill="none" points="129.73187602552028,15.00593968581083 127.59241865509554,19.51109161165175 122.36219283732288,20.135775892450866 119.50328468958517,18.813452685280566 116.5594059323279,17.090057181817826 115.60102139854283,14.877272452171951 114.95928141706298,13.308585522959874 114.34375292807823,12.018072615491462 115.49641850268151,11.26109119421028 117.23259160233118,10.228658181317797 119.041233199315,10.963892571422235 117.32065735563225,12.099226961343305 113.97594127373083,12.548103834365577 111.16260952329908,12.47237814383729 115.43194714386132,16.261822633797323 131.97624418569035,36.184987671242354 137.67307508222845,66.17138882396115 136.6088965893991,77.3153486770951 136.65324951363962,78.8412221514868 137.59418942815364,76.18897561969324 137.90130547499544,56.952964911621336 131.1143519746638,34.11939242310049 112.15828972940403,16.54826117558582 98.91066111862764,14.115364728746385 90.05383426566036,15.507693282178622 80.29162113931304,21.756156584296193 81.13052664115611,24.611645489427133 106.5457002200286,34.995512572557146 118.6976722395697,112.20966746830942 102.85134632540776,123.71273692233183 105.46594877864425,125.94883245998645 115.75946521175493,124.21493615458441 112.8683173333718,125.11194447333078 111.1779556026764,125.46178484781603 108.8443954457874,125.83735056655841 107.79688373504845,126.88830582731603 105.76003605270952,126.71415132354815 103.95264223620306,126.84656189861909 102.48339692905961,125.86259786504826 99.6646608307162,114.5929119751149 99.03569844542331,108.9090774414708 98.91024789262539,104.71885234416109 99.16346630482201,102.50598658980888 99.39098368017336,100.95714261117499 99.19586808488006,99.58934833881696 97.88005926409804,98.17689324833441 95.66192690383492,99.17877994694359 94.9487879511444,100.86983849011335 94.26747550309705,102.93055605093465 93.33751443628964,105.9636105999696 91.89260895092522,105.33903975375935 99.38830176239412,102.39817511557723 84.09193914486141,20.012747978371976 70.87855157497658,18.304520299932648 78.60629914535085,12.31196543026158 88.1223024965984,13.200806458610714 85.63278598498135,12.301966981501465 82.69791717506703,12.384450132536983 80.61396172847269,12.03970621207938 79.5003257549046,11.309236074706632 78.02708592973948,10.992089169222197 77.64140832764815,15.255042042926277 73.59964479973169,46.66179009252336 77.51462086719593,93.33140514605975 89.19222564110594,129.27639561155956 91.80064590925008,136.51524010398865 92.98433584390393,140.0077128403383 95.75716334364546,141.25675730311127 98.57201835855605,141.13970901235894 103.04659156023118,140.46404398634218 110.1431242584768,138.6882011904774 115.32482437963338,137.9382527137049 117.34406539328859,139.4124648353459 119.34753899909359,140.8489113413703 121.60623232734136,141.27272727272728 124.60046793957758,141.08634614077545 128.40475615573573,140.02121965888216 131.76997148833652,138.30260461309237 134.95072597452534,135.53469531302457 134.4743493161775,132.92861665889313 133.46917301449162,127.16479453516824 133.57395416470686,121.52853770907625 134.23676867230097,115.41254169932404 135.59035121117017,112.44129279627128 141.480636696522,110.12647365395449 145.41663867527672,111.05043079002346 149.5622515692857,112.15223715646859" stroke="#9933ff" stroke-linecap="round" stroke-width="2" /><text fill="black" font-size="10px" font-weight="bold" x="5" y="10">Hand Trails</text><text fill="gray" font-size="8px" x="5" y="22">Dashed = Left Hand | Solid = Right Hand</text><text fill="gray" font-size="8px" x="5" y="143">Duration: 100s | People: 4 | 20251114_152832</text></svg>