<?xml version="1.0" encoding="utf-8" ?>
<svg baseProfile="full" height="148mm" version="1.1" viewBox="0 0 210 148" width="210mm" xmlns="http://www.w3.org/2000/svg" xmlns:ev="http://www.w3.org/2001/xml-events" xmlns:xlink="http://www.w3.org/1999/xlink"><defs /><polyline fill="none" points="103.51796978759765,112.24047287597656 105.42281759033203,112.8896656982422 108.29722437744141,111.90445397949219 112.21989825439454,109.22512102050783 117.05498345947265,103.38931770019532 122.23602227783203,91.08548801269532 124.84687994384765,80.72880861816407 127.03873428955079,77.99308137207031 128.23581617431643,78.11113811035156 127.38186954345704,79.53119016113281 112.77872471923828,77.30800324707032 113.99606085205079,77.91821057128907 129.79268873291016,77.66157727050782 129.12478092041016,79.29670266113281 128.20384947509766,80.66844152832032 127.28865230712891,81.17236418457031 126.23021202392579,80.97503566894531 125.02544468994141,79.66585354003907 124.49373409423828,78.01420822753906 123.78325279541016,75.92374436035156 121.51615909423828,74.21193791503906 119.45443165283203,72.53622814941406 116.33866490478516,73.00519230957032 113.15474263916016,74.9626729736328 109.22726671142578,77.11075061035156 103.25555343017578,77.50830187988281 97.10141099853516,63.981997973632815 76.52469656982421,46.057926098632805 74.53031436767577,35.40505881347656 72.13503680419922,31.223621606445306 72.62505194091796,28.61634650878905 74.13105853271483,27.427985278320307 75.04536412353515,27.18786105957031 78.63184295654297,29.928249438476556 79.93704415283203,32.22803068847655 78.49841531982422,33.482731762695295 75.68660863037108,35.324269458007805 73.47487130126953,36.2418188720703 76.19620052490234,41.89232590332031 79.50135018310546,51.519299536132806 85.77745440673829,64.53056994628906 86.31287764892578,74.74756711425782 83.05494906005859,81.27372756347657 81.45426998291015,82.64674553222656 86.17418184814453,60.20896271972656 67.72484095458984,43.24975617675781 60.74288675537108,41.84536770019531 65.18123096923827,40.58551770019531 72.95347752685547,40.28761711425781 90.06914366455078,48.68468039550781 96.4888189086914,59.05365217285156 98.47701427001952,72.28717189941406 97.62710006103515,79.47211301269532 94.6402353149414,87.39794660644532 91.44751651611328,92.70652702636718 90.07645513916015,94.98318146972656 87.12487408447265,96.84760207519531 85.1026036743164,93.1175739013672 86.01026173095703,93.15277087402345 86.52488873291016,94.42806223144532 88.0529923461914,95.4883344482422 90.77179317626953,95.93692512207032 108.62923795166016,78.28509592285157 109.71698375244141,55.283402758789066 114.42815328369142,54.96236994628906 106.08640572509766,43.57249084472656" stroke="#ff3399" stroke-linecap="round" stroke-width="2" /><polyline fill="none" points="140.76393306884768,115.66608571777346 141.41046470947265,114.60079465332032 142.38431627197266,113.51471276855469 144.28520211181643,112.02580061035157 147.4109144165039,109.38191936035156 151.36973375244142,104.50587580566406 156.54198687744142,92.97445544433594 153.54248287353516,62.47360119628905 142.74088209228518,52.110114379882816 138.2889257446289,52.4256622314453 134.26880709228516,52.11165363769531 135.46153677978515,55.22302482910156 136.38488551025392,94.68937834472656 137.41748902587892,97.41035798339844 123.81958253173829,45.912216918945305 133.89755328369142,50.19566789550781 143.2863755493164,63.91602668457031 143.9287880493164,72.52453195800781 141.85823697509767,77.88215725097656 136.75062183837892,82.08462375488281 132.39518345947266,83.02589074707032 125.06911300048829,84.18708732910156 117.82268287353516,84.6463606689453 113.65264918212891,85.27354318847657 109.27301085205079,87.86366965332031 106.53844888916015,90.07942043457032 103.55780079345703,91.78378532714844 99.21383096923827,91.70377102050782 99.60553414306641,94.31654191894532 99.6758196899414,92.22014323730468 97.73285899658202,94.18383513183593 91.63014620361328,96.81533186035156 74.06983509521484,101.78469020996094 52.44799984130859,40.268148754882816 66.76363677978514,31.513067114257808 74.21877454833984,31.486520336914054 71.78297764892577,33.525516625976564 70.6977521118164,34.28696145019531 69.53106785888671,38.83052531738281 62.72485733642577,48.767258325195314 54.509930529785144,67.0307690673828 57.30535686035155,82.44485344238282 73.0128609008789,93.56720520019532 78.30814083251953,93.10058244628907 84.06767501220702,95.29743937988282 84.27200606689453,90.43270178222656 74.35509642333983,73.71100705566407 64.30091641845702,44.5239581298828 69.64194320068358,41.36578049316405 73.28031507568359,39.554301684570305 74.41504888916015,38.75063566894531 73.17591925048828,42.38134377441406 74.1901898803711,49.644516040039065 77.32051182861328,63.814034594726564 81.20054718017577,78.11699162597657 83.7502247680664,86.18555344238281 85.33452755126953,93.5533789794922 94.43190977783203,90.58634572753907 102.48783775634766,84.7791270751953 105.19764151611328,84.43555822753906 105.1992837524414,88.02402346191407 104.1719050415039,91.81441330566406 115.6170239868164,76.31814123535156 107.26783487548828,45.961570727539055 100.55690386962891,40.244875610351556 108.24411456298829,38.92207863769531" stroke="#ff3399" stroke-linecap="round" stroke-width="2" /><polyline fill="none" points="113.33607154541016,115.38252082519531 118.44523677978516,105.02211794433595 119.96365499267579,82.41054533691407 117.18402095947266,76.32220617675782 116.4853821899414,76.95981662597656 117.13036915283203,80.27530207519531 119.62597760009766,56.46490236816406 113.77986016845703,41.25585363769531 107.04287559814453,35.949457446289045 104.6541913696289,36.37541994628906 111.14375108642578,39.91675354003905 115.0416667602539,47.685170922851555 110.8104204711914,44.7083005126953 110.95541964111328,48.662686352539055 112.45319879150391,54.11959377441406 114.45914981689454,61.69474758300781 115.19005338134765,65.98951535644531 113.14099771728516,56.86435061035155 110.81332012939453,53.120246899414056 109.47828497314453,53.16656555175781 109.51019205322265,46.189597680664065 109.88908253173828,48.43767287597656 109.91204674072266,51.776323071289056 104.71790797119141,56.31765393066405 95.46349434814454,61.52567854003905 92.57303917236328,66.64232326660157 105.1599134399414,53.65397912597656 116.70798380126953,47.404473168945316 120.95937593994141,44.6153813720703 120.21133458251953,42.563236352539064 119.1953864868164,41.470124829101565 118.67503604736328,40.117182250976555 114.80944478759766,38.094185571289046 108.07477994384766,36.743042407226554 101.68497388916016,37.63066301269531 97.80549678955077,41.37017062988281 101.76473345947265,51.698503833007805 106.03468341064453,67.34694562988281 104.90985450439453,90.69082014160156 99.93603013916015,104.32362551269532 96.37355885009765,114.89743239746095 97.21369552001953,117.40764753417969 98.3764692993164,116.69673264160157 100.54772794189454,116.59813342285156 102.8486636352539,116.8640727294922 104.81645841064453,117.15170256347656 106.75970635986329,117.32291247558595 108.5376087524414,117.30466359863283 110.04643912353515,117.02011228027345 111.19070928955078,116.44300441894532 111.69713052978516,115.53505368652344 111.12778399658204,114.29464494628907 109.14958839111328,112.63342263183594 105.93500562744141,110.65337883300782 103.07403482666015,108.43569313964844 103.29386143798828,106.37585183105469 104.13796007080079,104.9765364013672 104.74461192626953,103.89532160644532 103.4785886352539,103.98049567871095 102.22122637939454,104.52249870605469 100.89531295166016,104.78690959472657 99.67173306884766,105.10197507324219 99.03431231689453,105.74247434082032 100.3781765258789,105.78594211425782 101.50961231689453,105.71329348144532 102.73818936767579,105.69301755371094 104.13756983642578,105.71162414550781 106.44988736572266,105.81496579589844 109.01334239501954,106.09531667480469" stroke="#33ccff" stroke-linecap="round" stroke-width="2" /><polyline fill="none" points="149.18820435791017,113.19083991699219 151.49584449462893,108.03734514160158 156.11197027587892,95.4033500732422 157.5520001586914,72.17047014160156 151.96420162353516,59.58972580566406 136.1568585571289,45.89900314941406 125.79214141845704,42.83933801269531 121.11505777587891,40.92078322753906 118.16711348876953,38.925363110351554 116.29730006103516,37.42530217285156 118.24081900634766,36.30801779785156 123.99126939697265,39.804973071289055 127.70148775634766,47.89088947753906 123.99459722900392,45.375211059570304 119.03721690673828,40.8374790283203 116.46832569580079,39.422630102539046 114.6261972290039,39.243566723632796 113.84037359619141,38.46096252441406 111.26625216064453,39.13409514160156 108.12404703369141,40.33978928222655 104.97733795166016,41.77663225097655 103.21909361572266,44.71654963378906 102.13238302001953,45.09754846191406 104.04520352783203,43.75650803222655 107.06119493408204,42.664079418945306 111.72626802978516,40.56726340332031 116.52799361572266,38.72269055175781 117.86758150634766,38.404356860351555 123.30345421142579,38.37762580566405 124.16782335205079,38.598162426757796 122.34107662353516,37.794333813476555 126.35005733642578,35.7070893798828 129.70477760009766,35.957739086914046 134.94615640869142,38.7951223876953 141.61501256103517,45.27817277832031 146.06318580322267,52.90713557128906 153.49823463134766,71.68990734863281 153.46600777587892,92.84236652832031 146.7975743774414,111.20032482910156 139.24815435791015,117.88409660644533 132.54143463134767,120.02808762207033 127.5033516723633,120.3842686279297 126.21902530517579,120.81213894042969 127.69702174072266,120.27195700683595 128.8865970336914,120.2084680419922 127.76542657470704,119.54228918457032 125.33925816650391,118.84827360839844 122.68575113525391,118.07914333496095 120.19950289306641,117.22163581542969 118.29082320556641,116.35617727050783 120.93157716064454,116.98993957519532 125.01320108642578,117.66633498535157 129.5438817993164,117.49741228027344 135.90029029541017,116.13897932128907 140.6761628540039,114.50061823730469 143.69207838134767,112.83540144042969 147.81480699462892,109.72881604003908 150.19517164306643,107.3418119873047 151.57587506103516,106.09664997558595 151.57251470947267,104.86266384277344 150.70740845947267,103.9308383544922 149.5856472290039,103.69447556152345 148.4922321899414,103.64614069824219 147.25762818603516,103.61320925292969 146.21197349853517,103.7329028076172 149.18573287353516,103.31562844238282 152.50557593994142,103.16198449707032" stroke="#33ccff" stroke-linecap="round" stroke-width="2" /><text fill="gray" font-size="8px" x="5" y="143">Duration: 20s | People: 2 | 20251114_160208</text></svg>