<?xml version="1.0" encoding="utf-8" ?>
<svg baseProfile="full" height="148mm" version="1.1" width="210mm" xmlns="http://www.w3.org/2000/svg" xmlns:ev="http://www.w3.org/2001/xml-events" xmlns:xlink="http://www.w3.org/1999/xlink"><defs /><rect fill="white" height="148mm" width="210mm" x="0" y="0" /><polyline fill="none" points="112.28053980630222,18.02634627818898 109.21551290815272,18.978175913232604 105.64362785713712,18.62208853388995 101.27040846059984,17.898003143375377 95.77319813302653,16.61581957571687 91.8429894207738,15.879693913842857 90.65779242658238,18.099219899054702 88.42508372165199,18.337221871404097 89.72240270445141,21.23630206853612 89.85627982670677,19.539304414392973 88.53001071633861,17.92359074563177 85.45313800612487,16.51262650974553 83.82424161764513,14.455992594122847 85.06925915251387,12.178890452598807 86.94823019458494,9.976541705127175 88.21070855366602,8.87212634313849 89.86786635971077,8.735421458632487 95.84454848941343,12.23429514678159 97.76851255090494,13.072268864501979 103.31130737825484,15.956910458967457 99.5564847453061,17.15946294525301 97.12452008258936,20.350345519732016 97.56176180778382,22.687811067465745 95.2782425095191,20.11715641493815 94.64519647902759,15.726362759599652 95.20426695264739,12.280576459032574 96.71547495519485,11.185041404856719 94.71886414201529,10.16641500192145 92.40466888993717,10.31193537447524 89.07690317659825,11.951551331601365 87.33294360267104,18.918250040437073 86.72782678844862,25.370522888836263 93.11454254696292,29.94282809127664 112.28187671395654,46.04391188705529 124.38356480075437,70.81159273029911 120.18403806715892,84.93876883560955 116.99998587542282,88.97392884996077 114.60861459057325,91.59737920112761 111.6550452784399,94.0432882158023 109.63526950172297,95.02668507642889 107.15417145709276,95.60941476429461 106.0238768039049,97.21699355254111 106.33945183008672,98.70527966567016 106.71433694129598,100.4539062626815 107.00844042030252,102.96884022467165 112.98083634304075,98.49674637900998 118.69002350729293,47.5654586421294 95.824997227778,17.123293516350998 92.65859221707876,12.27684932254175 87.0265486757155,11.3591959086246 84.9367918601485,11.387927269486283 87.58435516391668,9.365793673815404 89.25373959814537,8.913335508773713 90.60187727674978,8.49424331779531 92.10405912701299,7.432981714393549 93.42104280603668,7.1035838733132834 94.80906894756325,6.865322621903658 96.47069121492633,6.7272727272727195 98.35615233597376,6.819332998595456 101.93366860407872,7.454112957802238 104.80522470847325,8.780892523820228 107.87683891524671,14.96458467570423 109.41541706358964,41.859552978483265 102.56569372327057,92.42457663290719 95.62525512175372,127.15421270852262 96.38904261836595,132.6286469911489 96.26450764474947,136.35132712309982 94.59709211088439,138.34291440448743 93.3964923200212,139.45813846229944 90.56260460159564,139.7870258477299 87.46187821784079,139.32998168431038 82.96989280677712,138.31602230445927 77.76937874881266,136.93179622165917 73.47139079209506,135.82263281188006 68.39876613058878,134.60863963706188 63.63833776501067,133.35329955460773 60.2712426592232,132.10752038749956 56.90950328652359,129.907351204628 55.40992232933329,127.88653020919949 54.93448555757877,125.25746484588457 56.805913199491286,123.58300826504014 65.598122849167,120.40336381732794 77.26862985880322,113.82539734201188 86.13569823464957,106.7197817741876 87.76255280053002,106.88991745252191 89.24575866457269,107.47159381920547 90.43729989326911,108.27317934131676 91.40303336791757,109.25606574629353 92.14218125133735,111.63359801130333 93.71115176702156,112.4402880899129 95.48005884802521,112.1316892909454 96.79864681623408,111.75524040290412 98.62512195107931,112.13506802119902" stroke="#ff3399" stroke-dasharray="5,2" stroke-linecap="round" stroke-width="2" /><polyline fill="none" points="129.88348945598943,15.00593968581083 127.74403208556473,19.51109161165175 122.51380626779208,20.135775892450866 119.65489812005437,18.813452685280566 116.71101936279707,17.090057181817826 115.752634829012,14.877272452171951 115.11089484753218,13.308585522959874 114.49536635854741,12.018072615491462 115.64803193315068,11.26109119421028 117.38420503280035,10.228658181317797 119.19284662978419,10.963892571422235 117.47227078610142,12.099226961343305 114.12755470420001,12.548103834365577 111.31422295376825,12.47237814383729 115.58356057433049,16.261822633797323 132.12785761615953,36.18498767124237 137.82468851269763,66.17138882396115 136.76051001986832,77.31534867709512 136.8048629441088,78.8412221514868 137.74580285862282,76.18897561969324 138.05291890546462,56.952964911621336 131.265965405133,34.11939242310049 112.30990315987322,16.54826117558582 99.06227454909683,14.115364728746385 90.20544769612954,15.50769328217865 80.4432345697822,21.756156584296207 81.28214007162529,24.611645489427147 106.69731365049779,34.995512572557146 118.84928567003888,112.20966746830942 103.00295975587693,123.71273692233183 105.61756220911343,125.94883245998645 115.91107864222411,124.21493615458441 113.01993076384099,125.1119444733308 111.32956903314559,125.46178484781603 108.99600887625658,125.83735056655841 107.94849716551764,126.88830582731605 105.9116494831787,126.71415132354817 104.10425566667223,126.84656189861909 102.63501035952879,125.86259786504826 99.81627426118538,114.5929119751149 99.18731187589248,108.9090774414708 99.06186132309458,104.71885234416109 99.31507973529119,102.5059865898089 99.54259711064255,100.95714261117499 99.34748151534924,99.58934833881696 98.03167269456722,98.17689324833441 95.81354033430411,99.17877994694359 95.10040138161358,100.86983849011335 94.41908893356623,102.93055605093465 93.48912786675882,105.96361059996961 92.0442223813944,105.33903975375935 99.5399151928633,102.39817511557723 84.2435525753306,20.01274797837199 71.03016500544575,18.304520299932648 78.75791257582003,12.31196543026158 88.27391592706758,13.200806458610742 85.78439941545054,12.301966981501465 82.84953060553623,12.384450132536983 80.76557515894187,12.03970621207938 79.4537851635934,11.696080432569005 78.17869936020867,10.992089169222197 77.79302175811732,15.255042042926306 73.75125823020088,46.66179009252336 77.66623429766511,93.33140514605977 89.34383907157512,129.27639561155956 91.95225933971926,136.51524010398865 93.13594927437312,140.0077128403383 95.90877677411464,141.25675730311127 98.72363178902523,141.13970901235894 103.19820499070036,140.4640439863422 110.29473768894599,138.6882011904774 115.47643781010257,137.9382527137049 117.49567882375777,139.4124648353459 119.49915242956278,140.8489113413703 121.75784575781053,141.27272727272728 124.75208137004677,141.08634614077545 128.5563695862049,140.02121965888216 131.92158491880573,138.30260461309237 135.10233940499452,135.53469531302457 134.62596274664668,132.92861665889313 133.6207864449608,127.16479453516824 133.72556759517607,121.52853770907625 134.38838210277015,115.41254169932405 135.74196464163936,112.44129279627128 141.63225012699118,110.12647365395449 145.5682521057459,111.05043079002346 149.7138649997549,112.15223715646859 152.80902498618542,113.43667321096285 155.06551444242123,114.42152041383258 154.9905503841324,116.1319114519307 154.38408045731438,117.61386143302539 152.7778142693103,118.60981712313185 151.41974296171088,118.69267298781642 152.17309447614886,116.4417418264343 153.1872807251777,115.39743869406568 154.43099376227468,114.28085342118747" stroke="#ff3399" stroke-linecap="round" stroke-width="2" /><text fill="black" font-size="10px" font-weight="bold" x="5" y="10">Hand Trails</text><text fill="gray" font-size="8px" x="5" y="22">Dashed = Left Hand | Solid = Right Hand</text><text fill="gray" font-size="8px" x="5" y="143">Duration: 20s | People: 1 | 20251114_153043</text></svg>