<?xml version="1.0" encoding="utf-8" ?>
<svg baseProfile="full" height="148mm" version="1.1" viewBox="0 0 210 148" width="210mm" xmlns="http://www.w3.org/2000/svg" xmlns:ev="http://www.w3.org/2001/xml-events" xmlns:xlink="http://www.w3.org/1999/xlink"><defs /><rect fill="white" height="148" width="210" x="0" y="0" /><polyline fill="none" points="129.02497847900392,108.67750566406251 130.9298262817383,109.32669848632813 133.80423306884765,108.34148676757813 137.72690694580078,105.66215380859376 142.56199215087892,99.82635048828126 147.7430309692383,87.52252080078125 150.35388863525392,77.16584140625 152.54574298095704,74.43011416015625 153.74282486572267,74.5481708984375 152.88887823486328,75.96822294921876 138.28573341064453,73.74503603515625 139.50306954345703,74.355243359375 155.2996974243164,74.09861005859375 154.63178961181643,75.73373544921876 153.71085816650393,77.10547431640624 152.79566099853517,77.60939697265626 151.73722071533206,77.41206845703125 150.53245338134766,76.102886328125 150.00074278564455,74.451241015625 149.2902614868164,72.3607771484375 147.02316778564455,70.648970703125 144.9614403442383,68.9732609375 141.8456735961914,69.44222509765625 138.6617513305664,71.39970576171875 134.73427540283203,73.5477833984375 128.76256212158205,73.94533466796875 122.60841968994141,60.419030761718744 102.03170526123047,42.49495888671875 100.03732305908203,31.842091601562487 97.64204549560547,27.660654394531235 98.13206063232421,25.053379296874994 99.63806722412109,23.865018066406236 100.5523728149414,23.62489384765624 104.13885164794922,26.3652822265625 105.44405284423829,28.665063476562494 104.00542401123047,29.919764550781238 101.19361732177734,31.76130224609375 98.98187999267579,32.67885166015624 101.7032092163086,38.32935869140624 105.00835887451171,47.95633232421875 111.28446309814453,60.96760273437499 111.81988634033203,71.18459990234375 108.56195775146485,77.7107603515625 106.9612786743164,79.0837783203125 111.68119053955078,56.6459955078125 93.23184964599609,39.68678896484374 86.24989544677734,38.28240048828124 90.68823966064453,37.02255048828124 98.46048621826172,36.72464990234374 115.57615235595703,45.12171318359374 121.99582760009766,55.4906849609375 123.98402296142578,68.72420468749999 123.1341087524414,75.90914580078125 120.14724400634766,83.83497939453125 116.95452520751954,89.14355981445313 115.58346383056642,91.4202142578125 112.6318827758789,93.28463486328125 110.60961236572265,89.55460668945312 111.51727042236328,89.58980366210938 112.03189742431641,90.86509501953125 113.56000103759766,91.92536723632813 116.27880186767578,92.37395791015625 134.1362466430664,74.7221287109375 135.22399244384766,51.720435546874995 139.93516197509766,51.399402734375 131.59341441650392,40.00952363281249" stroke="#ff3399" stroke-linecap="round" stroke-width="2" /><polyline fill="none" points="166.27094176025392,112.10311850585938 166.91747340087892,111.03782744140625 167.8913249633789,109.95174555664063 169.79221080322267,108.46283339843751 172.91792310791016,105.8189521484375 176.87674244384766,100.94290859375 182.04899556884766,89.41148823242187 179.04949156494143,58.910633984374996 168.24789078369142,48.547147167968745 163.79593443603517,48.862695019531245 159.77581578369143,48.54868642578124 160.96854547119142,51.66005761718749 161.89189420166016,91.1264111328125 162.92449771728516,93.84739077148438 149.32659122314453,42.34924970703125 159.40456197509766,46.63270068359374 168.79338424072267,60.35305947265624 169.43579674072265,68.96156474609374 167.3652456665039,74.3191900390625 162.25763052978516,78.52165654296876 157.90219215087893,79.46292353515625 150.57612169189454,80.6241201171875 143.3296915649414,81.08339345703125 139.15965787353517,81.7105759765625 134.78001954345703,84.30070244140626 132.04545758056642,86.51645322265625 129.06480948486328,88.22081811523438 124.72083966064454,88.14080380859374 125.11254283447266,90.75357470703125 125.18282838134766,88.65717602539063 123.23986768798828,90.62086791992188 117.13715489501953,93.2523646484375 99.5768437866211,98.22172299804689 77.95500853271484,36.705181542968745 92.2706454711914,27.950099902343737 99.7257832397461,27.923553124999984 97.28998634033204,29.962549414062494 96.20476080322265,30.72399423828125 95.03807655029297,35.26755810546874 88.23186602783203,45.20429111328124 80.0169392211914,63.46780185546875 82.81236555175781,78.88188623046875 98.51986959228516,90.00423798828126 103.81514952392578,89.53761523437501 109.57468370361329,91.73447216796876 109.77901475830078,86.8697345703125 99.86210511474609,70.14803984375 89.80792510986328,40.96099091796874 95.14895189208984,37.802813281249996 98.78732376708984,35.991334472656234 99.9220575805664,35.187668457031236 98.68292794189453,38.81837656249999 99.69719857177735,46.081548828124994 102.82752052001953,60.251067382812494 106.70755587158203,74.5540244140625 109.25723345947266,82.62258623046876 110.84153624267579,89.99041176757814 119.93891846923829,87.02337851562501 127.99484644775391,81.21615986328125 130.70465020751953,80.872591015625 130.70629244384767,84.46105625 129.67891373291016,88.25144609375 141.12403267822265,72.7551740234375 132.77484356689453,42.398603515625 126.06391256103515,36.681908398437486 133.75112325439454,35.35911142578124" stroke="#ff3399" stroke-linecap="round" stroke-width="2" /><polyline fill="none" points="138.8430802368164,111.81955361328126 143.95224547119142,101.45915073242188 145.47066368408204,78.847578125 142.69102965087893,72.75923896484375 141.99239088134766,73.3968494140625 142.6373778442383,76.71233486328126 145.13298629150393,52.90193515624999 139.2868688598633,37.69288642578124 132.5498842895508,32.38649023437499 130.16120006103517,32.812452734375 136.65075977783204,36.35378632812498 140.54867545166016,44.1222037109375 136.31742916259765,41.145333300781246 136.46242833251955,45.099719140625 137.96020748291016,50.5566265625 139.9661585083008,58.131780371093754 140.6970620727539,62.42654814453125 138.6480064086914,53.301383398437494 136.3203288208008,49.5572796875 134.9852936645508,49.60359833984374 135.01720074462892,42.626630468749994 135.39609122314454,44.87470566406249 135.4190554321289,48.213355859375 130.22491666259765,52.754686718749994 120.97050303955078,57.962711328124996 118.08004786376954,63.079356054687494 130.66692213134766,50.09101191406249 142.21499249267578,43.841505957031245 146.46638463134767,41.052414160156246 145.7183432739258,39.000269140624994 144.70239517822267,37.907157617187494 144.18204473876955,36.554215039062484 140.3164534790039,34.53121835937499 133.5817886352539,33.1800751953125 127.19198258056642,34.06769580078125 123.31250548095704,37.807203417968736 127.27174215087891,48.13553662109375 131.54169210205077,63.783978417968754 130.41686319580077,87.1278529296875 125.44303883056641,100.76065830078126 121.88056754150391,111.33446518554689 122.72070421142578,113.84468032226563 123.88347799072267,113.13376542968751 126.05473663330079,113.03516621093752 128.35567232666017,113.30110551757812 130.32346710205078,113.5887353515625 132.26671505126953,113.75994526367188 134.04461744384767,113.74169638671876 135.55344781494142,113.45714506835938 136.69771798095704,112.88003720703125 137.2041392211914,111.97208647460938 136.6347926879883,110.73167773437501 134.65659708251954,109.07045541992188 131.44201431884767,107.09041162109375 128.58104351806642,104.87272592773438 128.80087012939453,102.81288461914063 129.64496876220704,101.41356918945313 130.2516206176758,100.33235439453125 128.98559732666016,100.41752846679688 127.72823507080079,100.95953149414063 126.40232164306641,101.22394238281251 125.17874176025391,101.53900786132813 124.54132100830078,102.17950712890625 125.88518521728517,102.22297490234375 127.01662100830079,102.15032626953126 128.24519805908204,102.13005034179687 129.64457852783204,102.14865693359376 131.95689605712892,102.25199858398437 134.5203510864258,102.53234946289064" stroke="#33ccff" stroke-linecap="round" stroke-width="2" /><polyline fill="none" points="174.6952130493164,109.62787270507813 177.00285318603517,104.4743779296875 181.61897896728516,91.84038286132812 183.05900885009765,68.6075029296875 177.4712103149414,56.02675859375 161.66386724853515,42.336035937499986 151.2991501098633,39.27637080078125 146.62206646728515,37.35781601562499 143.6741221801758,35.362395898437484 141.80430875244141,33.86233496093749 143.7478276977539,32.74505058593749 149.49827808837892,36.242005859374984 153.20849644775393,44.32792226562499 149.50160592041016,41.81224384765625 144.54422559814452,37.274511816406246 141.97533438720706,35.85966289062499 140.13320592041015,35.68059951171874 139.34738228759767,34.8979953125 136.77326085205078,35.57112792968749 133.63105572509767,36.77682207031249 130.4843466430664,38.21366503906249 128.7261023071289,41.153582421875 127.63939171142579,41.53458125 129.5522122192383,40.19354082031249 132.56820362548828,39.101112207031235 137.23327672119143,37.00429619140624 142.0350023071289,35.15972333984374 143.37459019775392,34.841389648437485 148.81046290283206,34.81465859374998 149.67483204345703,35.03519521484374 147.84808531494141,34.231366601562485 151.85706602783205,32.14412216796873 155.21178629150393,32.39477187499999 160.45316510009766,35.232155175781244 167.1220212524414,41.71520556640624 171.57019449462894,49.34416835937499 179.00524332275393,68.12694013671874 178.97301646728516,89.27939931640626 172.30458306884765,107.6373576171875 164.75516304931642,114.32112939453125 158.0484433227539,116.46512041015626 153.01036036376954,116.82130141601564 151.72603399658203,117.24917172851563 153.20403043212892,116.70898979492188 154.39360572509767,116.64550083007813 153.2724352661133,115.97932197265627 150.84626685791017,115.28530639648437 148.19275982666016,114.51617612304688 145.70651158447265,113.65866860351564 143.79783189697267,112.79321005859376 146.43858585205078,113.42697236328127 150.52020977783204,114.1033677734375 155.05089049072268,113.93444506835938 161.40729898681641,112.576012109375 166.18317154541018,110.93765102539064 169.1990870727539,109.27243422851564 173.32181568603517,106.16584882812501 175.70218033447267,103.77884477539064 177.08288375244143,102.53368276367188 177.07952340087894,101.29969663085939 176.21441715087892,100.36787114257814 175.09265592041015,100.13150834960938 173.99924088134767,100.08317348632814 172.76463687744143,100.05024204101562 171.7189821899414,100.16993559570312 174.6927415649414,99.75266123046876 178.01258463134766,99.59901728515625" stroke="#33ccff" stroke-linecap="round" stroke-width="2" /><polyline fill="none" points="87.09262825927735,121.604908203125 87.01130233154296,120.16097597656251 86.42732200927733,118.95550947265626 83.16524989013672,119.56310981445313 79.17371319580077,120.15693813476562 76.08941586914062,120.63710527343751 71.91026722412109,121.10085004882814 68.39133382873534,121.56610698242189 65.96822124023436,121.95967460937501 62.17203580627441,122.31303725585938 57.03045368041991,122.65275795898438 52.4611458618164,122.85648740234376 47.11751616210936,123.10167924804688 42.39915032958983,123.49620078125001 39.293537805175774,123.87447880859375 35.55623338623046,124.24014467773438 32.27634869384764,123.97309970703125 30.20812818603514,123.61343369140626 28.128116638183585,123.325061328125 26.94099114990233,123.12330473632814 27.776323059082017,122.69406860351563 29.274164538574198,122.67012880859376 31.625191149902335,123.08070957031251 35.02269085693358,123.59234477539064 38.62579530029295,123.94582124023438 41.92372697753905,124.07922177734376 44.11487266845702,124.02398193359376 46.63432470703124,124.09542734375 48.77871544189452,124.08037622070313 50.456709704589834,123.82483232421876 51.37292852783202,123.39397563476564 50.26836470947264,122.6804158203125 49.437662768554674,122.25287070312501 50.36842324218749,121.301826171875 51.596198144531236,120.65420512695314 52.66750464477538,120.25114721679688 53.6354302001953,120.11250561523438 54.98171237182616,119.94783754882813 56.64922653808593,119.96740888671876 58.03862418823241,120.06092421875002 60.02121535034179,120.35339946289064 61.90355430221557,121.64811040039064 63.569441412162774,122.98276616210939 65.08725325012206,123.64818081054688 65.94705356597899,124.08170410156251 65.07696217346191,122.75398583984375 65.90109042663573,123.42104814453126 65.99465064239502,122.31602363281252 61.35974601745605,122.63344677734375 59.03750630493163,122.44301240234375 57.88823321228026,122.57951313476563 57.49023310546874,119.88904223632814 57.54075219726562,117.16134731445314 55.9643706298828,118.27031752929688 56.18875200805663,119.51154467773438 57.33165161132811,120.29038203125 59.168674172973624,120.893814453125 60.68257894592284,121.47401166992188 61.7299100830078,121.91372993164063 60.554593927001946,122.0795687011719 70.4246944152832,100.27906030273438 60.22203768310546,121.99511005859375 70.4246944152832,100.27906030273438 60.22203768310546,121.99511005859375 70.4246944152832,100.27906030273438 59.99311915283202,121.80267573242187 69.45866651000975,100.33359555664063 59.99311915283202,121.80267573242187 69.45866651000975,100.33359555664063 59.842429403686516,121.84323842773438 68.98729996948242,100.37458100585938 59.842429403686516,121.84323842773438 68.98729996948242,100.37458100585938 59.842429403686516,121.84323842773438 68.98729996948242,100.37458100585938 59.842429403686516,121.84323842773438 68.98729996948242,100.37458100585938 59.5958758026123,121.75383139648439 68.54972223815918,100.5170544921875 59.5958758026123,121.75383139648439 68.54972223815918,100.5170544921875 59.5958758026123,121.75383139648439 68.54972223815918,100.5170544921875 59.42125608215331,121.67363281250002 60.317345654296865,121.50165327148439 59.71310464782714,122.24384111328126 59.04707585449218,122.90988989257814 59.8915572692871,123.27912749023439 59.093266799926745,122.3385271484375 58.351160595703114,121.05511132812501 57.93877059631347,120.11044062500001 62.5080644416809,118.56154077148437 68.05533457946777,117.53941938476564 67.76201552124023,118.64513222656251 65.66064084320067,118.16626586914063 63.53240615444182,117.99341372070313 61.22816894531249,119.36957524414063 62.48478621597289,119.19829487304688 63.86255707511901,119.06398378906252 64.96150903015136,119.05398403320314 63.78386243476867,118.99687431640626 62.353647818756095,118.81572968750001 61.38088506774901,118.24920693359377 62.8235671131134,117.52764731445313 63.986805438995354,117.4177150390625 66.14175731506347,117.36309306640626 68.74336012573241,117.6033365234375 73.5584105895996,118.22830229492189 78.405570703125,118.77927529296876 84.36447941894531,119.07480195312502 89.89649747314454,119.14328808593751 93.68267332763672,119.19503750000001 97.80625557861327,119.1791896484375 101.07890196533204,119.10698544921877 102.83221959228516,118.98638134765625 104.5229994506836,118.84667744140626 103.01904700927734,118.39754477539063 101.94348790283203,118.2251533203125 100.48843399658203,117.97346840820313 99.1237464477539,117.86717832031252 98.02094681396484,117.77941352539062 96.83321971435547,117.42871206054689 95.89650003662109,117.23002314453126 96.9362659790039,117.27701928710938 97.10309388427734,118.14978388671875 97.98464959716797,118.83905703125001 98.88576309814454,119.18883168945314 99.90175184326172,119.42436523437502 101.4354081665039,119.70508466796876 104.00060028076172,120.0063998046875 107.42277147216797,120.43068754882813 115.3462013305664,121.17235507812501 121.91047467041017,121.14462675781252 127.80280235595703,120.84702426757813 131.06882017822267,120.38120908203126 132.2394094848633,119.93093823242188 133.8594458129883,119.05364799804688 132.8915941040039,117.7112146484375 132.28735411376954,116.36341557617189 131.99906304931642,114.713976171875 131.85141353759767,113.30206484375 132.46412486572265,111.44021328125001 133.1312847290039,112.37454819335937 133.87684918212892,112.95372104492188 133.49830015869142,115.89491752929689 131.9426525024414,115.99953286132813 130.40752467041017,116.01579262695313 128.75629127197266,115.99120244140626 126.25326837158204,115.83458837890626 123.93756881103516,115.71975649414063 121.37405958251954,115.70160517578125 117.5614101196289,115.85664204101563 114.14154239501953,116.27950434570313 109.0830913696289,116.97165546875001 104.66770865478516,117.82471323242189 98.73821656494141,118.80813637695314 94.45656771240235,119.5174794921875 89.46539146728516,120.05898930664063 86.2875422241211,120.31419716796876 82.51688767089843,120.7284472167969 80.00525928955078,121.08746284179688 76.41275756835937,121.62657163085939 72.50192554321288,122.17741455078126 68.51468481445312,122.19682871093751" stroke="#ffcc00" stroke-linecap="round" stroke-width="2" /><polyline fill="none" points="64.82854225616455,123.08971748046875 66.1889113128662,122.45522890625 67.84946087951658,121.94122519531251 69.6904054321289,121.66844052734376 70.77220896606445,121.97676904296875 69.56697416381834,121.94032548828126 68.48933211364746,122.02807944335939 67.1019808227539,122.23222080078125 65.64341311340331,122.61390795898438 64.59140983428955,123.01165434570314 63.75340450630187,123.37642050781251 62.77831555023192,122.96184526367188 64.7022218307495,122.36747495117189 66.68221261596679,122.03614970703126 70.43214206542967,121.65095585937502 74.86633055419921,121.02803881835939 79.36703909912109,120.41352265625001 83.2564658203125,119.92619580078126 85.22553292236327,119.71940952148438 86.8982671508789,120.45222631835938 87.9503092163086,121.44436469726563 88.92460521240234,121.86363901367189 86.6793673461914,121.56866518554688 85.1379198852539,121.26237998046875 83.74605684814452,120.8659560546875 82.27403994140624,119.8885056640625 80.96773850097657,118.2374890625 79.79486334228515,115.11038383789062 78.39145993652343,109.04507392578125 78.24039587402343,103.64357436523439 78.90510186767577,99.69025083007813 79.77517683105468,96.10649008789063 81.2720020751953,92.20313823242188 82.73236208496093,90.11801298828125 84.81404567871093,89.24904775390625 86.37748853759766,89.90200200195312 90.38671856689453,89.27861342773437 91.71073231201171,97.17671328125 94.89167633056641,101.75892661132814 97.60651248779297,107.31467714843751 98.3723203491211,110.03225849609376 99.68426934814453,112.97135205078126 100.05348526611328,115.96358793945313 99.76905860595703,119.8271521484375 93.54605335693358,119.87961157226563 89.57827760009765,118.30064199218751 85.99505343017577,116.84552846679688 82.99021893310547,115.55451391601564 81.60068917236327,114.26056176757814 80.86837100830078,112.98041958007813 80.53569891357421,110.18235239257814 80.43690186767577,106.7471462890625 79.32593034667968,105.14039418945313 77.21056735839844,104.42162041015625 75.14808112792969,103.619179296875 74.16148732910156,103.08508393554688 73.78648699951171,102.25665429687501 75.15107021484374,107.33402084960937 77.2525405883789,111.24784399414062 81.68553262939453,114.59064584960939 83.51659903564453,115.059030078125 82.28073625488281,114.25729897460938 82.39225792236329,115.1543556640625 81.30954587402343,114.46286577148439 79.65323265380859,113.70617963867188 78.68476171875,113.19175317382813 82.67618323974608,69.7731330078125 78.64260285644531,113.33048149414063 82.67618323974608,69.7731330078125 78.64260285644531,113.33048149414063 82.67618323974608,69.7731330078125 77.5328765625,113.376209375 83.56154509277343,68.75634482421874 77.5328765625,113.376209375 83.56154509277343,68.75634482421874 77.38958195800781,114.1308576171875 83.75763380126952,68.64172431640625 77.38958195800781,114.1308576171875 83.75763380126952,68.64172431640625 77.38958195800781,114.1308576171875 83.75763380126952,68.64172431640625 77.38958195800781,114.1308576171875 83.75763380126952,68.64172431640625 77.04861060791015,114.59100898437501 84.24599857177733,70.33313017578125 77.04861060791015,114.59100898437501 84.24599857177733,70.33313017578125 77.04861060791015,114.59100898437501 84.24599857177733,70.33313017578125 77.39084208984374,114.88289887695313 78.6843931640625,115.2872087890625 79.59017999267577,115.18457172851564 80.49065123291015,115.82959121093751 81.43649128417968,115.13160825195314 81.88628247070312,113.54955473632813 82.73176453857421,111.37943427734376 83.54455092773438,109.70693310546875 84.43379479980469,107.24261928710939 86.04360780029296,105.19705405273439 89.74158526611328,106.63464497070314 94.12938599853516,107.62167778320313 102.8226398803711,108.89681196289064 102.04749620361328,111.73313837890626 100.1185839477539,112.73693500976563 97.80951837158203,113.87872285156251 95.55856519775391,115.02465151367188 96.54377149658202,113.88461430664063 89.87413487548828,110.84492700195312 87.37919578857421,107.49311181640626 89.7618069946289,106.37933955078125 94.9997278930664,105.58906074218751 99.14979188232422,104.9949072265625 101.94107603759765,105.04367568359376 104.00363814697266,104.92078437500001 104.84131959228516,104.53040366210938 105.90257281494141,103.93135053710938 106.87624552001954,103.44682036132814 107.62014876708984,102.6673326171875 106.94555277099609,103.80082797851563 106.06953892822266,104.19767465820313 104.78690086669921,104.73740673828125 103.3809866821289,105.215758203125 102.27048262939454,105.68681445312501 101.09437042236328,105.761132421875 107.19575804443359,101.1837916015625 111.99924781494141,96.26419355468751 118.71237388916016,91.37617197265625 122.23588677978516,91.97767490234375 125.27787755126954,93.5005103515625 127.56736636962891,94.59352973632812 128.63400699462892,95.29959921875 130.1591730102539,95.69226713867188 131.54001192626953,95.54131689453125 132.65785455322265,94.02292036132813 132.1220735961914,93.30487285156251 130.64342135009767,93.269253125 128.67437457275392,93.22555771484375 127.01525518798829,93.23702084960938 125.39476358642578,93.20222495117187 124.12889747314453,91.84601416015626 122.98461646728516,90.26793344726562 122.76230211181641,88.83986533203125 122.8354493774414,87.59221015625 123.50617554931641,86.57121611328125 124.83955762939453,85.5533873046875 126.45281905517578,84.812483984375 128.0038489379883,84.14560595703125 129.9225392211914,84.84273798828124 131.50780675048827,85.93815839843751 134.63020748291015,87.361581640625 141.63958648681643,90.10316240234376 143.1386718383789,90.66892094726563 144.1859525024414,91.09119248046875 144.95952169189454,91.59589560546875 144.57425196533205,92.43149038085937 143.07477095947266,94.59075473632814 142.2036485961914,94.8684986328125 139.4616667602539,96.35782270507812 136.91763131103517,97.4590478515625 134.4407161743164,97.80153271484376 131.9967433227539,97.576183203125 134.4935929321289,93.93187651367188 135.71517286376954,89.37121821289062 135.6051755493164,91.87155825195313 133.77828790283203,100.57931313476563 133.07209376220703,108.23304497070313 132.04857403564455,114.30401870117188 132.26557686767578,118.59159965820314 133.6706319946289,120.47798178710939 133.6477870239258,118.63385336914064 136.65361607666017,117.32832426757813 141.6554397583008,117.29328447265627 145.84509356689455,116.73952563476564 149.25221363525392,116.78512885742188 152.44326309814454,117.61664243164063 158.00378316650392,119.214592578125 162.14841910400392,121.15890283203126 164.58558453369142,122.43696376953126 166.60951343994142,123.31799916992188 167.42372662353517,122.82512231445313 168.25393941650393,122.21785258789063 172.7586424438477,124.37510615234376 171.63297886962891,124.33402314453126 170.0852659790039,124.04065361328125 167.39153228759767,123.47847221679689 164.88575064697267,122.9736119140625 161.73287369384767,122.45693618164063 156.80376910400392,121.88920478515627 152.17128057861328,121.61840922851563 146.18034283447267,121.67644033203126 141.27226212158203,122.15668876953126 135.16973360595705,122.82958833007814 131.0489778442383,123.351510546875 126.29675782470704,123.617130078125 123.41692027587891,123.50712192382814 119.97300977783203,123.07246044921877 117.98758399658203,122.65057915039063 114.82371002197266,122.34706352539064 112.08689337158204,122.24815537109376 109.79978931884766,122.6114310546875" stroke="#ffcc00" stroke-linecap="round" stroke-width="2" /><polyline fill="none" points="66.91317818298339,117.55508837890625 74.5933751586914,118.67301230468752" stroke="#9933ff" stroke-linecap="round" stroke-width="2" /><polyline fill="none" points="89.15813067626952,110.33101542968751 92.73121959228516,112.33928618164063" stroke="#9933ff" stroke-linecap="round" stroke-width="2" /><text fill="black" font-size="10px" font-weight="bold" x="5" y="10">Hand Trails</text><text fill="gray" font-size="8px" x="5" y="22">Dashed = Left Hand | Solid = Right Hand</text><text fill="gray" font-size="8px" x="5" y="143">Duration: 60s | People: 4 | 20251114_155802</text></svg>