<?xml version="1.0" encoding="utf-8" ?>
<svg baseProfile="full" height="148mm" version="1.1" viewBox="0 0 210 148" width="210mm" xmlns="http://www.w3.org/2000/svg" xmlns:ev="http://www.w3.org/2001/xml-events" xmlns:xlink="http://www.w3.org/1999/xlink"><defs /><rect fill="white" height="148" width="210" x="0" y="0" /><polyline fill="none" points="147.61187061309815,135.50571105957033 150.9904013442993,136.65715103149415 156.08858905792238,134.9097315979004 163.04603427886963,130.15753631591798 171.62177661895754,119.80687164306642 180.81111911773684,97.98420074462891 185.4418632888794,79.61509033203124 189.32944278717042,74.76287139892578 191.45264545440673,74.97226257324219 189.93804416656494,77.4909359741211 164.03719608306886,73.54778350830078 166.19632266998292,74.63007690429687 194.2139903640747,74.17489959716796 193.0293565750122,77.0750375366211 191.39594776153564,79.50802032470703 189.7727095413208,80.40180206298828 187.89540836334228,80.05181060791016 185.75857440948488,77.72978149414062 184.81550662994385,74.80034301757813 183.5553624343872,71.09259460449219 179.53433475494384,68.05645141601562 175.8775546646118,65.0843310546875 170.3512791824341,65.91610870361328 164.70411975860594,69.38799163818359 157.7381573867798,73.19792663574219 147.14643619537352,73.90304290771485 136.23114978790284,49.912132263183594 99.73528804779053,18.121126403808603 96.19795475006103,-0.7733172607422034 91.9495739364624,-8.189717712402341 92.81868862152099,-12.814107666015616 95.48981517791748,-14.921842956542974 97.11147205352783,-15.347738952636718 103.47262538909912,-10.487252807617182 105.78759372711181,-6.4082489013671875 103.23597164154053,-4.18285003662109 98.24881450653076,-0.9166091918945369 94.325969581604,0.7108010864257608 99.15265148162842,10.732815246582021 105.01482570648193,27.807684020996092 116.14642948150635,50.88510620117188 117.09608219146729,69.00646942138673 111.3176615524292,80.58158508300781 108.47861927032471,83.01683654785157 116.85008457183838,43.22009338378906 84.12743602752685,13.140419616699205 71.74390239715576,10.64952789306642 79.61596561431885,8.414996643066388 93.40120021820069,7.886625671386724 123.7583783340454,22.780065612792967 135.1446266555786,41.17097839355469 138.67098667144776,64.6425927734375 137.16353748321532,77.38615386962891 131.86588886260986,91.44379791259766 126.20312747955322,100.85935440063477 123.77134632110595,104.89733947753906 118.53627857208252,108.2041665649414 114.94948139190674,101.58840713500976 116.55934787750245,101.65083419799805 117.47211536407471,103.91275299072265 120.18243427276612,105.79330337524414 125.00463169097901,106.58894561767579 156.67746448516846,75.28080261230468 158.60674335479737,34.48388061523437 166.9627028274536,33.91448120117187 152.16737354278564,13.712837524414056" stroke="#ff3399" stroke-linecap="round" stroke-width="2" /><polyline fill="none" points="213.6731230545044,141.5815446472168 214.81984302520752,139.69209259033204 216.54711353302002,137.7657649230957 219.91861713409423,135.1249578857422 225.46253253936766,130.43564147949218 232.48408710479737,121.78725341796874 241.65784687042236,101.33456527709961 236.33778064727784,47.23676635742187 217.17953601837158,28.855581970214843 209.2833296585083,29.41525299072265 202.15305164337158,28.858312072753904 204.2685350418091,34.37679138183594 205.90623126983644,104.37623596191406 207.73770709991453,109.20229782104492 183.61979862213133,17.862689514160166 201.4945778274536,25.460026550292966 218.14704975128174,49.795122375488276 219.28646381378172,65.06358612060546 215.61403369903564,74.56613098144531 206.55491901397704,82.01983001708984 198.82990161895754,83.68930694580078 185.83602664947512,85.74886169433594 172.98340564727783,86.56345123291015 165.58723102569581,87.67585266113281 157.8192914199829,92.26982696533203 152.96913928985595,96.19979034423828 147.68251682281493,99.22273483276368 139.97784061431884,99.08081756591797 140.67258441925048,103.71495513916015 140.79724628448486,99.99668045043946 137.35111667633058,103.47957992553711 126.52704837799072,108.14693054199219 95.38122631072999,116.96082626342773 57.03168743133545,7.852095642089864 82.42259754180908,-7.676343078613286 95.6453925704956,-7.7234277343749795 91.32514469146729,-4.106964721679674 89.40033588409423,-2.7564291381835915 87.33104793548584,5.302256774902332 75.25922183990478,22.926529846191414 60.688828010559085,55.31958099365235 65.64693214416505,82.65875091552735 93.50652545928955,102.3858950805664 102.89849155426026,101.55827026367187 113.1138815689087,105.45472259521485 113.47629306793213,96.82638732910156 95.8871796798706,67.16797607421876 78.05459690093994,15.400406188964837 87.52770183563233,9.798908691406268 93.98089519500732,6.585981750488287 95.99351428985595,5.160560607910156 93.79573368072509,11.600161132812502 95.59469341278076,24.48247680664062 101.14678470611572,49.61422424316406 108.02860416412354,74.9826446533203 112.55083637237549,89.29343841552735 115.36083286285401,102.36137222290039 131.4963925552368,97.09889770507813 145.7847783279419,86.79893218994141 150.59101810455323,86.18956176757813 150.59393085479735,92.55423828125001 148.77172199249267,99.27705810546875 169.07134174346925,71.79211608886719 154.2628137588501,17.950225830078125 142.3599800491333,7.810817260742169 155.9943909072876,5.4646401977539085" stroke="#ff3399" stroke-linecap="round" stroke-width="2" /><polyline fill="none" points="165.0257335281372,141.07860015869142 174.0875975418091,122.70288558959962 176.78073795318602,82.597900390625 171.85064380645753,71.79932586669922 170.61150409698485,72.93022277832031 171.7554843521118,78.81072906494141 176.18181690216065,36.57944580078126 165.81285861968993,9.603937072753922 149.6271284866333,0.9477624511718545 161.1373273086548,7.228843994140618 168.05086017608642,21.007286987304695 160.5461159133911,15.727364807128907 160.80329349517822,22.741055908203123 163.45982746124267,32.4196923828125 167.01767978668212,45.85535369873047 168.3140459060669,53.47276275634766 164.67974109649657,37.287926635742195 160.55125888824463,30.6472021484375 158.1833755874634,30.729355163574212 158.23996753692626,18.35466552734374 158.91198612213134,22.34196105957031 158.95271656036377,28.26355346679688 149.74013935089113,36.31827880859376 133.32606113433837,45.55548461914063 128.19940921783447,54.63061462402344 150.52410175323487,31.59385559082031 171.006321144104,20.509427795410147 178.54679706573486,15.562558898925772 177.22003452301027,11.922774658203139 175.41809955596923,9.983978881835924 174.49518070220947,7.584334106445311 167.63897998809813,3.9962487792968773 155.6940507888794,1.5997955322265511 144.36077991485595,3.1741226196289176 137.47995059967042,9.806695251464845 144.50224536895752,28.12552947998047 152.07563632965088,55.88036712646485 150.08058506011963,97.28419860839844 141.25876819610596,121.46400543212891 134.94019580841064,140.21822372436523 136.43030307769774,144.67046340942383 138.49265522003174,143.40955017089846 142.34370517730713,143.2346697998047 146.4247566604614,143.7063526916504 149.91493320465088,144.2165069580078 153.36157230377196,144.52017318725586 156.51494647979737,144.48780609130858 159.19108142852784,143.9831120300293 161.22061466217042,142.95952545166017 162.11882801055907,141.34913986206055 161.10900730133056,139.1490905761719 157.60038333892822,136.2026658630371 151.89884296417236,132.69076385498047 146.82448596954345,128.75736862182617 147.2143811416626,125.1039338684082 148.71151554107666,122.62203994750976 149.787502784729,120.70434478759765 147.54202228546143,120.8554136657715 145.31190341949463,121.81673660278321 142.96019886016845,122.28570861816407 140.7899980545044,122.84452407836915 139.65943759918213,123.98054473876954 142.04298053741456,124.05764129638672 144.04975009918212,123.92878814697266 146.22881412506104,123.89282577514649 148.7108234024048,123.92582733154296 152.81206226348877,124.10911911010743 157.35873081207276,124.60636306762694" stroke="#33ccff" stroke-linecap="round" stroke-width="2" /><polyline fill="none" points="228.61482044219971,137.1913282775879 232.7077632522583,128.05083923339845 240.89514850616456,105.64257095336914 243.4492555618286,64.43560485839843 233.53846424102784,42.121784667968754 205.5017915725708,17.83925292968749 187.11842502593993,12.412481994628905 178.82292194366454,9.009639892578122 170.27791248321535,2.809884643554682 173.7250322341919,0.8282147216796716 183.92431079864502,7.030584716796881 190.5049345779419,21.372159423828123 183.93021320343018,16.910229797363286 175.13756229400633,8.861887512207034 170.58125186920165,6.3524426269531205 167.31396320343018,6.034847106933597 165.92018817901612,4.646782226562493 161.35460117340088,5.8406829833984375 155.7814332962036,7.979160766601581 150.20027698516844,10.527615356445324 147.08176929473876,15.741995849609367 145.15432651519774,16.41775390625 148.54699802398682,14.039219360351552 153.89630710601807,12.10163482666016 162.17050769805908,8.382619934082015 170.6870817947388,5.110995788574201 173.0630400466919,4.546383666992199 182.70436832427978,4.498972167968759 184.23745548248291,4.8901266479492165 180.99744861602784,3.464417114257799 188.1079718399048,-0.23762115478515966 194.05806690216065,0.2069433593750034 203.3544313430786,5.239464416503893 215.18263904571535,16.738117980957043 223.07213550567627,30.269217529296867 236.2592998123169,63.58325531005859 236.20214069366455,101.10028594970703 224.37468280792237,133.66085388183595 210.98466419219972,145.51551666259766 199.08929981231688,149.3182034301758 190.15351078033447,149.94994338989258 187.87556705474853,150.7088349914551 190.49701343536378,149.7507420349121 192.60690204620363,149.63813491821287 190.6183395767212,148.4565676879883 186.3151692581177,147.22562789916992 181.60878009796141,145.86146102905275 177.1990492630005,144.3405439758301 173.813722114563,142.80552459716796 178.49749179840086,143.9295962524414 185.73685855865477,145.12928405761718 193.77269428253175,144.8296745300293 205.0467296218872,142.42029174804688 213.51744953155517,139.51441482543947 218.8666240310669,136.56090530395508 226.1788960647583,131.05091430664064 230.40082660675048,126.81720779418944 232.84970935821534,124.60872787475586 232.84374927520753,122.4200700378418 231.30935474395753,120.76733901977539 229.3197444534302,120.34811447143554 227.38041034698486,120.26238540649413 225.1906566238403,120.20397659301759 223.33603260040283,120.41627090454102 228.61043689727785,119.67617279052735 234.49867206573487,119.40366241455078" stroke="#33ccff" stroke-linecap="round" stroke-width="2" /><polyline fill="none" points="73.23861431121826,158.43438110351562 73.0943706893921,155.8733526611328 72.05859477996826,153.73527862548826 66.27282497406006,154.81294815063478 59.19324131011963,155.86619094848635 53.7227815246582,156.7178387451172 46.31044017791748,157.54035903930662 40.069088716506954,158.3655613708496 35.77133834838867,159.06361206054686 29.0382391834259,159.6903532409668 19.91887899398803,160.29289840698243 11.814532356262205,160.65424285888673 2.3368107604980395,161.08912704467775 -6.03191242218017,161.78886962890624 -11.540177879333498,162.45980194091797 -18.16884281158447,163.10836471557616 -23.986205863952648,162.63472076416014 -27.65450237274169,161.99679962158203 -31.343712043762196,161.48532836914063 -33.44925556182861,161.12748306274415 -31.967670249938976,160.36616897583008 -29.31102573394776,160.32370819091796 -25.141130561828618,161.05193420410154 -12.724518470764167,162.58633834838867 -6.875146408081051,162.82294403076173 1.4797988891601506,162.85168701171875 8.25936687469482,162.3717465209961 9.88441715240478,161.60755813598632 7.925309028625492,160.34195373535158 5.709652976989744,159.00865432739258 8.102777709960932,157.89682006835938 10.280419006347657,156.74816787719726 12.180540332794195,156.03328475952148 16.285131740570066,155.49531997680663 19.242715988159176,155.53003265380858 21.7070192527771,155.69589599609375 28.562047326564795,158.51100662231445 31.51674574792385,160.87821701049805 34.20881066322326,162.05842880249025 35.7337943315506,162.8273468017578 34.190557909011844,160.47244110107422 35.65227187156677,161.65557525634767 35.81821482181549,159.69565002441408 27.597522497177124,160.2586471557617 23.478685169219972,159.9208834838867 21.44027850151062,160.16298782348633 20.734366149902343,155.39103775024415 20.823969268798834,150.5530653381348 18.028022232055662,152.519988861084 18.425995960235596,154.72148971557618 20.45309829711914,156.10287353515625 23.71133088111877,157.17315063476562 26.39646603584289,158.2022166442871 28.254063491821285,158.98212234497072 26.16946557998658,159.27626205444335 43.67555597305298,120.60981979370118 25.579627647399903,159.12646209716797 43.67555597305298,120.60981979370118 25.173606605529784,158.7851512145996 41.96216188430786,120.7065461730957 25.173606605529784,158.7851512145996 41.96216188430786,120.7065461730957 25.173606605529784,158.7851512145996 41.96216188430786,120.7065461730957 24.90633593559265,158.85709518432617 41.12612325668335,120.77923995971679 24.90633593559265,158.85709518432617 41.12612325668335,120.77923995971679 24.469036474227906,158.6985185241699 40.35001410484314,121.03193786621094 24.469036474227906,158.6985185241699 40.35001410484314,121.03193786621094 24.469036474227906,158.6985185241699 40.35001410484314,121.03193786621094 24.469036474227906,158.6985185241699 40.35001410484314,121.03193786621094 24.469036474227906,158.6985185241699 40.35001410484314,121.03193786621094 24.15932244300842,158.5562744140625 25.748670501708986,158.2512431335449 24.67695925712586,159.56762359619142 23.495658187866212,160.74896011352538 24.99347150802612,161.40385787963868 23.577584695816043,159.73556335449217 22.26134902954101,157.45923461914063 21.52991406440735,155.783720703125 29.63423591852188,153.03651657104493 39.473144102096555,151.2236323547363 38.95289915084838,153.18477844238282 35.22579879283904,152.3354377746582 31.451058213114734,152.028858795166 27.364151000976562,154.4696858215332 29.592948524951936,154.16589462280274 32.03662994742393,153.9276739501953 33.985784597396844,153.90993789672854 31.897053304910656,153.80864532470702 29.36035508394241,153.4873583984375 27.63501574516296,152.48254608154298 30.19382680535317,151.20275283813476 32.257002890110016,151.00777160644532 36.07913037300109,150.91089141845703 40.69345968246459,151.33699890136717 49.23366743087769,152.44546859741212 57.830826416015626,153.42270111083985 68.39983680725098,153.94686157226562 78.21169315338135,154.06833190917968 84.92703884124757,154.16011718750002 92.24082492828369,154.1320086669922 98.04534976959229,154.0039437866211 101.15511920928955,153.79003448486327 104.15396862030029,153.54224884033204 101.48648540496826,152.74564529418944 99.57882144927979,152.43988342285155 96.99806705474853,151.99348281860352 94.57759082794189,151.80496154785158 92.6216117477417,151.64929763793947 90.51500118255615,151.02727645874023 88.85358959197998,150.67487213134766 90.69776905059814,150.75822677612305 90.99366313934325,152.3062045288086 92.55723323822022,153.52873291015624 94.15549198150634,154.14911026000976 95.95749904632568,154.56686401367188 103.22741603851318,155.59918884277346 109.29714534759522,156.35172622680665 123.35052600860595,157.6671838378906 134.99324054718016,157.61800354003907 145.4441595840454,157.09016128540037 151.23692768096925,156.26396881103517 156.18651706695556,153.90934188842772 154.46988819122313,151.5283367919922 153.39817874908448,149.13781478881836 152.8868516921997,146.21228881835935 152.48445957183839,142.42213745117186 153.71170795440673,140.40578369140627 154.89501514434815,142.0629655456543 155.5459715652466,148.30686386108397 152.78679920196532,148.49241470336915 150.06402179718017,148.52125381469727 147.135313911438,148.47763946533203 142.69583072662354,148.19986114501953 138.5885933303833,147.9961897277832 134.04182865142823,147.9639956665039 121.21388431549073,148.98898574829101 112.24196949005128,150.21661865234375 104.41063190460206,151.7296434020996 93.89379627227783,153.47389053344727 86.29965557098389,154.73201599121094 77.44706256866455,155.6924641418457 71.81067455291748,156.14511322021485 65.12285820007324,156.87984725952148 60.668111915588376,157.5166148376465 54.2962760925293,158.4728044128418 40.28787002563476,159.4842401123047" stroke="#ffcc00" stroke-linecap="round" stroke-width="2" /><polyline fill="none" points="33.74994825839997,161.06791107177736 36.1627649974823,159.94255126953124 39.107996492385865,159.03088928222655 42.373185310363766,158.54706512451173 44.291924686431884,159.09393157958985 42.154261608123775,159.02929351806642 40.24290324211121,159.1849382019043 37.78222949981689,159.54701324462889 35.19524285316467,160.22399215698243 33.32935865879058,160.92945449829102 31.84303164124489,161.57642150878905 30.113566431999203,160.84111068725588 33.52590020656585,159.78690658569337 37.03770818710328,159.19925201416015 43.6887654876709,158.51605346679688 59.53613353729248,156.32128173828124 66.43460998535156,155.4569351196289 72.89388599395753,156.3899284362793 76.48789775848388,158.89327865600586 69.77164844512939,157.82685638427733 67.30297245025635,157.12373962402344 64.69213165283203,155.3900860595703 62.37521186828613,152.4617626953125 60.29494342803955,146.91537673950194 57.80579887390137,136.15764801025392 57.53786430358887,126.57728561401368 58.716819190979,119.56547866821289 60.26002647399903,113.20914627075194 65.50503410339356,102.58769195556641 69.1972093963623,101.04645294189453 71.97020771026612,102.20456436157227 81.42950832366944,115.10734619140625 87.07138538360596,123.23458267211913 91.88655086517333,133.08853210449217 93.24482494354248,137.90856658935547 95.57176151275635,143.1214859008789 96.22662082672119,148.42866104125977 95.72214786529541,155.2812664794922 84.68472301483155,155.37431106567382 77.6472829055786,152.57377380371094 71.2919021987915,149.99291366577148 65.9623815536499,147.70310745239257 63.49784397125244,145.4080909729004 62.19896884918213,143.1375685119629 61.60892543792725,138.1747804260254 61.433694190979004,132.08193176269532 59.463221054077145,129.23211807250976 55.71131034851074,127.95726593017578 52.0531844329834,126.53401733398437 50.303313674926756,125.58671981811523 49.63819484710693,124.11737670898438 52.05848602294922,133.12284103393554 55.78575611114502,140.0645881652832 63.6483264541626,145.99354415893555 66.89599491119384,146.8242932128906 64.70400856018065,145.40230392456056 64.90180881500244,146.99336730957032 62.98145805358887,145.76690719604494 60.043740348815916,144.42481185913084 58.32601318359375,143.51240005493165 65.40539257049561,66.50302307128906 58.25123817443848,143.7584553527832 65.40539257049561,66.50302307128906 56.2829736328125,143.83956054687502 66.97571342468262,64.6995980834961 56.2829736328125,143.83956054687502 66.97571342468262,64.6995980834961 56.2829736328125,143.83956054687502 66.97571342468262,64.6995980834961 56.02881935119629,145.17804138183595 67.32350589752198,64.49630157470703 56.02881935119629,145.17804138183595 67.32350589752198,64.49630157470703 55.42405597686768,145.9941882324219 68.18969341278077,67.49626129150391 55.42405597686768,145.9941882324219 68.18969341278077,67.49626129150391 55.42405597686768,145.9941882324219 68.18969341278077,67.49626129150391 55.42405597686768,145.9941882324219 68.18969341278077,67.49626129150391 55.42405597686768,145.9941882324219 68.18969341278077,67.49626129150391 56.03105438232422,146.51189834594726 58.32535949707031,147.2290020751953 59.931907081604,147.04695999145508 61.529026679992675,148.1909979248047 63.206614608764646,146.95302139282228 64.00438613891602,144.14701431274415 65.50397426605224,140.29798309326173 66.94557174682618,137.33155364990233 68.52277793884278,132.96072677612304 71.37802059173583,129.33261276245116 77.93693332672119,131.88239395141602 85.7193501663208,133.6330433654785 101.13812816619873,135.89468338012696 99.7632956314087,140.92532989501953 96.34208301544189,142.70571243286133 92.24661197662354,144.7308428955078 88.25421192169189,146.76331771850585 90.00162174224853,144.7412922668457 78.17202976226807,139.34995498657227 73.74688442230224,133.40501251220704 77.97279956817627,131.4295718383789 87.26303089141845,130.02789489746095 94.62378627777099,128.9740753173828 99.57454364776612,129.06057342529297 103.23280414581299,128.84260742187502 104.71855670928954,128.15020919799804 106.60084705352783,127.08769943237306 108.32780033111572,126.22831314086915 109.64722332000733,124.84577575683593 108.45072704315186,126.85619827270509 106.89698627471924,127.56006484985352 104.62203701019287,128.5173599243164 102.12843921661377,129.36578735351563 100.1587952041626,130.20127563476564 98.07278537750244,130.33308959960937 108.89450328826905,122.21449523925781 117.41420642852783,113.48885681152345 129.32093341827394,104.81922393798828 135.57040729522706,105.88607879638673 140.96583011627197,108.58705383300781 145.02657886505128,110.52568618774414 146.91842456817628,111.77800537109374 149.6235332107544,112.47446029663087 152.07265628814696,112.20672760009765 154.05531635284424,109.51362564086915 153.10502918243407,108.24006164550781 150.4824196243286,108.176884765625 146.9900224685669,108.09938446044922 144.04732761383056,108.11971603393555 141.17314487457276,108.05800033569335 138.92794315338136,105.65255889892578 136.89839069366457,102.85359817504883 136.5040831375122,100.32070709228516 136.63382068634033,98.10780517578125 137.8234532546997,96.29692047119141 141.5864189529419,93.79881896972657 143.0497635269165,93.17754760742187 144.67765445709227,92.4053515625 149.20382801055908,93.2312075805664 152.01553562164307,95.17409851074218 157.55357746124267,97.69875122070313 169.9857530593872,102.56135223388672 172.64460376739504,103.56480911254883 174.50211170196533,104.31377044677734 175.8741516494751,105.20893646240235 175.19081851959228,106.6909880065918 172.5312660598755,110.52076431274415 170.98620105743407,111.01338439941406 166.1228886795044,113.6549220275879 161.6106636428833,115.60810852050781 157.2174864578247,116.21555633544922 152.8827373123169,115.81586547851563 157.31127124786377,109.35214584350587 159.47792484283448,101.26314041137695 159.28282825469972,105.69786514282227 156.0425714492798,121.14236282348634 154.79003116607666,134.717393951416 152.97466678619384,145.48516830444336 153.359553565979,153.0898304748535 155.81110874176025,153.1647737121582 161.14239337921143,150.8492237854004 170.01387119293213,150.7870755004883 177.4448450088501,149.80490188598634 183.4878789138794,149.88578598022463 199.01008838653564,154.19480102539063 206.36121631622314,157.64332427978516 210.68389148712157,159.91015533447268 214.27363025665284,161.4728025817871 215.7177583694458,160.59861221313477 217.19026416778564,159.52152908325195 225.18002460479738,163.34773895263672 223.18349292755127,163.27487213134765 220.43839405059816,162.7545376586914 215.6606569290161,161.75742538452147 211.21628070831298,160.8619805908203 205.62418476104736,159.9455793762207 188.66527805328369,158.45832717895507 178.03945941925048,158.56125396728515 169.33424869537353,159.41304595947264 158.5105072402954,160.60653335571288 151.20173435211183,161.53223999023436 142.77296573638915,162.00335571289062 137.66514575958251,161.80823989868162 131.5568585586548,161.03730316162108 128.03541080474855,160.28903396606444 122.42381000518799,159.75070388793944 113.51313983917237,160.21959899902345" stroke="#ffcc00" stroke-linecap="round" stroke-width="2" /><polyline fill="none" points="37.44735995292663,151.25142364501954 51.06933094024658,153.23422790527343" stroke="#9933ff" stroke-linecap="round" stroke-width="2" /><polyline fill="none" points="76.90208988189697,138.43845642089843 83.23949420928955,142.0004231262207" stroke="#9933ff" stroke-linecap="round" stroke-width="2" /><text fill="black" font-size="10px" font-weight="bold" x="5" y="10">Hand Trails</text><text fill="gray" font-size="8px" x="5" y="22">Dashed = Left Hand | Solid = Right Hand</text><text fill="gray" font-size="8px" x="5" y="143">Duration: 60s | People: 4 | 20251114_155410</text></svg>